<svg xmlns="http://www.w3.org/2000/svg" width="137.5" height="52" viewBox="0 0 137.5 52">
  <g id="Layer_2" data-name="Layer 2">
    <g id="Layer_1-2" data-name="Layer 1">
      <g>
        <path d="M106.7,14.9h0a3.9,3.9,0,0,1-1.9-.6l-.4.6a3.8,3.8,0,0,0,2.4.7c2,0,2.9-1.2,2.9-2.6s-1-2-2-2.5l-.8-.3c-.7-.4-1.4-.8-1.4-1.7a1.8,1.8,0,0,1,1.8-1.7,3.2,3.2,0,0,1,2,.7l.3-.7a4.8,4.8,0,0,0-2.3-.7,2.5,2.5,0,0,0-2.7,2.4c0,1.9,1.4,2.2,2.7,2.9a1.9,1.9,0,0,1,1.4,1.7A1.8,1.8,0,0,1,106.7,14.9Z" style="fill: #231f20"/>
        <path d="M126.6,21.4h-1.1l-3.7,9.1,1,.3,1.2-3.2h4l1.2,3.2,1-.3h0Zm-2.3,5.5,1.7-4.5,1.7,4.5Z" style="fill: #231f20"/>
        <rect x="127.8" y="20.9" width="0.9" height="1.19" style="fill: #231f20"/>
        <polygon points="131.1 37.4 133.8 37.4 133.8 45.7 134.8 45.7 134.8 37.4 137.5 37.4 137.5 36.6 131.1 36.6 131.1 37.4" style="fill: #231f20"/>
        <path d="M124.9,36.6h-2.8v9.1h2.5c3.2,0,5.3-1.6,5.3-4.7S128.6,36.6,124.9,36.6Zm-.4,8.3h-1.4V37.4h1.6c2.5,0,4.2,1.3,4.2,3.7S127.2,44.9,124.5,44.9Z" style="fill: #231f20"/>
        <polygon points="115 22.3 117.7 22.3 117.7 30.6 118.7 30.6 118.7 22.3 121.4 22.3 121.4 21.4 115 21.4 115 22.3" style="fill: #231f20"/>
        <path d="M116.4,36.6h-1.1l-3.7,9,1,.4,1.3-3.2h3.9L119,46l1-.4h0ZM114.1,42l1.8-4.5,1.7,4.5Z" style="fill: #231f20"/>
        <polygon points="137.4 14.6 133.4 14.6 133.4 11.2 137 11.2 137 10.3 133.4 10.3 133.4 7.2 137.4 7.2 137.4 6.3 132.4 6.3 132.4 6.3 132.4 15.5 137.4 15.5 137.4 14.6" style="fill: #231f20"/>
        <polygon points="131.1 21.4 131.1 22.3 133.8 22.3 133.8 30.6 134.8 30.6 134.8 22.3 137.5 22.3 137.5 21.4 131.1 21.4" style="fill: #231f20"/>
        <path d="M116.8,15.6a6.5,6.5,0,0,0,2.7-.8l-.4-.7a4.8,4.8,0,0,1-2.3.7,3.7,3.7,0,0,1-3.8-3.9,3.8,3.8,0,0,1,3.8-4,3.9,3.9,0,0,1,2.3.7l.4-.8a6,6,0,0,0-2.7-.7,4.8,4.8,0,0,0-4.9,4.8A4.6,4.6,0,0,0,116.8,15.6Z" style="fill: #231f20"/>
        <rect x="123.4" y="20.9" width="0.9" height="1.19" style="fill: #231f20"/>
        <polygon points="93.5 29.8 89.6 29.8 89.6 26.3 93.1 26.3 93.1 25.4 89.6 25.4 89.6 22.3 93.5 22.3 93.5 21.4 88.5 21.4 88.5 30.6 93.5 30.6 93.5 29.8" style="fill: #231f20"/>
        <polygon points="80.1 11.1 85.1 11.1 85.1 15.5 86.1 15.5 86.1 6.3 85.1 6.3 85.1 10.3 80.1 10.3 80.1 6.3 79.1 6.3 79.1 15.5 80.1 15.5 80.1 11.1" style="fill: #231f20"/>
        <polygon points="104.7 37.4 107.4 37.4 107.4 45.7 108.4 45.7 108.4 37.4 111.1 37.4 111.1 36.6 104.7 36.6 104.7 37.4" style="fill: #231f20"/>
        <rect x="100.5" y="6.3" width="1" height="9.14" style="fill: #231f20"/>
        <rect x="112" y="21.4" width="1" height="9.15" style="fill: #231f20"/>
        <polygon points="67.3 14.6 63.3 14.6 63.3 11.2 66.9 11.2 66.9 10.3 63.3 10.3 63.3 7.2 67.3 7.2 67.3 6.3 62.3 6.3 62.3 15.5 67.3 15.5 67.3 14.6" style="fill: #231f20"/>
        <polygon points="72.3 30.5 72.3 21.5 71.4 21.5 71.4 29.3 66 21.2 66 21.2 64.9 21.5 64.9 30.6 65.9 30.6 65.9 22.8 71.3 30.8 72.3 30.5" style="fill: #231f20"/>
        <polygon points="123.2 11.1 128.1 11.1 128.1 15.5 129.1 15.5 129.1 6.3 128.1 6.3 128.1 10.3 123.2 10.3 123.2 6.3 122.1 6.3 122.1 15.5 123.2 15.5 123.2 11.1" style="fill: #231f20"/>
        <path d="M76.4,14.1a5.5,5.5,0,0,1-2.4.7,3.8,3.8,0,0,1-3.8-3.9,3.8,3.8,0,0,1,3.8-4,4,4,0,0,1,2.4.7l.4-.8A6.4,6.4,0,0,0,74,6.1a4.7,4.7,0,0,0-4.8,4.8A4.5,4.5,0,0,0,74,15.6a6.5,6.5,0,0,0,2.7-.8Z" style="fill: #231f20"/>
        <path d="M57.7,36.6H54.9v9.1h2.5c3.2,0,5.3-1.6,5.3-4.7S61.4,36.6,57.7,36.6Zm-.4,8.3H56V37.4h1.5c2.5,0,4.2,1.3,4.2,3.7S60,44.9,57.3,44.9Z" style="fill: #231f20"/>
        <path d="M67.8,36.6l-3.7,9,1,.4,1.2-3.2h4L71.5,46l1-.4-3.6-9ZM66.6,42l1.8-4.5L70,42Z" style="fill: #231f20"/>
        <rect x="75.5" y="21.4" width="1" height="9.15" style="fill: #231f20"/>
        <polygon points="56.5 15.5 57.6 15.5 57.6 7.2 60.3 7.2 60.3 6.3 53.9 6.3 53.9 7.2 56.5 7.2 56.5 15.5" style="fill: #231f20"/>
        <path d="M58.4,30.7c1.7,0,3.6-.5,3.6-3.3h0v-6H61v5.9c0,2-1,2.7-2.6,2.7S56,29.1,56,27.3V21.4H54.9v6.1C54.9,29.6,56.2,30.7,58.4,30.7Z" style="fill: #231f20"/>
        <path d="M103.9,30.1a4.2,4.2,0,0,0,2.4.7,2.6,2.6,0,0,0,2.9-2.6c0-1.4-.9-2-2-2.5l-.8-.3c-.6-.4-1.3-.8-1.3-1.7a1.6,1.6,0,0,1,1.8-1.7,2.9,2.9,0,0,1,1.9.7l.4-.7a4.8,4.8,0,0,0-2.4-.7,2.5,2.5,0,0,0-2.7,2.4c0,1.9,1.4,2.2,2.8,2.9a1.8,1.8,0,0,1,1.3,1.7,1.8,1.8,0,0,1-1.9,1.8h0a4.3,4.3,0,0,1-2-.6Z" style="fill: #231f20"/>
        <path d="M78.4,41.6v-.2a2.1,2.1,0,0,0,2-2.4c0-1.5-1-2.4-2.7-2.4H74.9v9.1H76V41.8h.8a1.5,1.5,0,0,1,1.4.7l.4.5,2.2,2.9.9-.5L79.9,43C79.5,42.6,79,41.7,78.4,41.6ZM77.2,41H76V37.4h1.4c1.6,0,2.1.7,2.1,1.8S78.4,41,77.2,41Z" style="fill: #231f20"/>
        <path d="M101,40.8l-.8-.3c-.6-.4-1.4-.8-1.4-1.7a1.7,1.7,0,0,1,1.9-1.7,2.9,2.9,0,0,1,1.9.7l.3-.7a4.5,4.5,0,0,0-2.3-.7,2.5,2.5,0,0,0-2.7,2.4c0,1.9,1.4,2.2,2.7,2.9a1.8,1.8,0,0,1-.6,3.5,3.9,3.9,0,0,1-1.9-.6l-.4.6a4,4,0,0,0,2.4.7,2.6,2.6,0,0,0,2.9-2.6C103,41.9,102,41.3,101,40.8Z" style="fill: #231f20"/>
        <polygon points="79.5 21.3 79.5 21.3 79.5 21.3 79.5 21.3" style="fill: #231f20"/>
        <polygon points="96.8 6.3 95.8 6.3 95.8 14.2 90.4 6.1 89.4 6.4 89.4 15.5 90.3 15.5 90.3 7.6 95.7 15.7 96.8 15.4 96.8 6.3" style="fill: #231f20"/>
        <path d="M99.2,27.4l.4.5,2.1,2.9.9-.5-1.8-2.4c-.4-.4-.8-1.3-1.4-1.4v-.2a2.2,2.2,0,0,0,2-2.4c0-1.5-1-2.4-2.7-2.4H95.9v9.1h1V26.7h.9A1.6,1.6,0,0,1,99.2,27.4Zm-2.3-1.5V22.2h1.5c1.6,0,2,.8,2,1.9s-1.1,1.8-2.3,1.8Z" style="fill: #231f20"/>
        <polygon points="92 36.6 89.7 44.5 87.3 36.6 87.3 36.6 86.2 36.6 83.6 45.6 84.6 45.9 86.8 37.9 89.1 45.7 90.2 45.7 92.6 37.9 94.7 45.9 95.7 45.6 93.1 36.6 92 36.6" style="fill: #231f20"/>
        <polygon points="85.6 21.3 82.6 29.5 79.5 21.3 78.5 21.6 82 30.6 83 30.6 86.6 21.6 85.6 21.3" style="fill: #231f20"/>
        <path d="M16.9,12.7a.5.5,0,0,0,.4-.5.4.4,0,0,0-.4-.4.5.5,0,0,0-.5.4A.5.5,0,0,0,16.9,12.7Z" style="fill: #231f20"/>
        <circle cx="30.6" cy="16.5" r="0.4" style="fill: #231f20"/>
        <path d="M33,14a.6.6,0,0,0,.5-.5A.5.5,0,0,0,33,13a.5.5,0,0,0-.5.5A.5.5,0,0,0,33,14Z" style="fill: #231f20"/>
        <path d="M31.7,15.4a.5.5,0,0,0,.5-.5.5.5,0,0,0-.5-.4.4.4,0,0,0-.4.4A.5.5,0,0,0,31.7,15.4Z" style="fill: #231f20"/>
        <path d="M42.5,27.8c-1-2.6-4.3-12.5-4.8-13.9l.3-.2h.1l-.7-1.8h0L35.7,6.7h-.3a27.3,27.3,0,0,0-3.5,3.3A23.7,23.7,0,0,0,28.3,9a2.7,2.7,0,0,1,2.5-.4h.3l4-6.6V1.7H35A25,25,0,0,0,30.5.4h0A22.8,22.8,0,0,0,26,0h-.2a25.2,25.2,0,0,0-8.6,1.6l-.4.2h-.1a20.5,20.5,0,0,0-3.9,2h-.1A24.2,24.2,0,0,0,9.1,6.5H9A31.4,31.4,0,0,0,5.9,9.8h0L4.4,11.9l-1,1.7h0a20.9,20.9,0,0,0-1.9,4h0A23.6,23.6,0,0,0,.4,22.1H.3A29.1,29.1,0,0,0,0,27.4a27,27,0,0,0,.6,4.1h0A22.5,22.5,0,0,0,2,36H2a.1.1,0,0,0,.1.1,19.8,19.8,0,0,0,2,3.8.1.1,0,0,1,.1.1h0A29.3,29.3,0,0,0,7,43.6c0,.1.1.1.2.1h.2L11,39.2h.1a2.6,2.6,0,0,1-.3-2.8c.4.6.8,1,1.2,1.5v.2h0L13,39h0l.4.6c-3.7,2.5-3,5.1-2.3,6.4s5.5,4.8,10.5,5.6a24.9,24.9,0,0,0,4.7.4,27,27,0,0,0,10.1-1.9h0l1.9-.8h.1c-.6-.6-3.2-1.4-5.3-2a16.3,16.3,0,0,1,.8-3.7h0c3.1.1,5.7-.6,6.6-1.9s1-1.7-.6-3.2c.4-.5.6-.6,1.1-.6l.2-.2a1.3,1.3,0,0,0-.4-1.5c.9-.8,1-1.2.4-2s-.2-.6.4-1.2,1.5-.3,1.7-.7.1-1.7-.5-3.2ZM40,22.1a10.3,10.3,0,0,0-6.7.6,6.5,6.5,0,0,0,.4-1.3,6.4,6.4,0,0,0,3.9-6.3C38.1,16.7,39.1,19.4,40,22.1Zm-9.5,1.6A5.6,5.6,0,0,0,32.4,19l.9-1a7.4,7.4,0,0,1-.7,5h0a8.1,8.1,0,0,1-2.1,2A3.3,3.3,0,0,0,30.5,23.7Zm-.1-.5a2.7,2.7,0,0,0-.3-1.2l1.8-2.4A5.1,5.1,0,0,1,30.4,23.2Zm5.6-8,1.1-.9c.3,3-1,5.5-3.3,6.5a5.7,5.7,0,0,0,.1-1.3A4.7,4.7,0,0,0,36,15.2Zm-2.1,3.7c-.1-.4-.1-.9-.2-1.4l1.8-1.9A3.9,3.9,0,0,1,33.9,18.9Zm3.6-5.5-.2.2h-.1a34.5,34.5,0,0,0-7.5,8.1h0l-2.6,3.7-2.7,4h-.1l-1.2,1.7h0l-2.4,3h0A34.4,34.4,0,0,1,18,36.9h0l-1.2,1h0a21.1,21.1,0,0,1-2.7,1.8l-.2-.2h0l-.4-.6c5.4-3.6,9.1-8.9,12.7-14.1s6.4-9.3,10.9-12.7ZM14.6,41.1h0l-.3-.8,1.1-.7a3,3,0,0,1,.2,2.5,3.4,3.4,0,0,1-.8.9A11.1,11.1,0,0,0,14.6,41.1Zm-.3,2.2-1.8.4a3.4,3.4,0,0,1,1.7-2.2A10.3,10.3,0,0,1,14.3,43.3Zm1.7-1a3.4,3.4,0,0,0-.2-3l1.1-.8a4.2,4.2,0,0,1,0,4.2,4.6,4.6,0,0,1-4.1,2.4,2.9,2.9,0,0,1-.2-.9C14.4,44,15.5,43.4,16,42.3Zm1.4.7a4.9,4.9,0,0,0-.2-4.8l.9-.7a6.6,6.6,0,0,1,.5,5.6,6.2,6.2,0,0,1-4.4,3.5,5.2,5.2,0,0,1-1.1-1A5.4,5.4,0,0,0,17.4,43Zm1.6.3a7,7,0,0,0-.5-6.1,3,3,0,0,1,.8-.8,8.7,8.7,0,0,1,1,6.3,7.4,7.4,0,0,1-4.2,5L14.7,47A6.7,6.7,0,0,0,19,43.3Zm1.3-6.1a6.7,6.7,0,0,0-.6-1.2l1-1.1a4.2,4.2,0,0,0,.4,1A2.6,2.6,0,0,0,20.3,37.2Zm2.4-1.6h.5A2.5,2.5,0,0,1,25.6,38a2.5,2.5,0,1,1-2.9-2.4Zm-1.6-1.2.9-1a8,8,0,0,0,.4,1.8l-1,.4Zm1.6.1a1,1,0,0,1,1.4-.3c.4.2.5.6.4,1.2a3.1,3.1,0,0,0-1.3-.3h-.3A1.4,1.4,0,0,1,22.7,34.5Zm2.2,1.1a1.5,1.5,0,0,0-.5-1.9,1.5,1.5,0,0,0-1.8.3,4.3,4.3,0,0,1-.2-1.1l1-1.3H24V32h-.1c-.2,0-.3.1-.3.2a.3.3,0,0,0,.3.3A2.4,2.4,0,0,1,25.9,34a2.8,2.8,0,0,1-.2,2.4A6,6,0,0,0,24.9,35.6Zm-.7-4.5h-.4l.9-1.2c3.5-1.1,4.7-3.9,4.2-6.2l.9-1.2a7,7,0,0,1-1,6,6.8,6.8,0,0,1-4.5,2.6Zm1-1.9,2.3-3.4,1-1.5A4.9,4.9,0,0,1,25.2,29.2Zm11-19.7h0a.8.8,0,0,0,.5,1.5l.2.6-.8.7L34.6,12l.3-2.3,1-1Zm-4.7.8-.7.8a1.6,1.6,0,0,0-1.8-.5,1.6,1.6,0,0,0-.7.7,1.8,1.8,0,0,0-1.3.1c-.1-.2-.1-.5-.3-.7l-.2-.2a2.3,2.3,0,0,0-.3-1.3A20.9,20.9,0,0,1,31.5,10.3ZM27.8,15l-.5-.3s-.3-.4-.3-.2a1.7,1.7,0,0,0,.3,1.4c-.5.6-.9,1.3-1.4,2a13.9,13.9,0,0,0-1.9-.6l1.5-1.6h0l1.7-1.8h.2c.1-.1,0-.3,0-.4H27a1,1,0,0,1,0-1.2.9.9,0,0,1,1.2-.3c-.1.2,0,.6,0,.9l.3.2c.2-.1.2-.2.2-.3s.1-1.4.5-1.5a1.1,1.1,0,0,1,1.3.4ZM11.1,31.9h0a5.8,5.8,0,0,0,1.5,1.3,2,2,0,0,1-1.4.7A12.8,12.8,0,0,0,11.1,31.9Zm0-1h0l-.3-.4a2.4,2.4,0,0,0,.9-.6c.4,1,1.4,2.3,3.9,2.7l-1.1,1.1-.4-.2A6.8,6.8,0,0,1,11.1,30.9Zm.1-8.3h0a3.6,3.6,0,0,1-.4-1.1h0a3.8,3.8,0,0,1-.1-1.5,8,8,0,0,0,2.2,2.3l-1.2,1.2Zm.2,1.2a1,1,0,0,0-.4.5l-.5.2L10,23.4l.9-.4ZM10.9,19a.2.2,0,0,0-.4,0,3.7,3.7,0,0,0-.2,2.3l-1.5.6a17,17,0,0,1,2.5-5.5,1.5,1.5,0,0,0,.1.7h0A7.1,7.1,0,0,0,12.6,20h.1A4.9,4.9,0,0,0,14,21.3l-.7.6C12.3,21.1,11.1,20.2,10.9,19Zm-.5,2.7.3.8-1.1.6c-.2.1-.2.2-.2.3l.6,1.3-.5.4-1-1.7c0-.2.1-.5.1-.8A6,6,0,0,1,10.4,21.7ZM9.1,25.4l-.9,1a15,15,0,0,1,.2-2.2Zm1.3-.4h.2a5.6,5.6,0,0,0-.7,1.9l-1.6,1v-.6A6.9,6.9,0,0,1,10.4,25Zm-.2,3.2c.1-.4.1-.7.2-1.1h0a5.5,5.5,0,0,1,.9-2.4h.1a2.1,2.1,0,0,1,.4-.6.1.1,0,0,1,.1-.1,10.6,10.6,0,0,1,1.5-1.5h0l1-.8.9.5a7.3,7.3,0,0,0-3.9,6.8.4.4,0,0,1,.1.3,2.9,2.9,0,0,1-1.1.9H9.7A3.5,3.5,0,0,0,10.2,28.2ZM12,29.3h0c0-.1-.1-.2-.1-.4-.3-2.4,1.5-5.3,4-6.4H16l1.4.5c-2.5.9-4.1,2.4-4.3,4.2a3.2,3.2,0,0,0,1.2,3.2,3.2,3.2,0,0,0,2.7.5l-1.1,1.2C13.8,31.8,12.4,30.8,12,29.3Zm2.6.8a3.1,3.1,0,0,1-1.1-2.8c.3-1.8,2-3.3,4.6-4.1h.3l2.2.8c-3.1.3-4.6,1.3-5.3,2.2h-.1a2.9,2.9,0,0,0-.5,1.6,1.5,1.5,0,0,0,1.4,1.5,1.4,1.4,0,0,0,1.5-1.4,2.1,2.1,0,0,0-.5-1.3,2.8,2.8,0,0,0-1.1-.5,3.5,3.5,0,0,1,1.1-.8,2.8,2.8,0,0,1,1.6,3.2,13.4,13.4,0,0,1-1.1,1.4A2.7,2.7,0,0,1,14.6,30.1Zm2.1-2.9a1,1,0,0,1,.4.9.9.9,0,0,1-1,.9,1,1,0,0,1-.9-1.1,1.9,1.9,0,0,1,.4-1.1A1.2,1.2,0,0,1,16.7,27.2Zm.9-1.9,1.4-.5a4,4,0,0,1,1.2,1.9,11.3,11.3,0,0,1-1,1.3A3,3,0,0,0,17.6,25.3Zm2-.6,1.7-.2.3.2-1.1,1.5A4.6,4.6,0,0,0,19.6,24.7Zm-1.1-1.9-.8-.2h1a18.8,18.8,0,0,1,4.2.2l-1.1,1.6A9.2,9.2,0,0,0,18.5,22.8Zm2.1-.8H18.7a10,10,0,0,1-2.5,0h-.3l-1.3-.7h-.1l-.9-.7a22,22,0,0,0,5.3.4,15.6,15.6,0,0,1,5,.3l-.8,1.1Zm-.2-1.7H18.9a17.6,17.6,0,0,1-5.9-.6,5.1,5.1,0,0,1-.9-1.8c1.7,1.4,4.5,1.4,7.3,1.3s3.9-.1,5.4.5l-.7,1A10.2,10.2,0,0,0,20.4,20.3Zm.4-1.6H19.3c-2.9.1-6,.1-7.5-1.7,0-.4-.1-.8-.1-1.2l.2-.2a4.8,4.8,0,0,0,2.2,1.6h.1a13,13,0,0,0,4.5.3,22.2,22.2,0,0,1,7,.8,8.6,8.6,0,0,0-.7,1A10.7,10.7,0,0,0,20.8,18.7Zm.6-9.2,2.4-.3c0,.1-.1.2-.2.3a3.5,3.5,0,0,0-.1.6,1.2,1.2,0,0,0-1.1,1.2,1.6,1.6,0,0,0,1,1.5l-1.1,4.3H21.2a3,3,0,0,1-.8-1.6H22l-.2-1.6h0v-.2a.3.3,0,0,0-.3-.3l-.2.3H21a1.1,1.1,0,0,1-1.2-1.1,1.3,1.3,0,0,1,.4-.9l1,.7h0a.3.3,0,0,0,.3.3c.1,0,.2-.2.2-.3ZM24.5,11c-.5-.5-.6-.9-.4-1.3a.9.9,0,0,1,.8-.5h.5a.9.9,0,0,1,.6,1h-.9c-.1,0-.2.2-.2.3l.3.2a1.3,1.3,0,0,1,.9.1h0l.2.2a.9.9,0,0,1,.1,1,.9.9,0,0,1-.8.5l-.2-.3c-.2,0-.3.1-.3.2v.3h0a2.2,2.2,0,0,0-.1.8h-.4c-.1,0-.6-.1-.5.1s.5.4.8.5a5.7,5.7,0,0,0,.1,1.3l-1.6,1.8h-.6l1.1-4.6h0v-.2c0-.2-.1-.3-.2-.3s-.2,0-.3.2h0a1,1,0,0,1-.6-1,.8.8,0,0,1,.7-.8,2.1,2.1,0,0,0,.6.8h.4C24.6,11.2,24.6,11,24.5,11Zm2.2,2.7-1.3,1.4a7.4,7.4,0,0,1,.1-2.1l.8-.2A3.6,3.6,0,0,0,26.7,13.7Zm-6.1,3.4a12,12,0,0,0-1.9,0,18.9,18.9,0,0,1-4.3-.3,7.4,7.4,0,0,1,0-2.1h.1a5,5,0,0,0,3.7,1.3,4.8,4.8,0,0,0,1.8-.3A3.6,3.6,0,0,0,20.6,17.1Zm-.4-6.2h-.3a.4.4,0,0,0-.1.3A1.6,1.6,0,0,0,21,14h.4v1a3.1,3.1,0,0,1-2.6-1h0c-.2-.1-.3-.3-.4-.4a2.8,2.8,0,0,1,.7-3.3L21,9.6v1.9Zm-2.1,2.8c.1.1.1.2.2.2a2.9,2.9,0,0,1-3-1.7,22.8,22.8,0,0,1,3-1.7A3.1,3.1,0,0,0,18.1,13.7Zm.5.7a4.2,4.2,0,0,0,1.4.9,4.5,4.5,0,0,1-1.8.3h0a4.6,4.6,0,0,1-3.4-1.2h-.4L13.3,14c.5-.6,1.1-1,1.6-1.5A3.6,3.6,0,0,0,18.6,14.4Zm-4.6.2a4.5,4.5,0,0,0-.1,2,3.8,3.8,0,0,1-1.7-1.4l.7-.9ZM27.8,8.9l-2.6-.2h-.3a15,15,0,0,0-3.7.4h-.1L19,9.7a.1.1,0,0,0-.1.1,17.1,17.1,0,0,0-4,2.1A18.2,18.2,0,0,0,7.8,26.8v.3h0a15.4,15.4,0,0,0,2.7,8.4,4.2,4.2,0,0,0-.4,1.8A21,21,0,0,1,6.5,25.9v-.6h0a11,11,0,0,1,.2-1.8h0A8,8,0,0,1,7,22H7a10.3,10.3,0,0,1,.4-1.4h0a6.9,6.9,0,0,1,.5-1.3h0l.7-1.5h.1a7.5,7.5,0,0,1,.7-1.2h0l.9-1.3h.1a18.5,18.5,0,0,1,9-6.4h0l1.5-.4h0l1.7-.3h3.3a19.1,19.1,0,0,1,3.3.6A1.8,1.8,0,0,0,27.8,8.9Zm2.8-8a27.9,27.9,0,0,1,3.9,1L30.8,8.1l-1.4-.5L32,2.5c.1-.1.1-.2-.1-.3h-.3L28.9,7.5l-1-.2ZM26.1.5a26.9,26.9,0,0,1,4,.3L27.4,7.2H26.2L27.8,2c0-.1-.1-.2-.2-.3l-.3.2L25.7,7H24.4ZM21.5.9A19,19,0,0,1,25.6.5L23.9,7h-1l.8-5c0-.1-.1-.3-.2-.3s-.3.1-.3.2l-.8,5.2-1.3.2ZM17.3,2.1A16.6,16.6,0,0,1,21.1,1l-.5,6.5-1.1.3-.2-5.1a.2.2,0,0,0-.2-.2c-.1,0-.2.1-.2.3V8l-1.1.4-.8-6.3Zm-.7.2.9,6.3-1.1.5L15.3,4.4c0-.1-.1-.2-.3-.2a.2.2,0,0,0-.1.3L16,9.3l-.9.6-2-5.8A29.1,29.1,0,0,1,16.6,2.3ZM12.7,4.4l2,5.8-1.1.7L11.7,6.5a.2.2,0,0,0-.3-.1c-.1.1-.2.2-.1.3l1.9,4.5a4.6,4.6,0,0,0-.7.7l-3-5.1A24.3,24.3,0,0,1,12.7,4.4ZM9.1,7.1l3,5.1-.9.9L8.5,9.3a.2.2,0,0,0-.3,0,.2.2,0,0,0-.1.3l2.8,3.8-.7.9L6.4,10A38.4,38.4,0,0,1,9.1,7.1ZM4.8,12.2c.4-.7.9-1.3,1.3-1.9l3.8,4.4a10.5,10.5,0,0,0-.8,1.1L5.9,12.7H5.6a.2.2,0,0,0,0,.3l3.3,3.2-.6.8L3.9,13.6ZM3.7,14.1l4.4,3.4a11.7,11.7,0,0,0-.5,1.1L3.9,16.3c-.2-.1-.3,0-.4.1a.4.4,0,0,0,.1.3L7.4,19c-.1.4-.3.7-.4,1.1L2,17.6A22.6,22.6,0,0,1,3.7,14.1Zm-1.8,4,5,2.4a6.1,6.1,0,0,0-.3,1.1L2.5,20.3c-.2,0-.3,0-.3.2s0,.2.1.3l4.2,1.3-.3,1.1L.8,22.1A26.2,26.2,0,0,1,1.9,18.1ZM.8,22.5l5.4,1.1c-.1.5-.1,1-.2,1.5l-4.2-.5c-.1,0-.3.1-.3.2l.2.3,4.3.4v1.2H.5A28.3,28.3,0,0,1,.8,22.5ZM.5,27.4V27H6.1a5.3,5.3,0,0,0,.1,1.3l-4.3.4a.3.3,0,0,0-.3.3l.3.2,4.3-.4a5,5,0,0,1,.2,1.2L1,31.2A23.2,23.2,0,0,1,.5,27.4Zm.6,4.3,5.4-1.2a7.4,7.4,0,0,1,.4,1.4L2.8,33.1c-.1,0-.2.1-.1.2s.1.2.2.2l4.2-1.2.3,1-5,2.3A19.8,19.8,0,0,1,1.1,31.7Zm1.5,4.4,5-2.4.4,1L4.3,36.9c-.1.1-.1.2-.1.4s.2.1.4,0l3.6-2.2.6,1.1L4.4,39.5A27.9,27.9,0,0,1,2.6,36.1Zm8,2.9L7.2,43.1a18.5,18.5,0,0,1-2.5-3.2L9,36.6l.7,1.1L6.3,40.9a.3.3,0,0,0,.4.4l3.2-3.2ZM8.4,28.3l1.4-.9v.7a3.3,3.3,0,0,1-.7,2.1.4.4,0,0,0-.1.3c0,.1.1.1.2.1h1.2l.2.4a2.8,2.8,0,0,0,.1.9,7,7,0,0,1-.1,2.1.3.3,0,0,0,.1.2h.2a2.6,2.6,0,0,0,2.1-.9l.9.4h.3a27.6,27.6,0,0,1-2.7,2.3A15.3,15.3,0,0,1,8.4,28.3Zm3.4,8.3a28.5,28.5,0,0,0,4.4-4.1h0l1.8-2h0A13.4,13.4,0,0,0,19.1,29a.1.1,0,0,1,.1-.1,24.3,24.3,0,0,0,1.4-2h.1L24.5,21c.6-.9,1.2-1.8,1.7-2.7h0A70.2,70.2,0,0,1,31,11.7h0l1.1-1.2h0a31.9,31.9,0,0,1,3.3-3.1l.4,1L34.5,9.4h0C30.8,13,27.8,17.7,25,22.2c-3.8,6.1-7.5,11.9-12.7,15.1Zm1.5,1.9-.7-.8c5.3-3.3,9-9.1,12.8-15.2,2.7-4.3,5.5-8.8,8.9-12.2l-.2,1.8c0,.1.1.3.2.3l1.3.3c-3.9,3.3-6.9,7.7-9.8,11.9S18.6,35,13.3,38.5Zm-1.8,7.3c-1.1-2-.4-4.1,2.1-5.8l.2.3h0l.3.7c-1.8,1.1-2.1,2.4-2,3.2a1.9,1.9,0,0,0,.4,1.2h0a6.5,6.5,0,0,0,3.6,2.7h.2a8.1,8.1,0,0,0,4.5-5.3A13.2,13.2,0,0,0,21,40a2,2,0,0,0,1.2.8,9,9,0,0,1-2.6,6.5h-.1l-1.4,1.2H18a6.6,6.6,0,0,1-1.9.9A9.8,9.8,0,0,1,11.5,45.8Zm10.2,5.3a24.4,24.4,0,0,1-5-1.4,5.3,5.3,0,0,0,1.5-.8,55.2,55.2,0,0,1,8.5,2.6A28.1,28.1,0,0,1,21.7,51.1Zm6.2.4a54.3,54.3,0,0,0-9.1-2.9l1-.9,11.1,3.4Zm5.4-.9a7.8,7.8,0,0,1-.2-1.6l2.6.8ZM37.7,49l-1.4.6a14.1,14.1,0,0,0-3.2-1.1V47.4A30.7,30.7,0,0,1,37.7,49Zm-4.9,1.7-.9.2c-2.3-.8-8.7-2.8-11.7-3.6A9.8,9.8,0,0,0,22.7,41h.5a2.7,2.7,0,0,0,1.7-.6,18,18,0,0,0,8.5,2.7A17,17,0,0,0,32.8,50.7ZM42.9,31.5c-.1.3-.6.4-1.4.5a3.6,3.6,0,0,0-3.1.5,2.1,2.1,0,0,1-.4-.7,1.4,1.4,0,0,1,.6-1.1.3.3,0,0,0,0-.4.2.2,0,0,0-.3,0,1.8,1.8,0,0,0-.7,1.5,1.7,1.7,0,0,0,.7,1.2c.1.1.3.1.3,0a2.4,2.4,0,0,1,2.4-.6c-.4.5-.7,1-.1,1.6s.4.6-.6,1.4a9.1,9.1,0,0,0-2.7.5l-.9.2a.5.5,0,0,0,.1-.3.2.2,0,0,0-.3-.3,1.4,1.4,0,0,0-.3,1.1c.1.1.2.2.3.1h.2l1-.3a13.8,13.8,0,0,1,2.6-.4.9.9,0,0,1,.5,1,1.8,1.8,0,0,0-1.4,1,.4.4,0,0,0,.1.3c.7.7,1.4,1.7.7,2.7s-3.2,1.8-5.9,1.8a18.1,18.1,0,0,1-9-2.6,3,3,0,0,0,.8-2.1,4.3,4.3,0,0,0-.2-1.1,2.9,2.9,0,0,0,.4-3.1,2.5,2.5,0,0,0-1.9-1.7v-.6a6.7,6.7,0,0,0,4.6-2.7,5.8,5.8,0,0,0,1.3-3,8.5,8.5,0,0,0,2.5-2.5c2-.8,5-1.5,7.3-.6.7,2.2,1.5,4.3,1.8,5.3l.3.7C42.9,30.1,43.2,31,42.9,31.5Z" style="fill: #231f20"/>
        <path d="M23.2,39.4A1.3,1.3,0,0,0,24.5,38a1.3,1.3,0,0,0-1.3-1.3A1.3,1.3,0,0,0,21.8,38,1.4,1.4,0,0,0,23.2,39.4Zm0-2.2a.9.9,0,0,1,.8.8.9.9,0,0,1-.8.9.9.9,0,0,1-.9-.9A.9.9,0,0,1,23.2,37.2Z" style="fill: #231f20"/>
        <path d="M37.9,24.5h0a.1.1,0,0,0-.1-.1h-.1c-4.3-.3-6.1,1.8-6.1,1.9s-.1.3,0,.3H32a10.5,10.5,0,0,0,3.1.5h1.6c.5-.1.7-.7.7-1.4s-.1-.3-.1-.4.6-.3.6-.6Zm-5.5,1.7a6.1,6.1,0,0,1,2-1,3.1,3.1,0,0,0,.1,1.4A4.8,4.8,0,0,1,32.4,26.2Zm2.6.4a3.4,3.4,0,0,1-.2-1.5l1-.2a1.3,1.3,0,0,0-.1.9,1.1,1.1,0,0,0,.3.8Z" style="fill: #231f20"/>
      </g>
    </g>
  </g>
</svg>
