<svg xmlns="http://www.w3.org/2000/svg" width="405" height="172.72" viewBox="0 0 405 172.72"><defs><style>.a{fill:#d2dd6a;}.a,.b,.c,.d,.e,.f{fill-rule:evenodd;}.b{fill:#cbd84e;}.c{fill:#eae550;}.d{fill:#acb52b;}.e{fill:#c0d11f;}.f,.g{fill:#1a1a18;}</style></defs><title>logotipo-gaiurbNOVO</title><path class="a" d="M86.48,0,117,12.65l30.53,12.64,12.65,30.54L169.78,79H107.1a21.9,21.9,0,1,0,1.28,7.38h0l64.58.1-12.77,30.44-12.65,30.53L117,160.07,86.48,172.72,56,160.07,25.41,147.42,12.77,116.89,0,86.36,12.77,55.83,25.3,25.29,56,12.65Z"/><polygon class="b" points="25.41 147.42 0 86.36 25.3 25.29 58.1 133.91 25.41 147.42"/><polygon class="c" points="86.36 0 147.54 25.29 116.07 38.2 86.06 25.36 57.66 38.74 25.3 25.29 86.36 0"/><polygon class="d" points="86.48 172.71 147.54 147.43 115.98 134.46 86.18 147.19 58.11 133.91 25.41 147.42 86.48 172.71"/><polygon class="b" points="86.23 50.34 116.07 38.2 86.07 25.35 57.66 38.74 86.23 50.34"/><polygon class="e" points="86.37 122.34 115.98 134.46 86.16 147.18 58.11 133.91 86.37 122.34"/><polygon class="e" points="57.67 38.74 43.15 84.41 32.74 49.87 57.67 38.74"/><polygon class="e" points="172.96 86.45 86.69 86.32 147.54 147.43 172.96 86.45"/><path class="b" d="M147.54,25.29,169.78,79H127.71L116.06,38.2l31.48-12.91ZM173,86.45l-25.42,61-17.64-61Z"/><path class="f" d="M269.7,86.43h-2.35V98.55c0,4.56-2.45,6.88-6.29,6.88-4,0-6.37-2.53-6.37-7v-12h-2.35V98.55c0,5.9,3.51,9,8.66,9s8.7-3.15,8.7-9.23Z"/><path class="f" d="M291.85,107.28l-6.4-8.52c3.28-.6,5.66-2.62,5.66-6.11,0-3.75-2.95-6.22-7.54-6.22h-9v20.85H277v-8.1h6l6,8.1Zm-3.12-14.54c0,2.71-2.24,4.32-5.36,4.32H277V88.6h6.44C286.76,88.6,288.73,90.15,288.73,92.74Z"/><polygon class="f" points="362.54 90.39 362.54 107.28 364.89 107.28 364.89 86.43 362.51 86.43 354.91 97.81 347.32 86.43 344.94 86.43 344.94 107.28 347.23 107.28 347.23 90.42 354.82 101.56 354.94 101.56 362.54 90.39"/><rect class="g" x="244.17" y="86.43" width="2.35" height="20.84"/><path class="f" d="M214.69,104.42V96.11h-8.6v2.11h6.34v5.18a9.79,9.79,0,0,1-6,2.09c-5.06,0-8.25-3.69-8.25-8.7,0-4.67,3.31-8.57,7.93-8.57a8.88,8.88,0,0,1,6.34,2.38L214,88.81A11,11,0,0,0,206.17,86c-6.25,0-10.45,5.07-10.45,10.81,0,6,4.05,10.75,10.6,10.75A12.65,12.65,0,0,0,214.69,104.42Z"/><polygon class="f" points="339.86 86.43 324.79 86.43 324.79 107.28 340.01 107.28 340.01 105.13 327.14 105.13 327.14 97.83 338.52 97.83 338.52 95.69 327.14 95.69 327.14 88.58 339.86 88.58 339.86 86.43"/><path class="f" d="M305.69,86.43h-9v20.85h9.41c4.55,0,7.56-2.12,7.56-5.72,0-2.89-2-4.32-4.47-5.06a5.06,5.06,0,0,0,3.31-4.86c0-3.18-2.68-5.21-6.79-5.21Zm-.39,9.29H299V88.55h6.49c3,0,4.62,1.34,4.62,3.42,0,2.47-2,3.75-4.8,3.75Zm.84,9.44H299V97.81h6.73c3.63,0,5.54,1.31,5.54,3.6S309.29,105.16,306.14,105.16Z"/><path class="f" d="M230.17,86.28H228l-9.5,21h2.41l2.47-5.51H234.7l2.44,5.51h2.53l-9.5-21Zm3.61,13.37h-9.5L229,89Z"/><path class="f" d="M314.66,109.27l.27.81a2.83,2.83,0,0,0,2.56-3.15v-2.08h-2.12v2.42h.83C316.29,108.26,315.81,108.86,314.66,109.27Z"/><path class="f" d="M196.9,115.36h-1.18v6.45a3.42,3.42,0,0,0,3.71,3.68,3.45,3.45,0,0,0,3.72-3.69v-6.44H202v6.44a2.54,2.54,0,1,1-5.07,0v-6.44Zm11.85,1h1c1.27,0,2.49.23,2.49,1.6s-1.28,1.86-2.43,1.86h-1v-3.46Zm0,9v-4.61h.75c1.18,0,1.51.29,2,1.32l1.37,3.29h1.33l-1.63-3.79a2,2,0,0,0-1.36-1.27,2.5,2.5,0,0,0,2.26-2.46c0-2-1.77-2.45-3.39-2.45h-2.46v10Zm11.3,0c1.91,0,3.87-.56,3.87-2.84a2.39,2.39,0,0,0-2.2-2.38,2.24,2.24,0,0,0,1.92-2.29c0-1.88-1.57-2.46-3.2-2.46H217.8v10Zm-1.09-9h1.36c1.06,0,2.11.36,2.11,1.62s-1.14,1.81-2.35,1.81H219v-3.43Zm0,4.31h.89c1.33,0,2.84.27,2.84,1.94s-1.42,1.87-2.67,1.87H219v-3.81Zm9,4.74,1.07-2.71h4.88l1,2.71h1.23l-4-10H230.8l-4,10Zm3.52-9,2.07,5.35h-4.18l2.11-5.35Zm9.15,9v-8.75l4.8,8.75h1.66v-10H246v8.74l-4.79-8.74h-1.66v10Zm12.21,0v-10h-1.18v10Zm4-.3a6,6,0,0,0,2.45.46,2.94,2.94,0,0,0,3.24-2.87c0-1.52-.94-2.14-2.06-2.73l-.81-.44c-.79-.42-1.39-.88-1.39-1.7,0-1.2,1-1.56,2-1.56a3.7,3.7,0,0,1,1.78.44l.13-1.06a4.74,4.74,0,0,0-1.93-.36c-1.61,0-3.21.77-3.21,2.58a2.63,2.63,0,0,0,1.72,2.45l.81.44c.92.48,1.72,1,1.72,2,0,1.31-.9,1.8-2,1.8a4.18,4.18,0,0,1-2.3-.58l-.13,1.11Zm10.92.3v-9l3.52,9h1.15l3.53-9v9h1.15v-10H275.3L271.91,124l-3.43-8.65h-1.82v10Zm15.88-.24a4.64,4.64,0,0,0,2,.4c3,0,4.49-2.38,4.49-5.14s-1.42-5.14-4.49-5.14-4.48,2.39-4.48,5.14c0,2.15.8,3.93,2.48,4.74Zm-.48-1.92a5.21,5.21,0,0,1-.76-2.82c0-2,.95-4.16,3.24-4.16s3.23,2.14,3.23,4.16-.9,4.15-3.23,4.15a2.86,2.86,0,0,1-2.48-1.33Zm22.39,2.16v-1h-4.12v-3.68h3.76v-.94h-3.76v-3.41h4v-1h-5.14v10Zm11.24,0v-4.62h4.86v4.62h1.2v-10h-1.2v4.32H316.8v-4.32h-1.18v10Zm10.55,0,1.06-2.71h4.89l1,2.71h1.23l-4-10h-1.39l-4,10Zm3.51-9,2.08,5.35h-4.18l2.1-5.35Zm10.31,9c1.91,0,3.87-.56,3.87-2.84a2.39,2.39,0,0,0-2.2-2.38,2.23,2.23,0,0,0,1.92-2.29c0-1.88-1.57-2.46-3.2-2.46h-2.65v10Zm-1.09-9h1.36c1.06,0,2.11.36,2.11,1.62s-1.14,1.81-2.35,1.81h-1.12v-3.43Zm0,4.31h.9c1.33,0,2.84.27,2.84,1.94s-1.42,1.87-2.68,1.87h-1.06v-3.81Zm10.25,4.74v-10h-1.18v10Zm7.58,0v-9h3v-1h-7.13v1h3v9Zm5.63,0,1.06-2.71h4.89l1,2.71h1.23l-4-10h-1.39l-4,10Zm3.51-9,2.08,5.35H365l2.1-5.35Zm10.3,11.42a2.79,2.79,0,0,0,1.31.29c.91,0,1.51-.44,1.51-1.11s-.4-.85-1-.85a1.64,1.64,0,0,0-.47.06l.46-.63h.19a5.52,5.52,0,0,0,2.38-.45l-.09-1a5.09,5.09,0,0,1-2.24.43c-2.51,0-3.93-1.67-3.93-4.12a3.83,3.83,0,0,1,3.94-4.13,5.51,5.51,0,0,1,2.2.44l.09-1.06a6.45,6.45,0,0,0-2.35-.39,4.93,4.93,0,0,0-5.12,5.14,4.75,4.75,0,0,0,4.41,5.1l-.65.91.23.27a1.6,1.6,0,0,1,.58-.11c.28,0,.58.09.58.44s-.34.5-.74.5a2.83,2.83,0,0,1-1.11-.25l-.19.52Zm8-2.4,1.06-2.71h4.88l1,2.71h1.22l-4-10h-1.39l-4,10Zm3.51-9,2.08,5.35h-4.19l2.11-5.35Zm-1.45-2a.71.71,0,0,1,.64-.67c.57,0,1,.6,1.73.6a1.45,1.45,0,0,0,1.28-1.48h-.71a.65.65,0,0,1-.58.67c-.48,0-1-.61-1.75-.61a1.42,1.42,0,0,0-1.33,1.49Zm11.11,10.8a4.65,4.65,0,0,0,2,.4c3,0,4.48-2.38,4.48-5.14s-1.42-5.14-4.48-5.14S396,117.6,396,120.35c0,2.15.81,3.93,2.48,4.74Zm-.48-1.92a5.21,5.21,0,0,1-.76-2.82c0-2,1-4.16,3.25-4.16s3.22,2.14,3.22,4.16-.89,4.15-3.22,4.15A2.87,2.87,0,0,1,398,123.17Z"/></svg>