<svg xmlns="http://www.w3.org/2000/svg" viewBox="0 0 581.6 612.3" xmlns:v="https://vecta.io/nano"><g fill-rule="evenodd"><path d="M293.6 506.3c2.4 2.4 5.8 3.4 9.2 3.4 6.6 0 12.3-3.7 12.3-10.6s-5.3-9.5-10.8-11.9c-2.9-1.3-7.1-2.4-7.1-6.3 0-2.9 2.6-4.2 5.3-4.2 4.5 0 7.6 3.4 8.4 7.4h2.4l-.3-9.2h-2.4l-.8 2.1c-2.1-1.8-5-2.6-7.9-2.6-6 0-11 3.4-11 9.8 0 5.8 3.9 8.4 8.7 10.3 3.7 1.6 8.7 2.9 8.7 7.6 0 3.2-2.9 5.3-6 5.3-5.8 0-8.1-4.5-9.7-9h-2.1v10.8h2.4l.7-2.9zM49.7 476.8c5 0 5 2.4 5 6.6V496c0 10.8 6 14 15.2 14 9.7 0 14.4-4.7 14.4-14v-9.8-1.1c0-2-.1-4.5.8-6 .8-1.6 2.4-1.8 3.9-2.1v-2.1c-2.1 0-4.2.3-6.3.3s-3.9-.3-6-.3v1.8c1.6.3 3.2.8 3.9 2.1 1.1 1.6 1.1 5.3 1.1 7.1v10.8c0 6.3-3.4 9.5-10 9.5-7.6 0-9.2-4-9.2-10.6v-12.4c0-4.2 0-6.9 5-6.6v-1.8c-3.2 0-6.6.3-9.7.3-2.6 0-5.5-.3-8.1-.3v2h0zm80.6 33.2h-2.6l-23.9-26.6v16.1c0 4 0 7.9 5 8.2v1.8c-2.1 0-4.2-.3-6.3-.3s-3.9.3-6 .3v-1.8c4.5-.5 4.7-2.6 4.7-6.3v-21.1c-1.6-2.1-2.4-3.2-5.3-3.4v-1.8c1.6 0 3.4.3 5 .3 2.1 0 3.9-.3 6-.3l20.7 23.7v-14c0-4 0-7.6-5-7.9v-1.8c2.1 0 3.9.3 6 .3s4.2-.3 6.3-.3v1.8c-1.6.3-3.2.5-3.9 1.8-.8 1.3-.8 4.5-.8 6.3l.1 25h0zm17.6-9v.6c0 3.9 0 6-5 6v1.8c2.9 0 5.8-.3 8.7-.3 3.2 0 6.3.3 9.2.3v-1.8c-5 0-5-2.1-5-6.3v-17.7-.6c0-3.9 0-6 5-6v-2.1c-3.2 0-6.3.3-9.2.3s-5.8-.3-8.7-.3v1.8c5 0 5 2.4 5 6.6V501h0zm38 9l11.6-27.4c1.3-3.2 2.1-5.3 6-5.5V475c-2.4 0-4.5.3-6.8.3-2.1 0-4.2-.3-6.3-.3v1.8c2.1.3 4.5.3 4.5 2.9 0 2.1-1.6 5.8-2.4 7.9l-5 12.4-6.6-17.4c-.3-.8-1-2.6-1-3.4 0-2.4 2.6-2.4 4.5-2.4V475c-3.2 0-6.3.3-9.5.3-2.9 0-5.8-.3-8.7-.3v1.8c4.2.8 4.2 1.3 6 5.5l11 27.4h2.6l.1.3h0zm91.9-25.9c0 4.5-3.9 7.4-8.1 8.2l7.1 9.2c1.1 1.3 2.1 3.2 3.4 4.5 1.1 1.1 1.8 1.6 3.4 1.8v1.8c-1.8 0-3.4-.3-5.3-.3s-3.4.3-5.3.3l-7.4-10.6c-1.8-2.6-3.9-5-5.5-5h-.8v6.9c0 4.2 0 6.9 5 6.6v1.8c-2.9 0-6-.3-8.9-.3s-6 .3-8.9.3v-1.8c5 0 5-2.4 5-6.6v-17.7c0-4.2 0-6.9-5-6.6v-1.8c2.9 0 6 .3 8.9.3 2.6 0 5.5-.3 8.4-.3 2.6.3 6.3.3 8.7 1.3 3.5 1.7 5.3 4.4 5.3 8zm50.7 16.9v.6c0 3.9 0 6-5 6v1.8c2.9 0 5.8-.3 8.7-.3 3.2 0 6.3.3 9.2.3v-1.8c-5 0-5-2.1-5-6.3v-17.7-.6c0-3.9 0-6 5-6v-2.1c-3.2 0-6.3.3-9.2.3s-5.8-.3-8.7-.3v1.8c5 0 5 2.4 5 6.6V501h0zm20.5-26.1h33.9l.3 9.8h-2.4c-.5-4.5-3.2-7.4-7.6-7.4h-1c-1 0-1.5 0-1.8.2-.4.3-.4 1-.3 2.6v.8 19.5c0 4.7 0 6.9 5.3 6.6v1.8c-2.9 0-6-.3-9.2-.3-2.9 0-6 .3-9.2.3V507c5.3 0 5.3-1.8 5.3-6.6V481v-.7c0-1.4 0-2.1-.3-2.4-.4-.4-1.2-.4-2.8-.5-5-.3-7.1 2.9-7.9 7.4h-2.4l.1-9.9h0zm61.4 20.6l8.9-14.8c1.1-1.8 2.1-3.4 4.5-3.7v-2.1c-2.1 0-4.2.3-6.3.3-1.8 0-3.4-.3-5.3-.3v1.8c1.8 0 3.9.3 3.9 2.6 0 1.3-1.3 3.7-2.1 5l-5 8.4-5.3-9.5c-.5-1.1-1.8-3.2-1.8-4.2 0-1.8 2.6-2.1 3.9-2.1v-2.1c-2.9 0-6 .3-8.9.3-2.6 0-5.3-.3-7.9-.3v1.8c2.6.5 2.9 1.3 4.5 3.4l9.2 16.1v4.5c0 4.5 0 6.6-5 6.6v1.8c2.9 0 5.5-.3 8.4-.3 3.4 0 6.6.3 10 .3v-1.8c-5.3.3-5.3-2.1-5.3-6.6v-5.3h-.4v.2zm-170.6 14c-7.4 0-14.4-.3-21.8-.3-2.8 0-5.8.2-8.7.3v-1.3c5 0 5-2.4 5-6.6v-17.7c0-4.2 0-6.9-5-6.6v-1.8c2.9 0 6 .3 8.9.3 6.3 0 12.9-.3 19.2-.3l.5 9.2h-2.4c-.8-5.3-3.9-6.9-8.9-6.9-.5 0-3.9 0-4.2.5-.3.3-.3 2.4-.3 2.9v9.5c4.2 0 6.8-.8 7.1-5.5h2.1c0 2.4-.3 4.7-.3 7.1 0 2.1.3 4.2.3 6.3h-2.1c-.8-4.7-2.4-5.5-7.1-5.5v6.1.5c0 4.4 0 7.4 6 7.4 5.8 0 8.1-1.8 9.5-7.6h2.1c0 1.8-.3 4-.3 5.8.1 1.5.4 2.9.4 4.2h0zm19.9-26.7v9h2.1c5 0 7.6-2.1 7.6-7.1 0-4.7-1.8-7.1-6.8-7.1-.8 0-2.4 0-2.6.5-.3.5-.3 3.9-.3 4.7zm210.8 9h-4.2l-4.7 21.1c-1.3 4.5-3.7 9.2-8.7 9.2-1.8 0-3.9-1.1-3.9-3.2 0-1.3 1.1-2.4 2.1-2.4 1.1 0 1.8 1.1 1.8 2.1.3.8.3 1.6 1.1 1.6 1.1 0 1.3-1.6 1.6-2.4.5-2.6 1.3-5.5 1.8-8.2l3.9-17.9h-3.7l.5-1.8h3.7c1.3-5.3 3.9-11.9 10.2-11.9 1.8 0 4.5.5 4.5 2.9 0 1.3-1.1 2.4-2.1 2.4-2.4 0-1.8-3.2-3.7-3.2-1.3 0-1.8 1.3-2.1 2.4-.8 2.4-1.3 5-1.8 7.4h4.2l-.5 1.9zm32.8 17.4h-4.7l5.3-21.6c.3-1.3 1.3-4.7 1.3-6.1 0-1.6-2.4-1.6-3.4-1.6l.3-1.3 9.2-.5-4.2 17.4c1.6-3.2 4.2-6.3 7.9-6.3 2.4 0 3.9 1.6 3.9 4 0 1.3-.3 3.2-.8 4.5l-1.3 4.7c-.3.8-.8 2.6-.8 3.2s.3 1.3.8 1.3c1.6 0 2.9-2.9 3.7-4.2l.8.3c-1.3 2.9-3.9 7.1-7.4 7.1-1.6 0-3.2-1.6-3.2-3.4 0-1.6.5-3.4 1.1-4.7l1.3-4.7c.3-.8.8-2.4.8-3.4 0-1.1-.3-1.6-1.3-1.6-1.6 0-3.4 2.1-4.2 3.4-1.3 2.4-2.4 5-3.2 7.4l-1.9 6.1h0zm-7.3-26.4h-4.7l-2.4 7.4h-3.7l-.5 1.8h3.4l-1.8 7.4c-.5 1.8-1.3 5-1.3 7.1s1.6 3.7 3.7 3.7c3.4 0 5.8-4 7.4-6.9l-.8-.5-.3.5c-.5 1.1-2.1 4-3.7 4-.8 0-1.1-1.1-1.1-1.6 0-1.3.8-4.2 1.1-5.5l2.1-8.2h4.2l.5-1.8h-4.2l2.1-7.4h0zm-49.9 6.4c4.5 0 7.4 3.7 7.4 8.2 0 6.3-4.7 12.7-11 12.7-4.5 0-7.4-3.4-7.4-8.2 0-6.7 4.4-12.7 11-12.7zm84 14.7c0 1.8 1.1 3.4 2.9 3.4 2.6 0 4.5-2.6 6-4.5l1.1.8c-1.8 3.2-4.7 6.1-8.7 6.1-4.2 0-6.6-2.6-6.6-6.9 0-6.9 5-13.7 11.8-13.7 2.4 0 5.5 1.1 5.5 4 0 5.3-7.9 7.1-11.8 8.2.1.8-.2 1.8-.2 2.6h0zm6.3-13.4c-3.2 0-5 6.6-5.5 9.2 2.9-1.1 7.1-3.4 7.1-7.4 0-1-.5-1.8-1.6-1.8zm-90 .2c1.6 0 2.4 1.3 2.4 2.9 0 3.4-2.4 14.5-6.3 14.5-1.6 0-2.4-1.8-2.4-3.2 0-2.6 1.1-6.1 1.8-8.4.5-2.1 1.8-5.8 4.5-5.8zm-297.2 90c2.4 2.4 5.8 3.4 9.2 3.4 6.6 0 12.3-3.7 12.3-10.6s-5.3-9.5-11-11.9c-2.9-1.3-7.1-2.4-7.1-6.3 0-2.9 2.6-4.2 5.3-4.2 4.5 0 7.6 3.4 8.4 7.4h2.4l-.3-9.2H166l-.8 2.1c-2.1-1.8-5-2.6-7.9-2.6-6 0-11 3.4-11 9.8 0 5.8 3.9 8.2 8.7 10.3 3.7 1.6 8.7 2.9 8.7 7.6 0 3.2-2.9 5.3-6 5.3-5.8 0-8.1-4.5-9.7-9h-2.1v10.8h2.4l.9-2.9h0zM433 573h11.6l1.1 2.9c.3.8 1.1 2.6 1.1 3.4 0 2.1-2.9 2.1-4.5 2.4v1.8c2.6 0 5.5-.3 8.1-.3 3.2 0 6.3.3 9.5.3v-1.8c-1.3-.3-2.6-.5-3.7-1.3-1.1-1.1-2.1-3.7-2.6-5L443 548.8h-2.6l-10.5 24.8c-1.3 3.2-2.9 8.2-7.1 8.2v1.8c2.1 0 3.9-.3 6-.3s4.5.3 6.6.3v-1.8c-1.8-.3-4.5-.3-4.5-2.9 0-1.3.8-3.2 1.3-4.5l.8-1.4h0zM82.8 584.1h-2.6l-7.1-22.4-7.9 22.4h-2.6l-10-28.5c-1.1-3.2-1.1-4.2-4.7-4.7V549c2.6 0 5.3.3 7.9.3 3.2 0 6-.3 9.2-.3v1.8c-1.8.5-4.5.3-4.5 2.6 0 1.3 1.1 4.5 1.6 5.8l4.5 13.7 7.6-24h2.4l8.1 23.7 2.6-8.7c.8-2.1 2.4-7.7 2.4-9.5 0-2.9-1.8-3.2-4.2-3.4v-1.8c1.6 0 3.4.3 5.3.3 2.1 0 3.9-.3 6-.3v1.8c-2.9.3-3.4 1.6-4.2 4l-9.8 29.1h0zm98.7-35.1h33.9l.3 10.3h-2.4c-.5-4.5-3.2-7.4-7.6-7.4h-1c-1 0-1.5 0-1.8.2-.4.3-.4 1-.3 2.6v.8V575c0 4.7 0 6.9 5.3 6.6v1.8c-2.9 0-6-.3-9.2-.3-2.9 0-6 .3-9.2.3v-1.8c5.3 0 5.3-1.8 5.3-6.6v-20-.7c0-1.4 0-2.1-.3-2.4-.4-.4-1.2-.4-2.8-.5-5-.3-7.1 2.9-7.9 7.4h-2.4l.1-9.8h0zm107.6 17.4c4.2-.8 8.1-3.7 8.1-8.2 0-3.7-1.8-6.3-5.3-7.9-2.4-1.1-6-1.1-8.7-1.3-2.9 0-5.8.3-8.4.3-2.9 0-6-.3-8.9-.3v1.8c5-.3 5 2.4 5 6.6v17.7c0 4.2 0 6.6-5 6.6v1.8c2.9 0 6-.3 8.9-.3s6 .3 8.9.3v-1.8c-5 .3-5-2.4-5-6.6v-6.9h.8c1.6 0 3.7 2.4 5.5 5l7.4 10.6c1.8 0 3.4-.3 5.3-.3s3.4.3 5.3.3V582c-1.6-.3-2.4-.8-3.4-1.8-1.3-1.3-2.4-3.2-3.4-4.5l-7.1-9.3h0zm53.8 18h2.6v-25.1c0-1.6 0-5 .8-6.3s2.4-1.6 3.9-1.8v-1.8c-2.1 0-4.2.3-6.3.3s-3.9-.3-6-.3v1.8c5 .3 5 4 5 7.9v13.7L322.2 549c-2.1 0-3.9.3-6 .3-1.6 0-3.4-.3-5-.3v1.8c2.9.3 3.7 1.3 5.3 3.4V575c0 3.7-.3 5.8-4.7 6.3v1.8c2.1 0 3.9-.3 6-.3s4.2.3 6.3.3v-1.8c-5-.3-5-4.2-5-8.2V557l23.8 27.4h0zm124.5-2.7c5 0 5-2.4 5-6.6h.3v-17.7c0-4.2 0-6.9-5-6.6V549c2.9 0 5.8.3 8.7.3 2.6 0 5.5-.3 8.1-.3 6.3.3 13.9 1.8 13.9 9.5 0 7.1-7.4 9.2-13.1 9.2h-4.7v7.4c0 4.7 0 6.9 5.3 6.6v1.8c-3.4 0-6.6-.3-9.7-.3-2.9 0-5.5.3-8.7.3v-1.8zm-51.8 1.6h-2.1l-1.3-2.6c-2.9 2.9-7.1 4-11.3 4-10.2 0-17.6-6.6-17.6-17.1 0-10.6 7.6-18.2 18.4-18.2 3.9 0 7.1.8 10 3.2l.8-2.9h2.4l.5 10.8H413c-1.1-5-4.5-8.7-10-8.7-8.1 0-10.5 8.4-10.5 15 0 7.1 2.4 15 10.8 15 6 0 9.2-4.5 10.2-10h2.1v11.5h0zm-302.4 0l21.8.3c0-1.3-.3-2.6-.3-4.2 0-1.8.3-4 .3-5.8h-2.1c-1.3 5.8-3.7 7.6-9.5 7.6-6.1 0-6-2.9-6-7.4v-.5-6.1c4.7 0 6.3.8 7.1 5.5h2.1c0-2.1-.3-4.2-.3-6.3 0-2.4.3-4.7.3-7.1h-2.1c-.3 4.7-2.9 5.5-7.1 5.5v-9.5c0-.5 0-2.6.3-2.9.3-.5 3.7-.5 4.2-.5 5 0 8.1 1.6 8.9 6.9h2.4l-.5-9.2c-6.3 0-12.9.3-19.2.3-2.9 0-6-.3-8.9-.3v1.8c5-.3 5 2.4 5 6.6v17.1c0 4.2 0 6.6-5 6.6v1.8c2.8.1 5.8-.2 8.6-.2h0zm121.6 0l21.8.3c0-1.3-.3-2.6-.3-4.2 0-1.8.3-4 .3-5.8h-2.1c-1.3 5.8-3.7 7.6-9.5 7.6-6.1 0-6-2.9-6-7.4v-.5-6.1c4.7 0 6.3.8 7.1 5.5h2.1c0-2.1-.3-4.2-.3-6.3 0-2.4.3-4.7.3-7.1h-2.1c-.3 4.7-2.9 5.5-7.1 5.5v-9.5c0-.5 0-2.6.3-2.9.3-.5 3.7-.5 4.2-.5 5 0 8.1 1.6 8.9 6.9h2.4l-.5-9.2c-6.3 0-12.9.3-19.2.3-2.9 0-6-.3-8.9-.3v1.8c5-.3 5 2.4 5 6.6v17.1c0 4.2 0 6.6-5 6.6v1.8c2.7.1 5.8-.2 8.6-.2h0zm282.7 0l21.8.3c0-1.3-.3-2.6-.3-4.2 0-1.8.3-4 .3-5.8h-2.1c-1.3 5.8-3.7 7.6-9.5 7.6-6.1 0-6-2.9-6-7.4v-.5-6.1c4.7 0 6.3.8 7.1 5.5h2.1c0-2.1-.3-4.2-.3-6.3 0-2.4.3-4.7.3-7.1h-2.1c-.3 4.7-2.9 5.5-7.1 5.5v-9.5c0-.5 0-2.6.3-2.9.3-.5 3.7-.5 4.2-.5 5 0 8.1 1.6 8.9 6.9h2.4l-.5-9.2c-6.3 0-12.9.3-19.2.3-2.9 0-6-.3-8.9-.3v1.8c5-.3 5 2.4 5 6.6v17.1c0 4.2 0 6.6-5 6.6v1.8c2.8.1 5.8-.2 8.6-.2h0zM480.2 554v11.3h1.1c5.3 0 8.1-1.6 8.1-7.1 0-4.2-2.1-6.9-6.6-6.9-2.6.4-2.6.1-2.6 2.7h0zm-201.1 3v9h2.1c5 0 7.6-1.8 7.6-7.1 0-4.7-1.8-7.1-6.8-7.1-.8 0-2.4 0-2.6.5-.3.4-.3 3.9-.3 4.7zM434 570.4l5-11.9 4.7 11.9H434z" fill="#fff"/><path d="M464.8 333.5c0 3.3-1.4 7.6-3.6 10.9 2.2 1.1 4.3 6.6 4 8.4v4c0 .4-.4.7-.4 1.1-.7 6.9-10.5 13.5-18.5 14.6v12.7c0 2.2-1.1 7.3-4 8.7-13.8 8-28.6 14.2-42.8 19.7-3.6 1.1-6.9 2.5-10.5 3.6-20.7 6.6-41.7 10.6-62.3 12.4l-14.5.7-16.7.4-16.7-.4-14.5-.7c-20.7-1.8-41.7-5.8-62.3-12.4-3.6-1.1-6.9-2.2-10.5-3.6-14.1-5.5-29-11.6-42.8-19.7-2.5-1.5-4-6.2-4-8.7v-12.7h-.4c-8-1.1-17.8-8-18.5-14.6 0-.4-.4-.7-.4-1.1v-4c0-.8.5-2.2.9-3.7.6-2 1.3-4.1.9-4.7-2.2-3.3-3.6-7.6-3.6-10.9v-2.2c.4-4.7 2.2-10.2 8-14.9 1.1-.7 1.8-1.5 2.5-2.2 1.1 2.2 1.8 4.7 2.5 6.9 1.1 3.6 5.8 5.8 8.7 6.6 5.1 1.5 9.8 2.2 14.5 4s10.5 5.1 12.3 8.4c.4.7.7 1.8 1.1 2.5.4 1.1.7 2.5.7 2.9v17.1c17 8.4 33.7 14.6 50.7 18.9 16.7 4.4 33.7 7.3 50.4 8.4l7.2.4h23.6l7.2-.4c16.7-1.5 33.7-4 50.4-8.4 17-4.4 33.7-10.6 50.7-18.9v-17.1c0-.4.4-2.2.7-2.9.4-.7.7-1.8 1.1-2.5 2.2-3.6 8-6.6 12.3-8.4 5.1-1.8 9.8-2.5 14.5-4 2.9-.7 7.6-2.9 8.7-6.6.7-2.2 1.4-4.7 2.5-6.9 1.1.7 1.8 1.5 2.5 2.2 5.8 4.7 7.6 10.2 8 14.9v2.2h.4z" fill="#c8a04b"/><path d="M143.4 228V31.8h305.1v195.9c0 10.2 0 18.2-1.1 25.5-1.4 8-3.6 15.3-8.3 24-16.7 31.7-47.8 50.2-85.1 71.7-19.9 11.6-34.8 20.4-56.2 34.6L296 385l-1.1-.7c-22.1-14.6-37-23.3-56.9-34.9-37.3-21.5-68.5-40-85.1-71.7-4.7-9.1-7.2-16.4-8.3-24-1.2-7.9-1.2-15.5-1.2-25.7h0z" fill="#0b195b"/></g><path d="M183 72.9h225.4v81.8H183z" fill="#be9851"/><g fill-rule="evenodd"><path d="M331 107.8c0-1.8 2.5-.4 2.9 2.5 1.1 10.9-.4 22.2-4.7 26.9-5.1 4.4-17 4.7-20.7.4h-2.9s.7 5.8-1.8 7.3c-1.8 1.1-6.9 1.1-9.4.7-3.3-.7-2.5-6.2-2.5-6.2-3.8-1.2-7.5-.2-11.1.8-6.1 1.7-12.3 3.4-19.3-5.2-2.2-2.8-1.7-9.1-1-16.9l.6-7.1c0-1.5 1.4-2.9 2.5-1.5 2.5 3.3 6.2 7.6 8.7 10.2 3.3 2.9 13 3.3 16.7 13.5h2.5s.4-3.6-1.8-5.1c-7.6-4.7-26.8-22.9-16.7-36 1.1 0 0-4.7 2.2-6.2 1.8 1.1 3.6 3.3 3.6 3.3s1.1-4.4 3.3-6.9c3.6 1.5 5.4 3.6 5.4 3.6s1.8-3.6 5.4-6.2c2.9 2.2 5.1 4.7 5.1 4.7s2.5-3.3 6.2-4.7c2.9 2.9 4.3 7.6 4.3 7.6s2.2-3.6 5.8-5.1c2.2 2.5 3.6 8.7 3.6 8.7s1.4-2.5 4.3-2.9c.7 2.5 1.4 3.6 1.8 6.6 3.3 5.1.7 11.6-1.8 16.7-4.3 8-6.9 10.9-15.6 16.4-2.2 1.5-1.4 4.7-1.4 4.7s5.1 0 5.8-1.5c2.2-3.6 2.9-5.1 5.8-8 4.1-3.4 13.1-7.1 14.2-15.1h0zm-41.6-18.5c0-.4 0-.7.4-1.5.4-.4.4-1.1.7-1.5s.7-1.1 1.4-1.8c.7.4 1.1.7 1.4 1.5a6.51 6.51 0 0 1 1.1 1.5c-1.1.7-2.9 1.8-5 1.8h0zm11.6-3.7c-.7.7-1.1 1.5-1.1 1.5 1.4 1.1 2.9 1.8 5.4 2.2 0 0 0-.4-.4-1.5s-1.1-2.2-2.2-3.3c-.4 0-.4.4-.7.4s-.7.4-1 .7h0zm-14.2 3.7s-2.2-1.8-4.3-3.3c-1.4 2.9-1.1 5.1-1.1 4.7.7-.3 2.5-1.1 5.4-1.4h0zm21.8.7l1.1-1.1c.7-.7 1.8-1.5 2.9-2.2.4.4.4.7.7 1.5.7 2.2.7 3.6.7 3.6-.7-.7-2.5-1.1-5.4-1.8h0zm-33.4.7c1.1.4 1.4 1.1 2.2 1.5 0 0 .4 0 .4.4l.4.4c-.7.4-1.1.7-1.4 1.1-.4.4-.7 1.1-1.4 1.5 0-1.1-.4-1.8-.4-2.9-.1-.5.2-1.2.2-2zm4 5.1c.7-.4 1.8-1.1 2.9-1.5 3.3-1.5 7.2-1.8 8-2.2 0 .7-.4 1.5-.7 2.2-.4.4-.4.7-.4 1.1s0 .4-.4.7v1.5c.4-1.1 1.4-2.2 2.2-2.9l1.1-1.1c1.4-1.5 2.5-2.2 2.9-2.5 1.1 1.1 1.1 2.5 1.4 4.4 0 .7 0 1.5.4 2.2 0 .4.4.7.4 1.1 0 0 .4 0 .4-.4 1.1-1.1.4-5.1 1.1-6.6 0-.4.4-.4.4-.7l.4-.4c.4.7.7 1.1 1.1 1.8 1.1 1.5 2.9 2.5 3.6 3.6.4.7.4 1.1.4 1.1.4-.7 0-1.5-.4-2.2-.4-.4-.4-.7-.7-1.1 0-.4-.4-.4-.4-.7-.4-.4-.4-.7-.7-.7v-.7c4.3 2.2 10.9 1.5 13.8 6.9l-2.2 2.5-.4-.4c-.7-.7-1.8-2.2-4-3.3-1.8 2.2-2.9 5.8-2.9 5.8s-.4-.4-.7-1.1c-.4-.4-.7-1.1-1.1-1.5l-.7-.7c-.7-.7-1.4-1.1-2.2-1.5-1.4.7-2.9 1.8-4 2.9s-1.4 1.8-1.4 1.8-.7-1.5-2.2-2.5c-.7-.7-1.8-1.5-2.9-2.2-.4.4-.7.4-1.1.7-.7.4-1.4.7-1.8 1.5-1.1 1.1-1.8 2.2-1.8 2.2s-.4-.4-.4-.7c-.4-.7-1.1-1.8-1.8-2.5 0-.4-.4-.4-.7-.7-1.1-1.1-4.7 1.1-4.7 1.1l-1.4-2.5c0-.4.4-.4.7-.7 0-.4.4-.4.7-.7l.2-.4zm38.8-2.2c1.1 1.1 1.8 1.8 2.9 2.5.4-1.5.7-2.9 0-4.7-1.1.4-1.8 1.1-2.2 1.5l-.7.7zm-41.7 10.2s0-.4.4-.4c-.4-1.1-1.1-2.2-1.8-3.6 0-.4-.4-.4-.7-.7-.4 0-.4.4-.4.4-.4.7-.7 2.5-.7 2.5.4 1.8 1.4 4 1.4 4s.7-.7 1.4-1.8c.1 0 .1-.4.4-.4zm41 0c0-.4.4-.7.4-.7.4-.7.7-1.5 1.4-2.2.4-.4.4-.7.7-.7.4.4.7 1.1.7 1.5.4.7.4 1.1.4 1.1 0 .4-.4.7-.4 1.5-.4 1.5-1.1 2.5-1.1 2.5s-.4-1.1-1.4-1.8c0-.4-.4-.4-.4-.4 0-.4-.3-.4-.3-.8zm-36.6 1.9c.4.4.4.7.7 1.1.4.4.7 1.1 1.1 1.1.7-.7 1.1-1.5 1.4-1.8l.7-.7h.4s0-.7-.4-1.8c-.4-.7-.7-1.8-1.1-2.2 0 0 0-.4-.4-.4l-.7.7c-1.4 1.1-2.5 3.3-2.5 3.3l.8.7h0zm28.2 0s0-.4.4-.7v-.4c0-.4 0-.4.4-.7 0-.4 0-.4.4-.7s.4-.4.4-.7c0-.4.4-.4.4-.7s.4-.4.4-.4c.4 0 .4.4.7.7.4 0 .4.4.7.7 1.1 1.1 1.8 2.5 1.8 2.5l-.4.4c-.4.4-1.4 1.5-1.8 2.9-.7-.7-1.1-1.1-1.4-1.8-1.6-1.1-2-1.1-2-1.1zm-18.5 1l-.4-.4c-.4-.4-.7-.7-1.1-.7 0 0 1.1-2.2 2.2-3.6 0-.4.4-.4.4-.4 1.4 1.1 2.5 4.4 2.5 4.4l-.7.7c-.4.4-1.1 1.1-1.4 2.2-.4-1.1-1.1-1.8-1.5-2.2zm13.5 0c.4-.4.4-.7.7-.7 0 0 0-.4-.4-.4 0-.7-.4-1.1-.7-1.5-.4-.7-.7-1.1-1.1-1.5 0 0 0-.4-.4-.4-1.4 1.1-2.2 3.6-2.5 4.4l.7.7.4.4c.4.4.7.7 1.1 1.5.7-.7 1.1-1.8 1.8-2.2l.4-.3zm-22.1 5.1l-.4.4c0 .4-.4.4-.7.7s-.7 1.1-1.4 1.8c-1.4-2.2-2.2-4-2.2-4s0-.4.4-.7c0-.4.4-.7.7-.7.4-.4.4-.7.7-1.1l.4-.4c.7.4 1.1 1.1 1.4 1.8.4.4.4.7.7 1.1 0 .8.4.8.4 1.1zm14.8 2.6c-.7-.7-1.1-1.8-1.4-2.2 0 0-.4 0-.4-.4 0 0 1.1-2.9 2.9-4 .7.4 1.4 1.1 1.8 1.8.4.4.7.7.7 1.1 0 .7.4 1.1.4 1.1l-.4.4c0 .4-.4.4-.7.7-.7.7-1.4 1.8-1.8 2.9-.4-.3-.7-1-1.1-1.4h0zm-6.5-.7l1.1-1.1s-.7-1.5-1.8-2.9l-.7-.7-.7-.7c-1.8 1.5-2.5 4-2.5 4 .4 0 .4.4.4.4l.4.4s.4 0 .4.4c.7.7 1.4 1.8 1.8 2.5.4-.7 1.1-1.5 1.4-1.8-.2-.2-.2-.5.2-.5zm15.6-4c-1.4 1.5-2.2 3.6-2.2 3.6s1.4.7 2.5 2.2c.4.4.4.7.7 1.1.7-1.5 2.2-3.3 2.5-3.6 0 0-.7-1.8-2.2-3.3l-.7-.7-.6.7zm12.6 1.8s-.4-1.1-1.1-1.8c-.4-.4-.7-.7-1.1-.7-1.8 1.1-2.5 3.6-2.5 3.6s1.1.7 2.5 2.9c1.5-2.2 2.2-3.7 2.2-4zm-2.5 20.7c1.1.4 2.5 0 4.3-1.1 1.4-.7 2.9-1.8 4.3-3.3 2.9-3.3 5.4-7.6 5.4-13.5 0 .7-.7 1.1-1.1 1.8s-1.1 1.5-1.8 2.2l-1.4 1.5-2.2 2.2c-.4.4-1.1.7-1.4 1.1-.7.4-1.1.4-1.4.7-.4 0-.4.4-.7.4 0 0-.7 0-.7.4s-.4.4-.7.7l-.7.7s0 .4-.4.4c-1.8 1.8-3.3 4.7-1.8 5.5-.1.3-.1.3.3.3zM286.1 122l-1.1-1.1c-.4-.4-.7-.7-.7-1.1l-.7-.7s.4-.7 1.1-1.5c0-.4.4-.4.4-.4.4-.4.4-.7.7-.7.4.4.7.7 1.1 1.5.4.7.7 1.5.4 2.2-.8.7-1.2 1.5-1.2 1.8h0zm9.4-.3l.4-.4.7-.7c0-.4-1.1-2.2-1.8-3.6 0 0 0-.4-.4-.4-1.1.7-2.2 2.2-2.5 2.9l-.4.4.7.7c.7.7 1.8 1.8 2.2 2.9 0-.4.4-.4.4-.7.4-.4.4-.8.7-1.1h0zm16.3-1.5c.4-.7.7-1.1.7-1.1l-.7-1.5-.4-.4-.7-.7c-.4.7-.7 1.1-1.1 1.5-.7 1.1-1.1 1.8-1.1 2.2l.4.4c.4.7 1.1 1.5 1.1 1.8l1.1-1.1c.4-.4.4-.7.7-1.1h0zm-7.2-.3l-.7.7c-.7.7-1.8 1.8-2.2 2.9-1.1-1.8-2.5-2.9-2.5-2.9 0-.4.7-2.2 2.2-3.3 0-.4.4-.4.4-.4.4 0 .7.4 1.1.7.7.7 1.1 1.5 1.4 2.2.3-.3.3.1.3.1zm-20.7 13.4c-1.4 4-18.1 1.8-17.4-14.6 1.8 2.9 6.2 4.4 10.1 6.2 3.3 1.1 8.4 5.5 7.3 8.4zm-18.1-1.8c0 .4 0 .4.4.7 1 1 2.3 2 4.8 2.5-1-.4-2-1.4-3-2.5-1.8-2.2-3.6-5.5-4-10.2v1.9c-.1 1.9-.1 3.7.4 5.4 0 .4.4.7.7 1.1 0 .4.3.7.7 1.1zm59.8 1.8c-3.3 3.6-8.3 5.5-12.3 1.8 1.4 0 3.3-.4 4.7-.7 2.2-.7 4.7-2.2 6.5-3.6l.7-.7c1.4-1.5 2.5-3.3 3.6-5.1.8 2.5-.7 5.8-3.2 8.3zm-26.8 9.1c.7.4 2.5 0 3.3-.7 0-.4.4-.7.4-1.5 0-3.6 0-6.9-.4-10.6-1.1-.4-2.5-.4-4 .4 0 1.5-.2 2.9-.3 4.1-.3 2.4-.6 4.7.3 7.5.4 0 .4.4.4.4-.1.4.3.4.3.4z" fill="#0b195b"/><g fill="#fff"><path d="M245.9 329.9c-9.8-2.2-11.6-4-19.2-4 6.5-2.2 13 1.5 20.3 1.5-10.9-11.3-23.6-2.5-28.6-2.5 7.9 6.1 21 7.2 27.5 5zm22.8 10.2c-3.3-17.5-18.5-18.2-22.5-21.5 2.9 9.5 8.7 17.5 18.8 22.2-6.2-8-6.2-10.9-11.2-15.3 7.7 4.4 9.1 9.9 14.9 14.6zm-27.9-2.9c4.7-1.5 10.9 1.1 13.8 1.1-1.8-1.1-2.2-2.5-2.2-2.5-6.5-3.3-14.9-1.5-19.2-1.1 7.2 6.9 17.4 11.3 26.8 7.3-10.5-1.2-12.7-4.8-19.2-4.8zm23.9 11.3c5.1-.4 8 4 11.6 4.4-6.9-10.6-17.4-6.9-20.7-5.1 11.2 1.1 14.9 13.5 37.3 21.1-1.4-3.3-3.3-6.2-6.2-8.7-14.7-4.5-18.4-11-22-11.7zm-68.8-49.2c-3.6-.7-11.6-2.5-15.2-6.2 3.3 1.8 10.5 3.6 14.1 3.3-5.1-6.9-15.2-4.4-21.7-7.6 3.6 9.5 15.9 13.5 24.3 13.8.3 0-.4-1.1-1.5-3.3h0zm38.4 19.7c1.8 0 3.6.7 3.6.7-2.2-12-12.7-11.6-17-17.8.7 8.7 1.8 16.4 10.5 17.1-1.4-5.8-5.8-5.8-6.5-9.8 2.5 3.6 6.9 2.1 9.4 9.8zm-18.5-11.7c-.4-15.3-14.9-17.5-19.2-23.7.7 18.2 7.2 21.8 16.3 25.1-1.4-6.9-9.1-8.4-10.9-16 4 7.3 11.3 7.3 13.8 14.6zm-11.6 5.1c6.5 4.4 12.7 2.2 15.9 8.4 1.4-.7 3.3-1.1 3.3-1.1-5.4-12-19.6-7.6-27.9-13.5 3.6 7.6 15.6 18.2 21.7 15.3-3.2-5.1-7.5-3.2-13-9.1zM376.3 55.8c-4 0-11.6 2.5-17 8.7 8-1.5 21.7 3.3 32.2-6.2 0 0-1.8 0-4.3-.7-5.4 4.7-11.6 3.6-18.5 4.4 5.8-2.2 11.6-1.8 14.5-4.7-.4-.8-3.3-1.5-6.9-1.5h0zM270.9 333.9c1.1 8.4 6.5 17.5 18.8 23.7-1.1-5.5-9.1-9.8-12-16.4 4.3 5.5 13.8 8.7 15.6 19.3 3.3-19.3-17.3-21.9-22.4-26.6h0zm159-136.9c-8 10.9 2.9 23.3 3.3 33.5 3.3-13.8-3.6-16.4-2.2-21.5 1.8 3.6 6.2 6.2 5.1 18.2 6.5-12-5.4-22.9-6.2-30.2h0zm-.3 40.8c2.5-17.1-8-20-11.6-30.9-3.3 14.6 0 28 8.7 35.3 0-8.7-7.6-14.2-5.8-23.3.3 8 6.5 11.3 8.7 18.9zm-1.5-104.5c.7-8.7 6.2-9.5 8-16 1.4 4.7-5.4 10.6-4.7 16 12-12 5.8-19.3 8.3-25.1-9 6.2-13 17.5-11.6 25.1zm-4.3 31.7c2.2-6.6-3.3-11.3-2.5-15.7 1.8 5.8 6.9 8.4 4.7 18.2 0 0 3.3-5.5 2.5-11.3-.7-7.3-9.1-14.2-10.1-16.7-3 13.1.3 20.8 5.4 25.5zM175.2 281.5c-2.9-1.5-7.2-4.7-9.4-9.5 2.5 2.5 6.2 5.5 9.1 6.2 0 0-.4-2.5 0-4-2.2-4.4-11.6-4.4-15.6-10.9-1.1 9.8 9.4 21.1 17 22.2.4.4-.7-1.5-1.1-4zM353.1 54.3l-2.9-.4s-10.9.7-19.6 10.9c5.8 1.5 7.6-.4 12.3-.4 5.4.4 12.3-2.5 16.7-7.6 0 0-3.3-1.1-3.6-1.1-3.3 3.3-12.7 6.6-15.6 6.2 2.6-1.7 11.6-5.4 12.7-7.6h0z"/><path d="M201.7 58c10.5 9.8 24.3 5.1 32.2 6.2-5.8-6.2-13.4-8.4-17-8.7-3.6 0-6.9.7-6.9.7 2.9 3.3 8.7 2.9 14.5 4.7-6.9 0-13 1.1-18.5-3.6-2.5.7-4.3.7-4.3.7zm-10.9 230.8c4.3-13.5-8-19.3-9.8-26.6-4.3 12.4-3.3 22.6 1.8 24.8 2.9-4.7-2.5-12 0-16-.4 3.6 6.2 12.7 3.3 16.7.4-.4 2.5.3 4.7 1.1zM299.5 65.2c2.9-1.6 6.3-1 10-.3s7.7 1.4 11.7 0c4-1.5 6.5-2.5 9.1-4.7 0 0-3.5-1-3.6-1.1-3.5 2-7.2 1.9-10.5 1.8-2.8-.1-5.4-.1-7.6 1.1 2.9-4 10.8-2.6 14.5-5.1 0 0-.1 0-.2-.1-2-.8-13.9-5.7-23.4 8.4h0zm-63-9.8l-3.6 1.1c4.7 5.5 11.6 8 17 8 4.7 0 6.5 1.8 12.3.4-8.7-10.2-19.6-10.9-19.6-10.9l-2.9.4c1.4 2.2 10.1 5.8 12.3 7.3-2.9.6-11.9-2.6-15.5-6.3zm51.4-.7l2.9 2.9c3.6-.4 5.8-4.4 9.8-2.5-2.5.4-5.1 3.6-8.7 3.6l2.2 4c4 .7 7.2-6.6 11.2-8-12.7-6.6-17.4 0-17.4 0h0zm-18.1 10.5c-4-1.5-6.5-2.9-9.1-4.7 0 0 3.5-1 3.6-1.1 3.5 1.7 7 1.6 10.1 1.6 3 0 5.7-.1 8 1.3-2.9-4-10.9-2.5-14.5-5.1 0 0 13.4-7.6 23.6 8.4-2.9-1.6-6.3-1-10-.3s-7.7 1.4-11.7-.1h0zm-104.4 68.1c1.4-7.6-2.9-18.9-11.2-25.1 2.5 5.8-4 13.5 8.3 25.1.7-5.5-6.2-11.6-4.7-16 1.5 6.6 6.9 7.3 7.6 16zM426 264c2.9-13.5-6.9-15.3-8.7-26.9-5.1 16.7 4 30.2 6.5 30.6.7-6.6-5.4-12-4.3-17.5.3 5.4 4.6 6.2 6.5 13.8h0zM172.3 149.3c.7 4-4.7 9.1-2.5 15.7 5.1-4.7 8.3-12.4 5.1-25.5-1.1 2.5-9.4 9.1-10.1 16.7-.7 5.8 2.5 11.3 2.5 11.3-2.2-9.8 2.9-12.3 5-18.2zm1.8-91.3c2.2 2.5 7.6 9.1 17.4 7.6 5.1-.7 7.6-1.1 12.7-.7-9.4-4.4-15.9-13.1-28.6-10.2 8 2.2 10.9 6.2 18.8 8-6.1 1.5-13-5.1-20.3-4.7z"/><path d="M154.9 206.9c.7-2.9 1.8-4.4 1.8-4.4-.7-1.8-2.5-12.4-1.4-14.6.7 4 1.4 7.3 2.9 12.7 5.8-10.2-2.9-17.8-4.3-21.5-2.9 11.7-1.9 21.9 1 27.8zm12.4-110.7c2.5-.4 5.1-8 6.5-11.3 0 4.7-1.8 11.3-6.2 15.7.4 1.8 0 4 0 4 5.1-2.5 11.6-14.2 8-28-3.3 7.2-11.2 11.9-8.3 19.6z"/><path d="M160.7 182.1c1.1-8.4-5.8-11.6-3.3-18.9.7 5.8 6.9 13.1 6.5 16.7 5.8-8.7-6.5-20.4-10.1-25.5-1 11.3.4 21.1 6.9 27.7zm-3.2 57.9c-1.1 5.5 6.5 14.9 5.4 16.7 6.2-9.8-6.2-20.4-8-27.3-2.5 9.8-1.8 24.8 5.8 30.9.8-3.6-5.4-16.3-3.2-20.3zm13.7-37.9c8.7-9.8 5.1-24.8 2.5-31.3-1.8 5.1-9.4 11.3-9.4 15.7 0 2.5.4 4.7 2.5 7.3.7-7.3 4.7-6.6 5.8-13.8 2.2 7.3-3.3 9.5-3.6 16-.3-.1 1.5 3.2 2.2 6.1zm5.1 35c-2.2 11.6-12 13.1-8.7 26.9 1.8-7.3 6.2-8.4 6.9-13.5 1.4 5.5-5.1 10.9-4.3 17.5 2.5-.7 11.2-14.5 6.1-30.9zm-7.6-99.8s7.6-7.6 8.3-16-2.2-10.9 0-18.9c-6.2 5.8-12 16.4-8 24 4.3-6.2.4-8.7 5.1-13.5-2.5 5.8 1.4 9.8-4 17.5-1.4 1.5-1.4 6.9-1.4 6.9zm6.9 69.9c-3.6 10.6-13.8 13.8-11.6 30.9 1.8-7.6 8.3-10.9 8.7-18.9 1.4 9.1-6.2 14.6-5.8 23.3 8.7-7.2 12.3-20.7 8.7-35.3zm-15.2 23.7c0-10.6 10.9-22.6 3.3-33.5-.7 7.3-12.7 18.2-6.2 30.2-1.1-12 3.3-14.2 5.1-18.2 1.4 5.1-5.1 7.6-2.2 21.5h0zm227.9-166c5.1 0 8 0 12.7.7 10.1 1.5 15.6-5.5 17.4-7.6-7.2-.4-14.1 6.2-20.7 4.7 8-1.8 10.9-5.8 18.8-8-11.9-2.9-18.8 5.8-28.2 10.2z"/><path d="M308.6 51.4l3.6-1.5c-1.1-1.8-4-2.2-5.1-4.4 1.4.7 5.8 1.8 8 3.6h5.1s-5.4-6.2-18.1-6.2c1.4 3.1 3.9 7.4 6.5 8.5zm47.8.7c1.4.4 6.5-.4 6.5-.4-1.4-1.5-6.9-4.7-11.6-6.6 5.4-.4 14.5 5.1 15.6 5.8 2.2-.7 5.8 0 5.8 0-12-11.6-22.8-9.1-28.3-7.6 5.1 7 10.9 8.5 12 8.8h0zm-17.8.4c-1.1-1.8-9.1-3.3-11.6-6.2 2.5 1.1 10.5 1.8 14.9 5.1l1.4-.4s-5.4-6.9-11.6-7.6-10.1.7-12.7.7c3.3 4.4 15.3 13.1 19.6 8.4zM288.3 46c-1.4 2.2-4.3 1.8-5.8 3.6l3.3 1.8c4.3-1.1 7.6-5.5 14.1-6.2-17.8-6.2-25 1.8-25 1.8l5.1 1.1c2.5-1.1 6.8-1.4 8.3-2.1h0zm140.6 37.8c1.4-8-7.2-11.6-2.5-22.2-1.4 10.2 4.7 11.6 5.8 17.5 2.5-4.7 0-9.1-1.1-13.8-1.4-4.7-1.8-8.7-1.4-14.6-3.4 5.1-15 16-.8 33.1zM265.8 46c-2.5 3.3-10.5 4.7-11.6 6.2 4.3 4.7 16.3-4 19.9-8.7-2.5 0-6.5-1.1-12.7-.7-6.2 1.1-11.6 8-11.6 8l1.4.4c4.1-3.4 12.4-4.2 14.6-5.2h0zm171 6.1c.7 2.5 2.2 6.6.4 16 4.3-4.4 5.4-13.8-.4-24-2.2 5.1-5.4 15.7-1.4 21.8 1.4-2.5 1.8-10.5 1.4-13.8zm-20.3 69.2c.7 8.4 8.3 16 8.3 16s0-5.5-1.1-7.3c-5.4-7.3-1.4-11.6-4-17.5 4.7 5.1.4 7.3 5.1 13.5 4-7.6-1.8-18.2-8-24 1.9 8.4-1 10.9-.3 19.3h0zm14.2-16c5.1-6.2 2.5-15.3 6.5-18.2-1.8 5.1 1.4 10.6-3.6 19.7 9.4-5.1 8.3-23.7 5.8-29.5-2.9 8-12 10.5-8.7 28h0zm-39.2-52.4s-4.7-5.1-10.1-6.2c7.2-.4 9.4 2.9 14.9 5.1 1.4-.7 4.3-1.1 4.3-1.1-.7-1.8-10.1-9.1-26.8-6.9 3.2 1.8 6.9 11.3 17.7 9.1zm-234.7-.8c-.4 3.3 0 11.3 1.4 13.8 4-6.2.7-16.7-1.4-21.8-5.8 9.8-4.7 19.7-.4 24-1.8-9.4-.4-13.4.4-16zm84.7-6.5c-5.8-.4-14.5 4.7-15.6 5.8-1.9-.6-4.6-.4-5.5.1 11.9-11.4 22.6-8.8 28-7.4-4.7 6.6-10.9 8-12 8.4-1.4.4-6.5-.4-6.5-.4 1.5-1.4 6.9-4.7 11.6-6.5zm-21.3 6.2c0-.1.1-.2.3-.3l-.3.3zm-64.9 85.5c1.1 5.1 5.4 6.6 6.5 12.4 1.8-2.9 2.9-6.6.4-9.5-1.8-2.5-6.5-5.1-9.4-13.1-2.2 7.6-.7 22.2 6.5 28.4 1.4-8.7-4.7-12-4-18.2zm4.7-30.6c-5.1-9.5-1.8-14.9-3.6-19.7 4 3.3 1.1 12 6.5 18.2 3.3-17.5-5.8-20-8.3-28-2.9 6.2-4 24.5 5.4 29.5zm36.6-54.9c5.4-2.2 7.6-5.5 14.9-5.1-5.4 1.1-10.1 6.2-10.1 6.2 10.5 2.2 14.1-7.3 17.8-8.7-16.7-2.2-26.1 5.1-26.8 6.9-.1-.1 2.8-.1 4.2.7zm-30.8-5.1c2.2-1.5 15.9-.7 18.8-1.1-2.2 2.2-17 2.2-17 3.6 9.4 3.3 20.3-1.8 25-4-11.2-5.5-27.9-1.1-27.9.4.4 0 1.1.4 1.1 1.1zm1.5 15.3c5.1 10.6-4 14.2-2.5 22.2 14.1-17.1 2.5-28-.7-33.5.4 5.8 0 9.8-1.4 14.6-1.4 4.7-3.6 9.1-1.4 13.8 1.3-5.8 7.4-7.3 6-17.1zm257.6-12.8c.4-1.8-14.9-1.5-17-3.6 3.3.7 16.7-.4 18.8 1.1.4-.7.7-.7.7-.7 0-1.5-16.7-5.8-27.9-.4 5.1 1.8 15.9 6.9 25.4 3.6h0zm-109.1 292c-2.9 6.9-10.9 10.9-12 16.4 12.3-6.2 17.8-15.3 18.8-23.7-5.1 4.7-25.4 7.6-22.5 26.6 1.9-10.6 11.4-14.2 15.7-19.3zm115.2-201c-2.2 3.3-1.1 6.9.4 9.5 1.1-6.2 5.4-7.3 6.5-12.4.7 6.2-5.4 9.8-4 17.8 6.9-6.2 8.3-20.8 6.5-28.4-2.8 8.1-7.6 11-9.4 13.5h0zm-68.8 178.4c8.7-.7 9.8-8.4 10.5-17.1-4.3 6.2-14.5 5.8-17 17.8 0 0 1.8-.7 3.6-.7 2.5-7.3 6.9-6.2 9.4-10.2-1.1 4.4-5.1 4.4-6.5 10.2h0zm-33.7 22.6c10.1-4.7 15.9-12.7 18.8-22.2-4 3.3-19.2 4-22.5 21.5 5.8-4.7 7.2-10.2 15.2-14.2-5.3 4-5.3 6.9-11.5 14.9zm51.8-32.4c9.1-3.3 15.6-6.9 16.3-25.1-4.3 6.2-18.5 8.4-19.2 23.7 2.9-7.3 9.8-7.6 13.4-14.6-1.4 8-9 9.1-10.5 16zm46.4-115c2.2-2.5 2.5-4.7 2.5-7.3-.4-4.4-7.6-10.6-9.4-15.7-2.5 6.6-6.2 21.5 2.5 31.3 1.1-3.3 2.5-6.2 2.5-6.2-.7-6.6-5.8-8.7-3.6-16 .8 7.3 4.8 6.6 5.5 13.9h0z"/><path d="M426 104.2s-.4-2.2 0-4c-4-4.4-5.8-10.9-6.2-15.7 1.4 3.3 4 10.9 6.5 11.3 2.5-7.6-5.4-12.4-8.7-19.7-3.2 13.9 3.3 25.6 8.4 28.1zm14.1 50.6c-3.6 5.1-15.9 16.7-10.1 25.5-.4-3.6 5.8-11.3 6.5-16.7 2.2 7.3-4.3 10.6-3.3 18.9 6.2-7 7.6-16.8 6.9-27.7zm-29.4 132.1c5.1-2.2 6.2-12.4 1.8-24.8-1.8 7.3-13.8 13.1-9.8 26.6 2.2-1.1 4.3-1.5 4.7-1.5-2.9-4 3.6-12.7 3.3-16.7 2.6 4.4-2.9 11.3 0 16.4h0zm8-12.3c.4 1.5 0 4 0 4 2.9-.7 6.9-3.6 9.1-6.2-2.2 4.7-6.5 8-9.4 9.5-.4 2.5-1.4 4.4-1.4 4.4 7.2-1.5 18.1-12.4 17-22.2-3.7 6.5-13.1 6.1-15.3 10.5h0zm15.7-22.2c1.4-4.7 3-10.2 1.7-12.8.4 3.1-1.7 7.5-3.5 11-1.3 2.7-2.4 4.9-2 5.7-3.9-6.6.4-13.5 4.1-19.5 1.8-2.9 3.4-5.6 3.9-7.8 2.5 9.5 1.8 24.8-5.8 30.9-.3-1.2.6-4.2 1.6-7.5h0zm-35.6 44c3.6.4 10.9-1.8 14.1-3.3-3.6 3.6-11.6 5.5-15.2 6.2-1.1 2.2-1.8 3.3-1.8 3.3 8.3-.4 20.7-4.4 24.3-13.8-6.2 3.6-16.3.7-21.4 7.6h0zm36.6-95.7c1.4-5.5 2.2-8.7 2.9-12.7 1.1 2.2-.7 12.7-1.4 14.6 0 0 1.1 1.5 1.8 4.4 2.9-5.8 4-16 1.1-27.7-1.5 3.9-10.2 11.2-4.4 21.4h0zM316.9 353.2c4-.4 6.9-4.7 11.6-4.4-3.3.7-7.2 7.3-22.5 12-2.9 2.5-4.3 5.5-6.2 8.7 22.5-8 26.1-20 37.3-21.1-2.8-2.5-13.3-5.8-20.2 4.8h0zm23.9-17.5s-.4 1.5-2.2 2.5c2.9 0 9.4-2.5 13.8-1.1-6.9 0-8.7 3.6-19.6 4.7 9.4 4 19.9-.4 26.8-7.3-3.6-.2-12.3-2.1-18.8 1.2zm29.4-16l3.3 1.1c3.6-6.2 9.4-4 15.9-8.4-5.4 5.8-9.8 4-13 9.1 6.5 2.9 18.5-7.6 21.7-15.3-8.4 5.9-22.1 1.5-27.9 13.5zm-23.2 7.7c6.9 0 13.4-3.6 20.3-1.5-7.6-.4-9.4 1.8-19.2 4 6.5 1.8 19.6 1.1 27.9-5.1-5.8 0-18.5-8.4-29 2.6z"/></g><path d="M362.9 205.4c.7 0 1.1.4 1.1 1.1v4.4c0 .7-.4 1.1-1.1 1.1s-1.1-.4-1.1-1.1v-4.4c0-.7.4-1.1 1.1-1.1z" fill="#17205c"/><g fill="#0b195b"><path d="M251.3 110.8c-.4-2.2-2.2-3.6-2.5-1.8-1.1 6.6-8.3 9.5-11.6 12.7-2.5 2.2-2.9 3.6-4.7 6.6-.7 1.1-4.7 1.1-4.7 1.1s-.4-2.9 1.1-4c6.9-4.4 9.4-6.6 12.7-13.5 2.2-4.4 4-9.5 1.4-13.8-.4-2.5-.7-3.3-1.4-5.5-2.5.4-3.6 2.5-3.6 2.5s-1.1-5.1-2.9-7.3c-2.9 1.1-4.7 4-4.7 4s-1.1-3.6-3.6-6.2c-2.9 1.1-5.1 3.6-5.1 3.6s-1.8-2.2-4.3-4c-2.9 2.2-4.3 5.1-4.3 5.1s-1.4-1.8-4.3-2.9c-2.5 2.5-3.3 6.2-3.3 6.2s-1.4-1.8-2.9-2.5c-1.8 1.1-.7 5.1-1.8 5.1-8.3 10.9 7.6 25.5 13.4 29.5 1.8 1.1 1.4 4 1.4 4h-1.8c-2.9-8.4-11.2-8.7-13.4-10.9s-5.1-5.5-6.9-8.4c-.7-1.1-1.8 0-2.2 1.1-.1 1.6-.3 3.2-.5 4.8-.7 6.8-1.2 12.5.8 14.9 5.7 7.1 10.8 5.7 15.9 4.3 3-.8 6-1.6 9.1-.7 0 0-.4 4.4 2.2 5.1 1.8.4 6.2.4 7.6-.7 2.2-1.1 1.4-5.8 1.4-5.8h2.2c2.9 3.3 12.7 3.3 17-.4 4-4 5-13.1 4.3-22.2zm-36.2-19c-.4.7-.4 1.5-.4 1.5 1.8.4 3.3-.7 4.3-1.8 0 0 0-.4-.7-1.1-.4-.4-.7-.7-1.4-1.1-.4.7-.7 1.1-1.1 1.5-.4.3-.7.7-.7 1zm8 0s.4-.7.7-1.1l1.1-1.1c1.1.7 1.4 1.8 1.8 2.5s.4 1.5.4 1.5c-1.5-.3-2.6-1.1-4-1.8zm-14.2-.7c1.8 1.5 3.3 2.5 3.3 2.5-2.1.3-3.5.7-4.2 1.3.1-.3 0-1.9.9-3.8zm22.9 2.5c-.7.4-1.1.4-1.1.7 2.2.4 3.6.7 4.3 1.5 0 0 .4-1.1-.4-2.9 0-.4 0-.7-.4-1.1-1 .7-1.7 1.5-2.4 1.8zm-26.9 2.2c-.4-.4-1.1-.7-1.8-1.1 0 .7 0 1.1-.4 1.8 0 .7.4 1.5.4 2.2.4-.7.7-1.1 1.1-1.5l1.1-1.1-.4-.3zm3.7 2.2l-2.2 1.1s-.4 0-1.1 1.1c-.4 0-.7 0-.7.4 0 0-.4 0-.4.4l1.4 2.2s2.9-1.8 4-2.2c0 .4.4.4.4.7.4.7 1.1 1.5 1.4 2.2.4.4.4.7.4.7s.4-.7 1.4-1.8c.4-.4.7-.7 1.4-1.1.4 0 .7-.4 1.1-.4 1.1.4 1.8 1.1 2.5 1.8 1.1 1.1 1.8 2.2 1.8 2.2s.4-.7 1.1-1.5c1.1-1.1 2.2-1.8 3.3-2.5.7.4 1.4.7 1.8 1.1l.7.7c.4.7.7 1.1 1.1 1.5.4.7.7 1.1.7 1.1s.7-2.9 2.2-4.7c1.8.7 2.9 1.8 3.3 2.5l.4.4 1.8-2.2c-2.2-4.4-7.6-3.6-11.2-5.5v.7c0 .4 0 .4.4.7l.4.4c.4.4.4.7.7 1.1.4.7.4 1.1.4 1.8 0-.4-.4-.4-.4-.7-.7-1.1-1.8-1.8-2.9-2.9-.4-.4-.7-1.1-.7-1.5h-.4s-.4 0-.4.4c-.7 1.5-.4 4.7-1.1 5.5h-.4c0-.4-.4-.7-.4-1.1-.4-.7-.4-1.1-.4-1.8 0-1.5 0-2.9-1.1-3.6-.4.4-1.4 1.1-2.5 2.2-.4 0-.4.4-.7.7-.7.7-1.4 1.8-1.8 2.5v-1.5c0-.4.4-.7.4-1.1.4-.7.7-1.1.7-1.8-.6.4-3.5.7-6.4 1.8h0zm29.7-.7s.4-.4.7-.4c.4-.4 1.1-.7 1.8-1.1.4 1.5.4 2.5 0 4-1.1-1.4-1.8-1.8-2.5-2.5zm-33.7 7.6l-.7.7c-.7.7-1.1 1.5-1.1 1.5s-1.1-1.8-1.1-3.3c0 0 .4-1.5.7-2.2 0 0 0-.4.4-.4s.4.4.7.7c0 1.6.7 2.7 1.1 3zm33 .8s.4 0 .7.7l.4.4a6.51 6.51 0 0 1 1.1 1.5l.7-2.2c.4-.4.4-.7.4-1.1 0 0 0-.7-.4-1.1-.4-.7-.4-1.1-.7-1.5l-.7.7c-.4.7-.7 1.1-1.1 1.8-.1.4-.4.4-.4.8zm-6.9 0v1.1s.4.4 1.1 0c.4.4 1.1.7 1.4 1.5.4-1.1 1.1-2.2 1.4-2.5l-1.4-2.2-.4-.4-.4-.4s-.4 0-.4.4c0 0-.4 0-.4.4-.4.4-.4.4-.4.7-.4.4-.4.4-.4.7-.1.3-.1.3-.1.7zm-22.5 2.1c-.4-.4-.4-.7-.7-.7l-.7-.7s.7-1.8 2.2-2.9c0-.4.4-.4.4-.4l.4.4c.4.4.7 1.1.7 1.8.4.7.4 1.5.4 1.5l-.7.7c-.4.4-.7.7-1.1 1.5-.5-.4-.5-.8-.9-1.2h0zm7.2 0l-1.1-1.1s.7-1.8 1.8-2.9c0-.4.4-.4.4-.4 1.1 1.1 2.2 3.6 2.2 3.6l-.7.7c-.4.4-1.1.7-1.4 1.8-.1-.6-.4-1.3-1.2-1.7zm12-.3s-.4.4-.7.4l-.4.4c-.4.4-1.1 1.1-1.4 1.8-.4-.7-.7-1.1-1.1-1.5l-.4-.4-.7-.7c.4-.7 1.1-2.5 2.2-3.6l.4.4c.4.4.7.7.7 1.1.4.4.4.7.7 1.1a4.24 4.24 0 0 0 .7 1h0zm-12.3 6.2l.4-.4.7-.7s-.7-1.1-1.1-2.9c-.4-.4-.4-.7-.7-.7s-.4-.4-.7-.4c-1.1 1.5-1.8 3.3-1.8 3.3v.4l.4.4.4.4c.4.7 1.1 1.5 1.4 2.2.3-.5.6-1.3 1-1.6zm-7.3-.4c0-.4.4-.7.7-1.1 0-.1 0-.2-.1-.3-.1-.2-.1-.4.4-.4-.4-.4-.4-.7-.7-1.1-.4-.4-.7-1.1-1.4-1.5l-.4.4c-.4 0-.7.4-.7.7 0 .4-.4.4-.4.7-.4.4-.4.7-.4.7s.4 1.5 1.8 3.3c.5-.7.9-1 1.2-1.4zm12.7.7c-.4-.7-1.1-1.5-1.4-1.8 0 0 .7-2.2 2.2-3.3.7.4 1.1 1.1 1.4 1.5.4.4.4.7.7 1.1.4.4.4.7.4.7l-.4.4s-.4.4-.4.7c-.4.7-1.1 1.5-1.4 2.2-.4-.7-.7-1.1-1.1-1.5zm17.1-3.6l.7 1.5c0 .4-.7 1.5-1.8 3.3-1.1-1.8-2.2-2.5-2.2-2.5s.7-1.8 2.2-2.9c.3-.1.7.2 1.1.6zm-9.5 0c-1.1 1.1-1.8 2.9-1.8 2.9s1.1.4 1.8 1.5c.4.4.4.7.7 1.1.7-1.1 1.8-2.5 2.2-2.9 0 0-.7-1.5-1.8-2.5 0 0 0-.4-.4-.4s-.7-.1-.7.3zm12 17.5a22.89 22.89 0 0 0 3.6-2.9c2.2-2.2 4.3-6.2 5.1-11.3-.4.4-.7.7-1.1 1.5-.4.7-.7 1.1-1.4 1.8l-1.1 1.1c-.4.7-1.1 1.1-1.8 1.8-.7.4-1.1.7-1.4 1.1-.4.4-.7.4-1.1.7-.4.4-.4.4-.7.4s-.4 0-.7.4l-.7.7-.7.7-.4.4c-1.4 1.5-2.5 3.6-1.4 4.4h.4c.5.3 1.9-.1 3.4-.8zm-7.3-9.1l-.7.7-.7.7c0-.4-.4-1.1-1.1-1.5 0 0-.4 0-.4-.4s.4-.7.7-1.8c.4-.4.4-.7.7-1.1 0 0 .4.4.4.7l.4.4c1.1.7 1.4 1.5 1.4 1.5l-.7.8zm-21 1.4c.4-.4.7-.7 1.1-1.5.4-.4 0-1.1-.7-1.8 0-.4-.4-.7-.7-1.1 0 .4 0 .4-.4.7-.4 0-.4.4-.4.4-.4.4-.7 1.1-.7 1.1s0 .4.4.7c.4 0 .4.4.7.7l.7.8h0zm8-.3l.7-.7c0-.4-.7-1.8-1.8-2.9l-.4-.4c-1.1.4-1.8 1.5-2.2 2.2l-.4.4.7.7c.7.7 1.4 1.8 1.8 2.5 0-.4.4-.4.4-.7l.7-.7c.1-.1.5-.4.5-.4zm7.2-1.5l-.7.7c-.7.7-1.4 1.5-1.8 2.5-.7-1.5-1.8-2.2-1.8-2.2 0-.4.7-1.8 1.8-2.9l.4-.4c.4 0 .7.4.7.7.7.1 1.1.9 1.4 1.6zm-30.8-.7c-.7 13.5 13 15.3 14.1 12 .7-2.5-3.3-5.8-5.8-6.9-3.2-1.5-6.8-2.6-8.3-5.1zm-.7 10.9l-.4-.4c-.4-.4-.4-.7-.7-1.1-.4-.4-.4-.7-.4-1.1-.4-1.8-.4-3.6-.4-5.8.4 4 1.8 6.6 3.3 8.4.7 1.1 1.8 1.8 2.5 2.2-1.3-.4-2.8-1.1-3.9-2.2zm48.9 1.1c-2.5 2.9-6.9 4.4-10.1 1.5 1.4 0 2.5-.4 4-.7 1.8-.7 3.6-1.8 5.4-2.9l.7-.7c1.1-1.1 2.2-2.5 2.9-4 0 2-1.1 4.6-2.9 6.8zm-22.1 7.3c.7 0 1.8 0 2.5-.7.4 0 .7-.4.7-1.1 0-2.9 0-5.8-.4-8.7-1.1-.4-2.2-.4-3.3.4 0 1.3-.1 2.4-.3 3.4-.2 1.9-.4 3.7.3 6.1v.4c.2.2.5.2.5.2zm178.3-28.1c.4-1.8 2.2-.4 2.5 1.8 1.1 9.1 0 18.2-4.3 22.2-4.3 3.6-14.1 3.6-17 .4h-2.2s.7 4.7-1.4 5.8c-1.4 1.1-5.8 1.1-7.6.7-2.5-.7-2.2-5.1-2.2-5.1-3.1-.9-6.1-.1-9.1.7-5.1 1.4-10.2 2.8-15.9-4.3-2.1-2.4-1.5-8.1-.8-14.9.2-1.6.3-3.2.5-4.8.4-1.1 1.4-2.2 2.2-1.1 1.8 2.9 4.7 6.2 6.9 8.4s10.5 2.5 13.4 10.9h2.2s.4-2.9-1.4-4c-5.8-4-21.7-18.6-13.4-29.5 1.1 0 0-4 1.8-5.1 1.4.7 2.9 2.5 2.9 2.5s.7-3.6 2.9-6.2c2.9 1.1 4.3 2.9 4.3 2.9s1.4-2.9 4.3-5.1c2.5 1.8 4.3 4 4.3 4s2.2-2.5 5.1-3.6c2.5 2.5 3.6 6.2 3.6 6.2s1.8-2.9 4.7-4c1.8 2.2 2.9 7.3 2.9 7.3s1.1-2.2 3.6-2.5c.7 2.2 1.1 2.9 1.4 5.5 2.5 4.4.7 9.5-1.4 13.8-3.3 6.9-5.8 9.1-12.7 13.5-1.4 1.1-1.1 4-1.1 4s4 0 4.7-1.1c1.8-2.9 2.2-4.4 4.7-6.6 3.3-3.2 10.5-6.1 11.6-12.7h0zm-33.7-15.6s0-.7.4-1.5c0-.4.4-.7.7-1.1.4-.4.7-.7 1.1-1.5.7.4 1.1.7 1.4 1.1.7.7.7 1.1.7 1.1-.2.1-.3.3-.5.4-1.2 1-2.2 1.8-3.8 1.5zm9.1-2.6c-.4.4-.7 1.1-.7 1.1 1.4.7 2.5 1.5 4 1.8 0 0 0-.7-.4-1.5s-.7-1.8-1.8-2.5l-1.1 1.1h0zm-11.6 2.9s-1.4-1.1-3.3-2.5c-1.1 2.2-1.1 4-1.1 4 .7-.7 2.2-1.1 4.4-1.5zm18.1.8c0-.4.4-.4 1.1-.7.7-.4 1.4-1.1 2.5-1.8.4.4.4.7.4 1.1.7 1.8.4 2.9.4 2.9-.4-.8-2.2-1.2-4.4-1.5h0zm-27.2.3c.7.4 1.4.7 1.8 1.1l.4.4-1.1 1.1c-.4.4-.7.7-1.1 1.5 0-.7-.4-1.5-.4-2.2 0-.8 0-1.1.4-1.9zm3.3 4.4l2.2-1.1c2.9-1.1 5.8-1.5 6.5-1.8 0 .7-.4 1.1-.7 1.8 0 .4-.4.7-.4 1.1v1.5c.4-.7 1.1-1.8 1.8-2.5.4-.4.4-.7.7-.7 1.1-1.1 2.2-1.8 2.5-2.2 1.1.7 1.1 2.2 1.1 3.6 0 .7 0 1.1.4 1.8 0 .4.4.7.4 1.1h.4c.7-.7.4-4 1.1-5.5 0-.4.4-.4.4-.4h.4c0 .4.4 1.1.7 1.5 1.1 1.1 2.2 1.8 2.9 2.9 0 .4.4.4.4.7 0-.7 0-1.1-.4-1.8-.4-.4-.4-.7-.7-1.1l-.4-.4c-.4-.4-.4-.4-.4-.7v-.7c3.6 1.8 9.1 1.1 11.2 5.5l-1.8 2.2-.4-.4c-.4-.7-1.4-1.8-3.3-2.5-1.4 1.8-2.2 4.7-2.2 4.7s-.4-.4-.7-1.1c-.4-.4-.7-.7-1.1-1.5l-.7-.7c-.4-.4-1.1-.7-1.8-1.1-1.1.7-2.2 1.5-3.3 2.5-.4 0-.7.7-.7.7s-.7-1.1-1.8-2.2c-.7-.7-1.4-1.5-2.5-1.8-.4 0-.7.4-1.1.4-.7.4-1.1.7-1.4 1.1-1.1 1.1-1.4 1.8-1.4 1.8s0-.4-.4-.7c-.4-.7-1.1-1.5-1.4-2.2 0-.4-.4-.4-.4-.7-1.1.4-4 2.2-4 2.2l-1.4-2.2c0-.4.4-.4.4-.4 0-.4.4-.4.7-.4.2-.3.2-.3.6-.3h0zm32.2-2.2c-.4 0-.7.4-.7.4 1.1.7 1.4 1.1 2.5 2.5.4-1.5.4-2.5 0-4-.7.4-1.4.8-1.8 1.1zm-35.1 8.8l.7-.7c-.4-.4-.7-1.5-1.1-2.9-.4-.4-.4-.7-.7-.7s-.4.4-.4.4c-.4.7-.7 2.2-.7 2.2 0 1.5 1.1 3.3 1.1 3.3s.3-.9 1.1-1.6zm34.4.7c-.4-.7-.4-.7-.7-.7 0-.4.4-.4.4-.7.4-.7.7-1.1 1.1-1.8l.7-.7c.4.4.4.7.7 1.5.4.4.4 1.1.4 1.1 0 .4 0 .7-.4 1.1l-.7 2.2s-.4-.7-1.1-1.5l-.4-.5zm-7.3.3v-1.1c0-.4 0-.4.4-.7 0-.4 0-.4.4-.7 0-.4 0-.4.4-.7 0-.4.4-.4.4-.4 0-.4.4-.4.4-.4l.4.4.4.4 1.4 2.2c-.4.4-1.1 1.5-1.4 2.5-.4-.7-1.1-1.1-1.4-1.5-1 .4-1.4 0-1.4 0zm-23.1.4c.4 0 .4.4.7.7s.4.7.7 1.1c.4-.7.7-1.1 1.1-1.5l.7-.7s0-.7-.4-1.5c0-.7-.4-1.5-.7-1.8l-.4-.4s-.4 0-.4.4c-1.4 1.1-2.2 2.9-2.2 2.9l.9.8h0zm7.9.7l-1.1-1.1s.7-1.8 1.8-2.9c0-.4.4-.4.4-.4 1.1 1.1 2.2 3.6 2.2 3.6l-.7.7c-.4.4-1.1.7-1.4 1.8-.5-.6-.8-1.3-1.2-1.7zm10.9 0c.4 0 .7-.4.7-.4s0-.4-.7-1.1c-.4-.4-.4-.7-.7-1.1 0-.4-.4-.7-.7-1.1l-.4-.4c-1.1 1.1-1.8 2.9-2.2 3.6l.7.7.4.4c.4.4.7.7 1.1 1.5.4-.7 1.1-1.5 1.4-1.8 0 .1.4-.3.4-.3zm-11.6 5.9l.4-.4.7-.7-1.1-2.9c-.4-.4-.4-.7-.7-.7s-.4-.4-.7-.4c-1.1 1.5-1.8 3.3-1.8 3.3v.4l.4.4.4.4c.4.7 1.1 1.5 1.4 2.2.3-.5.6-1.3 1-1.6zm-6.5-1.5c-.4.4-.7.7-.7 1.1-.4.4-.7.7-1.1 1.5-1.4-1.8-1.8-3.3-1.8-3.3s0-.4.4-.7c0-.4.4-.4.4-.7 0-.4.4-.7.7-.7l.4-.4c.7.4 1.1 1.1 1.4 1.5.4.4.4.7.7 1.1-.4-.1-.4.2-.4.6zm12.3 1.8c-.4-.7-1.1-1.5-1.4-1.8 0 0 .7-2.2 2.2-3.3.7.4 1.1 1.1 1.4 1.5.4.4.4.7.7 1.1.4.4.4.7.4.7l-.4.4s-.4.4-.4.7c-.4.7-1.1 1.5-1.4 2.2-.4-.7-.7-1.1-1.1-1.5zm17.4-2.2l-.7-1.5c0-.4-.4-.7-1.1-.7-1.4 1.1-2.2 2.9-2.2 2.9s1.1.7 2.2 2.5c1.1-1.7 1.8-2.8 1.8-3.2zm-9.8-1.4c-1.1 1.1-1.8 2.9-1.8 2.9s1.1.4 1.8 1.5c.4.4.4.7.7 1.1.7-1.1 1.8-2.5 2.2-2.9 0 0-.7-1.5-1.8-2.5 0 0 0-.4-.4-.4s-.7-.1-.7.3h0zm8 18.2c.7.4 2.2 0 3.6-.7a22.89 22.89 0 0 0 3.6-2.9c2.5-2.2 4.7-6.2 5.1-11.3-.4.4-.7.7-1.1 1.5-.4.7-.7 1.1-1.4 1.8l-1.1 1c-.4.7-1.1 1.1-1.8 1.8-.7.4-1.1.7-1.4 1.1-.4.4-.7.4-1.1.7-.4.4-.4.4-.7.4s-.4.4-.7.4c0 .4-.4.4-.7.7l-.7.7-.4.4c-1.4 1.5-2.5 3.6-1.4 4.4h.2zm-4-9.1l.7-.7.7-.7s-.4-.7-1.4-1.5l-.4-.4c0-.4-.4-.7-.4-.7-.4.4-.4.7-.7 1.1-.4 1.1-.7 1.5-.7 1.8s.4.4.4.4c.7.4 1.1 1.1 1.1 1.5l.7-.8zm-19.2-.7c-.4.7-.7 1.1-1.1 1.5l-.7-.7c-.4-.4-.4-.7-.7-.7l-.7-.7s.4-.7.7-1.1c0 0 0-.4.4-.4.4-.4.4-.4.4-.7.4.4.7.7.7 1.1 1 .6 1.3 1.3 1 1.7h0zm6.9 1.1l.7-.7c0-.4-.7-1.8-1.8-2.9l-.4-.4c-1.1.4-1.8 1.5-2.2 2.2l-.4.4.7.7c.7.7 1.4 1.8 1.8 2.5 0-.4.4-.4.4-.7l.7-.7c.1-.1.5-.4.5-.4zm7.2-1.5l-.7.7c-.7.7-1.4 1.5-1.8 2.5-.7-1.5-1.8-2.2-1.8-2.2 0-.4.7-1.8 1.8-2.9l.4-.4c.4 0 .7.4.7.7.7.1 1.1.9 1.4 1.6zm-16.6 11.3c-1.1 3.3-14.9 1.5-14.1-12 1.4 2.5 5.1 3.6 8.3 5.1 2.1 1.1 6.5 4.3 5.8 6.9zm-15.3-1.5l.4.4c1.1 1.1 2.2 1.8 4 2.2-.7-.4-1.8-1.1-2.5-2.2-1.4-1.8-2.9-4.4-3.3-8.4 0 2.2 0 4 .4 5.8 0 .4 0 .7.4 1.1.3.4.3.8.6 1.1zm49.3 1.5c-2.5 2.9-6.9 4.4-10.1 1.5 1.4 0 2.5-.4 4-.7 1.8-.7 3.6-1.8 5.4-2.9l.7-.7c1.1-1.1 2.2-2.5 2.9-4 0 2-1.1 4.6-2.9 6.8h0zm-22.1 7.3c.7 0 1.8 0 2.5-.7.4 0 .4-.4.7-1.1 0-2.9 0-5.8-.4-8.7-1.1-.4-2.2-.4-3.3.4 0 1.3-.1 2.4-.3 3.4-.2 1.9-.4 3.7.3 6.1v.4c.1.2.5.2.5.2z"/><path d="M156.8 386c1.1 0 1.4-.4 1.4-1.1V370c0-.7-.4-1.1-1.4-1.1v-.4h8.3c3.6 0 5.1 2.2 5.1 4.4 0 2.9-2.5 4.4-5.1 4.7l5.1 6.6c1.1 1.1 1.8 1.8 2.5 1.8v.4h-3.6c-.4 0-.7-.4-2.9-3.6l-3.6-4.7-.7-.7c0-.4 0-.4.4-.4 2.9 0 5.1-1.1 5.1-3.6s-2.2-2.9-4.7-2.9h-1.4v14.6c0 .7.4 1.1 1.4 1.1v.4h-5.8v-.6h-.1zm266.6 0c0 .7-.4 1.1-1.4 1.1v.4l14.1-.4c0-1.5 0-2.9.4-4.7h-.4c-.4 2.5-1.4 2.9-4 2.9h-5.8v-6.9h4c1.1 0 1.4 0 1.8 1.5h.7c0-.7-.4-1.5-.4-2.5V375h-.7c0 1.5-.7 1.5-1.8 1.8h-4V371h6.5c1.1 0 2.2.4 2.5 2.5h.7c0-1.5-.4-2.9-.4-4l-13.4.4v.4c1.1 0 1.4.4 1.4 1.1V386h.2zm-11.2 8.3c1.8 0 4-.7 5.4-1.8l-1.1 1.5c-1.4 1.5-3.6 2.2-6.2 2.2-3.6 0-8.3-2.9-8.3-9.5.4-6.6 6.2-9.1 10.1-9.1 1.4 0 2.9.4 4.3 1.1 0 1.1.4 2.5.4 4h-.4c-.4-2.5-2.9-3.3-4.7-3.3-3.6 0-6.5 2.5-6.5 6.6.1 4.3 3 8.3 7 8.3h0zM176 395.4c1.1 0 1.4-.4 1.4-1.1l.4-14.9c0-.7-.4-1.1-1.4-1.1v-.3h13.4c.4 1.1.4 2.5.4 4h-.7c-.4-2.2-1.4-2.5-2.5-2.5h-6.5v5.8h4c1.1 0 1.4 0 1.8-1.5h.7v4.7h-.7c-.4-1.5-.7-1.5-1.8-1.5h-4v6.9h5.8c2.5 0 3.6-.4 4-2.9h.4c-.4 1.8-.4 3.3-.4 4.7H176v-.3h0zm19.2 2.2v4.4c1.4 1.1 3.3 1.5 5.1 1.5 5.1.4 7.6-2.2 8-5.5.3-3.4-2.2-4.3-5.2-5.3l-.6-.2c-3.3-.7-4.3-1.1-4.3-3.3 0-1.8 1.8-2.9 4.7-2.9 1.8 0 4.3 1.1 4.3 3.6h.7v-4c-1.1-.7-3.3-1.1-4.7-1.1-4.3-.4-7.6 2.2-7.6 4.7 0 3.3 2.5 4.4 7.2 5.5 1.8.4 3.3 1.1 3.3 3.3 0 2.5-2.5 3.3-4.7 3.3-2.9 0-4.7-1.8-5.4-4.4l-.8.4zm197.4 5.1h5.8v-.4c-1.1 0-1.4-.4-1.4-1.1v-14.9c0-.7.4-1.1 1.4-1.1v-.4h-5.8v.4c1.1 0 1.4.4 1.4 1.1v14.9c0 .7-.4 1.1-1.4 1.1v.4zm-179 5.1c1.1 0 1.4-.4 1.4-1.1v-14.6c0-.7-.4-1.1-1.4-1.1v-.4h8c3.6 0 5.4 2.2 5.4 5.1 0 3.3-2.9 5.5-6.5 5.5-.4 0-2.2-.4-2.5-.7v6.2c0 .7.4 1.1 1.4 1.1v.4h-5.8v-.4h0zm162-.7c0 .7-.4 1.1-1.4 1.1v.4h5.8v-.4c-1.1 0-1.4-.4-1.4-1.1v-6.2c.4.4 2.2.7 2.5.7 3.6 0 6.5-2.2 6.5-5.5 0-2.9-1.8-5.1-5.4-5.1h-8.3v.4c1.1 0 1.4.4 1.4 1.1v14.6h.3 0zM218 391.8h.7c3.6 0 6.2.4 6.2 4 0 2.5-2.2 4-4.7 4h-1.8c-.4 0-.4 0-.4.4v-8.4h0zm161.2.3h-.7v8.4c0-.4 0-.4.4-.4h1.8c2.5 0 4.7-1.5 4.7-4 0-3.6-2.6-4-6.2-4h0zm-23.5 19v-4.7h.7c.7 2.5 2.5 4 5.4 4 2.2 0 4.3-1.1 4.3-3.6 0-2.2-1.4-2.5-3.3-2.9-5.1-.7-7.6-1.8-7.6-5.1 0-2.5 3.3-5.1 7.6-5.1 1.1 0 3.6.4 4.7 1.1v4h-.7c-.4-2.5-2.9-3.3-4.7-3.3-3.3 0-4.7 1.5-4.7 3.3s1.1 2.2 4.7 2.9 6.2 1.5 6.2 5.1c0 3.3-2.5 5.8-7.6 5.8-1.8-.1-3.6-.4-5-1.5h0zm-117.8 2.2h-5.8v-.4c1.1 0 1.4-.4 1.4-1.1v-14.9c0-.7-.4-1.1-1.4-1.1v-.4h5.8v.4c-1.1 0-1.4.4-1.4 1.1v14.9c0 .7.4 1.1 1.4 1.1v.4zm94.6-5.1c.7 5.1 4.3 8.7 9.8 8 5.4-.7 8.3-5.8 8-10.6-.4-4-3.6-8.7-9.8-8-4.4.4-8.7 5.1-8 10.6zm-74.3 4.7c-1.4 1.1-3.6 1.8-5.4 1.8-4 0-6.9-4-6.9-8.4 0-4 2.9-6.6 6.5-6.6 1.8 0 4.3.7 4.7 3.3h.4c0-1.5-.4-2.9-.4-4-1.4-.7-2.9-.7-4.3-.7-4 0-9.8 2.5-10.1 9.1 0 6.6 5.1 9.1 8.7 9.1 2.5 0 4.7-.7 6.2-2.2l.6-1.4h0zm81.9-13.1c-2.2 0-5.8 2.2-5.1 7.3.4 3.6 3.6 7.6 8 7.3 2.9-.4 5.4-2.9 5.1-7.3-.8-4.8-4.4-7.7-8-7.3zM264 417.6c1.1 0 1.4-.4 1.4-1.1h.7v-14.9c0-.7-.4-1.1-1.4-1.1v-.4h13.4v4h-.7c-.4-2.2-1.4-2.5-2.5-2.5h-6.5v5.8h4c1.1 0 1.4 0 1.8-1.5h.7v4.7h-.7c-.4-1.5-.7-1.5-1.8-1.5h-4v6.9h5.8c2.5 0 3.6-.4 4-2.9h.4c-.4 1.8-.4 3.3-.4 4.7H264v-.2h0zm49.6-.3c0 .7-.4 1.1-1.4 1.1v.4h5.8v-.4c-1.1 0-1.4-.4-1.4-1.1v-14.6h1.4c2.5 0 4.7.4 4.7 2.9s-2.2 3.6-5.1 3.6c-.4 0-.4 0-.4.4l.7.7 3.6 4.7c2.2 3.3 2.5 3.6 2.9 3.6h3.6v-.4c-.7 0-1.4-.7-2.2-1.8l-5.1-6.6c2.5-.4 5.1-1.8 5.1-4.7 0-2.2-1.4-4.4-5.1-4.4h-8v.4c1.1 0 1.4.4 1.4 1.1v14.9l-.5.2h0zm-19.2 0c0 .7-.4 1.1-1.4 1.1v.4h5.8v-.4c-1.1 0-1.4-.4-1.4-1.1v-6.2c.4.4 2.2.7 2.5.7 3.6 0 6.5-2.2 6.5-5.5 0-2.9-1.8-5.1-5.4-5.1h-8.3v.4c1.1 0 1.4.4 1.4 1.1v14.6h.3 0zm3.7-15h-.7v8.4c0-.4 0-.4.4-.4h1.8c2.5 0 4.7-1.5 4.7-4-.1-3.6-2.6-4-6.2-4h0zm167.7-69.9c0 3.3-1.4 7.6-3.6 10.9 2.2 1.1 4.3 6.6 4 8.4v4c0 .4-.4.7-.4 1.1-.7 6.9-10.5 13.5-18.5 14.6v12.7c0 2.2-1.1 7.3-4 8.7-13.8 8-28.6 14.2-42.8 19.7-3.6 1.1-6.9 2.5-10.5 3.6-20.7 6.6-41.7 10.6-62.3 12.4l-14.5.7-16.7.4-16.7-.4-14.5-.7c-20.7-1.8-41.7-5.8-62.3-12.4-3.6-1.1-6.9-2.2-10.5-3.6-14.1-5.5-29-11.6-42.8-19.7-2.5-1.5-4-6.2-4-8.7v-12.7h-.4c-8-1.1-17.8-8-18.5-14.6 0-.4-.4-.7-.4-1.1v-4c0-.8.5-2.2.9-3.7.6-2 1.3-4.1.9-4.7-2.2-3.3-3.6-7.6-3.6-10.9v-2.2c.4-4.7 2.2-10.2 8-14.9 1.1-.7 1.8-1.5 2.5-2.2 1.1 2.2 1.8 4.7 2.5 6.9 1.1 3.6 5.8 5.8 8.7 6.6 5.1 1.5 9.8 2.2 14.5 4s10.5 5.1 12.3 8.4c.4.7.7 1.8 1.1 2.5.4 1.1.7 2.5.7 2.9v17.1c17 8.4 33.7 14.6 50.7 18.9 16.7 4.4 33.7 7.3 50.4 8.4l7.2.4h23.6l7.2-.4c16.7-1.5 33.7-4 50.4-8.4 17-4.4 33.7-10.6 50.7-18.9v-17.1c0-.4.4-2.2.7-2.9.4-.7.7-1.8 1.1-2.5 2.2-3.6 8-6.6 12.3-8.4 5.1-1.8 9.8-2.5 14.5-4 2.9-.7 7.6-2.9 8.7-6.6.7-2.2 1.4-4.7 2.5-6.9 1.1.7 1.8 1.5 2.5 2.2 5.8 4.7 7.6 10.2 8 14.9v2.2h.4zm-15.2 33.5c1.4-.7 3.3-1.5 3.3-1.5 6.2-3.6 7.6-6.2 8.3-10.6 0-6.9-5.8-8.4-5.8-9.5s5.1-5.5 5.1-11.6c0-3.3-.7-7.3-3.6-10.9l-.4-.4c-.7 2.5-2.2 5.1-5.1 6.9-1.1.7-1.8 1.5-2.9 1.8-.4 0-.7.4-1.1.4-2.5 1.1-5.1 1.5-7.6 2.2-2.9.7-5.8 1.5-8.7 2.5-.4 0-.4.4-.7.4-.4.4-1.1.4-1.4.7-3.3 1.5-7.6 3.6-8.7 6.2-.4.7-.7 2.2-.7 2.5v2.9c.4 0 2.9.4 3.6.4 5.8 0 11.2-3.3 16.3-3.3h1.8c.4 0 .7 0 1.1-.4.7.4 2.9 1.8 2.9 2.5 0 .4.4.7.4 1.1v18.2h.7c.4 0 1.1 0 1.8-.4.7.3 1 .3 1.4-.1h0zm-301.5-20.7c-.7.4-2.9 1.8-2.9 2.5 0 .4-.4.7-.4 1.1V367h-.7c-1.4 0-6.2-2.5-6.2-2.5-6.2-3.6-7.6-6.2-7.6-10.6 0-6.9 5.8-8.4 5.8-9.5 0-.7-5.1-5.1-5.1-11.3 0-3.6.7-7.6 4-11.3.7 2.2 2.2 4.7 4.7 6.9 4 2.9 8 3.6 12.3 4.7 2.9.7 5.8 1.1 8.7 2.5 3.6 1.5 8.7 4 10.1 6.9.4.7.7 2.2.7 2.5v2.9c-.4 0-2.9.4-3.6.4-5.8 0-11.2-3.3-16.3-3.3H151c-.8-.6-1.3-.5-1.6-.4-.1.3-.2.3-.3.3h0zm23.2 14.5v-8c-.7.4-2.5.4-3.6.4h-2.2c-1.4 0-3.3-.4-4.7-.7-.7-.4-8-2.2-9.1-2.2h-.7c6.6 3.6 13.8 7.6 20.3 10.5zm251.5-7.2c-.7 0-2.2-.4-2.9-.4h-.7v7.6h.7c6.2-2.9 13-6.6 19.6-10.2h-.7c-1.1 0-8.3 2.2-9.1 2.2-1.4 0-3.3.4-4.7.7h-2.2zm19.5 31.3c0 .1 0 .2-.1.4s-.2.5.1.7c.4 2.2-2.9 5.5-5.4 6.2-3.6 1.5-6.9 3.6-10.1 5.1-8 4-16.7 7.6-24.6 10.9-5.4 2.2-10.5 4-15.9 5.8-19.9 6.6-39.9 9.8-59.8 11.6l-12.7.7-13 .4H292l-13-.4-12.7-.7c-19.9-1.8-39.9-5.5-59.8-11.6-5.1-1.8-10.5-3.6-15.9-5.8-8.3-3.3-16.7-6.9-24.6-10.9-3.6-1.5-6.9-3.6-10.1-5.1-2.5-.7-5.8-4-5.4-6.2v-32c21 11.6 42.8 21.5 63.8 28 11.2 3.6 22.8 6.2 33.7 8.4 10.1 1.8 19.9 3.3 30.1 4 5.8.4 1.8.4 19.2.7 17 0 13.4-.4 19.2-.7 10.1-.7 19.9-2.2 30.1-4 11.2-1.8 22.5-4.7 33.7-8.4 21-6.6 42.4-16.4 63.8-28v30.9h-.8z"/></g><path d="M374.9 273.6v-1.8h-3.3v-3.3h-3.3v-3.3H365l-.7-39h1.8V224h1.8v-6.6H365v-12.7h4.3v-4l4-2.2v-6.9l-77.5-18.9-77.5 18.9v6.9l4 2.2v4h4.7v12.7h-2.9v6.6h1.8v2.2h1.8l-.7 39.3h-3.3v3.3h-3.3v3.3h-3.3v6.6h158l-.2-5.1zm-79-88.1l41.3 9.8h-82.6l41.3-9.8h0zm-66.6 18.9c0-.7.4-1.1 1.1-1.1s1.1.4 1.1 1.1v4.4c0 .7-.4 1.1-1.1 1.1s-1.1-.4-1.1-1.1v-4.4zm5.4-1.1c-.7 0-1.1.4-1.1 1.1v4.4c0 .7.4 1.1 1.1 1.1s1.1-.4 1.1-1.1v-4.4c0-.7-.4-1.1-1.1-1.1zm6.2 1.1c0-.7.4-1.1 1.1-1.1h6.5c.7 0 1.1.4 1.1 1.1v4.4c0 .7-.4 1.1-1.1 1.1H242c-.7 0-1.1-.4-1.1-1.1v-4.4zm14.8-1.1c-.7 0-1.1.4-1.1 1.1v4.4c0 .7.4 1.1 1.1 1.1s1.1-.4 1.1-1.1v-4.4c0-.7-.4-1.1-1.1-1.1zm3.3 5.5v-4.4c0-.7.4-1.1 1.1-1.1s1.1.4 1.1 1.1v4.4c0 .7-.4 1.1-1.1 1.1-.4 0-1.1-.8-1.1-1.1zm7.2-4.4v4.4c0 .4.4 1.1 1.1 1.1h6.5c.7 0 1.1-.4 1.1-1.1v-4.4c0-.7-.4-1.1-1.1-1.1h-6.5c-.7 0-1.1.4-1.1 1.1zm13.8 4.4v-4.4c0-.7.4-1.1 1.1-1.1s1.1.4 1.1 1.1v4.4c0 .7-.4 1.1-1.1 1.1-.8 0-1.1-.8-1.1-1.1zm4.3-4.4v4.4c0 .4.7 1.1 1.1 1.1.7 0 1.1-.4 1.1-1.1v-4.4c0-.7-.4-1.1-1.1-1.1s-1.1.4-1.1 1.1zm7.3 4.4v-4.4c0-.7.4-1.1 1.1-1.1h6.5c.7 0 1.1.4 1.1 1.1v4.4c0 .7-.4 1.1-1.1 1.1h-6.5c-.4 0-1.1-.8-1.1-1.1zm13.7-4.4v4.4c0 .4.7 1.1 1.1 1.1.7 0 1.1-.4 1.1-1.1v-4.4c0-.7-.4-1.1-1.1-1.1s-1.1.4-1.1 1.1zm4.4 4.4v-4.4c0-.7.4-1.1 1.1-1.1s1.1.4 1.1 1.1v4.4c0 .7-.4 1.1-1.1 1.1-.4 0-1.1-.8-1.1-1.1zm7.2-4.4v4.4c0 .4.7 1.1 1.4 1.1h6.5c.7 0 1.1-.4 1.1-1.1v-4.4c0-.7-.4-1.1-1.1-1.1H318c-.7 0-1.1.4-1.1 1.1zm13.8 4.4v-4.4c0-.7.4-1.1 1.1-1.1s1.1.4 1.1 1.1v4.4c0 .7-.4 1.1-1.1 1.1-.4 0-1.1-.8-1.1-1.1zm5.8 1.1c.7 0 1.1-.4 1.1-1.1v-4.4c0-.7-.4-1.1-1.1-1.1s-1.1.4-1.1 1.1v4.4c0 .7.4 1.1 1.1 1.1zm5.8-5.5c0-.7.4-1.1 1.1-1.1h6.9c.7 0 1.1.4 1.1 1.1v4.4c0 .7-.4 1.1-1.1 1.1h-6.5c-.7 0-1.1-.4-1.1-1.1v-4.4h-.4zm15.2-1.1c-.7 0-1.1.4-1.1 1.1v4.4c0 .7.4 1.1 1.1 1.1s1.1-.4 1.1-1.1v-4.4c0-.7-.4-1.1-1.1-1.1zm-128.2 8.4v5.5H363v-5.5H229.3h0zm22.8 53.9l.7-40h-.4v-1.8h-2.2v-2.2H248v-2.2h-6.5v2.2h-2.2v2.2h-2.2v1.8l.4 39.7v.4c.1-.1 14.6-.1 14.6-.1zm26.4-40.1l-.7 39.7v.4h-14.5v-.4l-.4-39.7v-1.8h2.2v-2.2h2.2v-2.2h6.5v2.2h2.2v2.2h2.2v1.8h.3zm23.2-1.8v-2.2h-2.9v-2.2h-6.5v2.2h-2.2v2.2H288l.7 41.5h14.5l.7-41.5h-2.2 0zm25.4-2.2v2.2h2.2l-.7 41.5H314l-.7-41.5h2.2v-2.2h2.2v-2.2h7.2v2.2h2.2 0zm25.3 0v2.2h2.2l-.7 41.5h-14.5l-.7-41.5h2.2v-2.2h2.2v-2.2h7.2v2.2h2.1 0zm14.2 47.3V267H225.3v1.8h141.3 0zM222 270.3h148.2v1.8H222v-1.8h0zm-3.3 4.7h154.7v-1.5H218.7v1.5h0z" fill="#fff"/></g></svg>