<?xml version="1.0" encoding="utf-8"?>
<!-- Generator: Adobe Illustrator 16.0.0, SVG Export Plug-In . SVG Version: 6.00 Build 0)  -->
<!DOCTYPE svg PUBLIC "-//W3C//DTD SVG 1.1//EN" "http://www.w3.org/Graphics/SVG/1.1/DTD/svg11.dtd">
<svg version="1.1" id="Layer_1" xmlns="http://www.w3.org/2000/svg" xmlns:xlink="http://www.w3.org/1999/xlink" x="0px" y="0px"
	 width="687px" height="500px" viewBox="0 0 687 500" enable-background="new 0 0 687 500" xml:space="preserve">
<polygon fill-rule="evenodd" clip-rule="evenodd" fill="#231F20" points="-0.055,499.97 10.955,499.97 10.955,467.935 
	22.759,499.97 33.105,499.97 44.845,467.935 44.845,499.97 55.919,499.97 55.919,453.942 39.737,453.942 27.932,484.318 
	16.126,453.942 -0.055,453.942 "/>
<path fill-rule="evenodd" clip-rule="evenodd" fill="#231F20" d="M101.2,481.268H89.793l5.703-18.637L101.2,481.268z M72.748,499.97
	h11.541l3.381-11.075h15.785l3.184,11.075h11.54l-13.795-46.028h-17.84L72.748,499.97z"/>
<path fill-rule="evenodd" clip-rule="evenodd" fill="#231F20" d="M171.613,499.97v-10.28c0-6.035-3.847-8.157-7.626-9.153
	c3.979-1.259,6.433-2.852,6.433-11.539c0-11.738-3.582-15.056-16.051-15.056H136.53v46.028h11.075v-13.728h5.703
	c5.373,0,7.229,2.319,7.229,6.695v7.032H171.613z M147.605,464.885h7.56c3.516,0,4.577,1.128,4.577,5.241
	c0,4.111-0.929,5.173-4.577,5.173h-7.56V464.885z"/>
<polygon fill-rule="evenodd" clip-rule="evenodd" fill="#231F20" points="187.919,453.942 187.919,463.162 198.928,463.162 
	198.928,499.97 210.003,499.97 210.003,463.162 221.079,463.162 221.079,453.942 "/>
<path fill-rule="evenodd" clip-rule="evenodd" fill="#231F20" d="M261.72,481.268h-11.408l5.704-18.637L261.72,481.268z
	 M233.268,499.97h11.539l3.382-11.075h15.785l3.184,11.075h11.54l-13.794-46.028h-17.842L233.268,499.97z"/>
<path fill-rule="evenodd" clip-rule="evenodd" fill="#231F20" d="M360.443,499.97c16.182,0,18.768-3.382,18.768-16.05h-11.474
	c0.068,4.245-0.729,6.036-7.959,6.036h-3.183c-6.366,0-8.091-2.589-8.091-10.812v-5.571c0-8.29,1.857-10.213,8.091-10.213h3.183
	c7.033,0,7.894,2.586,7.959,6.167h11.474c0-12.402-3.116-16.116-17.706-16.116h-7.429c-12.733,0-16.714,3.979-16.714,19.101v7.825
	c0,16.448,4.112,19.633,18.04,19.633H360.443z"/>
<path fill-rule="evenodd" clip-rule="evenodd" fill="#231F20" d="M423.29,481.268h-11.406l5.702-18.637L423.29,481.268z
	 M394.836,499.97h11.54l3.384-11.075h15.784l3.184,11.075h11.541l-13.797-46.028h-17.841L394.836,499.97z"/>
<polygon fill-rule="evenodd" clip-rule="evenodd" fill="#231F20" points="457.757,499.97 468.766,499.97 468.766,467.935 
	480.572,499.97 490.918,499.97 502.659,467.935 502.659,499.97 513.732,499.97 513.732,453.942 497.55,453.942 485.745,484.318 
	473.939,453.942 457.757,453.942 "/>
<path fill-rule="evenodd" clip-rule="evenodd" fill="#231F20" d="M551.583,475.299h-6.367v-10.349h6.104
	c4.376,0,5.504,1.593,5.504,5.176C556.824,473.971,555.83,475.299,551.583,475.299z M533.611,453.942v46.028h11.011v-13.662h6.565
	c10.61,0,16.05-3.184,16.05-16.382c0-12.338-5.439-15.984-16.184-15.984H533.611z"/>
<path fill-rule="evenodd" clip-rule="evenodd" fill="#231F20" d="M608.931,463.361c6.169,0,8.224,1.923,8.224,9.418v7.03
	c0,7.559-1.922,10.147-8.224,10.147h-3.78c-6.167,0-8.09-2.589-8.09-10.017v-7.294c0-7.362,2.053-9.285,8.09-9.285H608.931z
	 M610.258,499.97c14.924,0,18.038-3.316,18.038-19.633v-7.825c0-15.387-4.177-19.101-18.768-19.101h-5.704
	c-13.795,0-17.907,3.848-17.907,19.101v7.825c0,16.448,3.847,19.633,18.04,19.633H610.258z"/>
<path fill-rule="evenodd" clip-rule="evenodd" fill="#231F20" d="M646.666,467.935c0,10.679,3.581,12.073,14.855,12.669l8.755,0.397
	c3.315,0.133,5.173,1.062,5.173,4.975c0,3.98-1.593,4.775-4.842,4.775h-7.229c-4.045,0-5.373-0.862-5.373-5.04h-11.272v1.923
	c0,10.015,4.509,12.336,14.324,12.336h11.606c11.806,0,14.393-3.316,14.393-13v-2.386c0-10.347-5.107-12.138-14.657-12.602
	l-9.883-0.53c-3.25-0.201-4.511-0.465-4.511-4.046c0-3.516,1.394-4.313,4.511-4.313h8.026c3.646,0,4.509,1.328,4.509,3.847h11.804
	v-1.99c0-7.492-4.177-11.009-14.259-11.009h-11.273c-9.883,0-14.656,3.317-14.656,12.071V467.935z"/>
<path fill="#231F20" d="M167.282,176.247c0-97.324,78.894-176.218,176.217-176.218c97.323,0,176.219,78.894,176.219,176.218
	c0,97.324-78.896,176.218-176.219,176.218c-78.319,0-144.704-51.092-167.643-121.763l79.477-137.684l18.288,31.682
	c-7.609,15.396-11.883,32.734-11.883,51.056c0,63.703,51.633,115.321,115.331,115.333c42.209,0,78.869-22.724,99.131-56.405
	c3.074-5.132,1.444-11.804-3.699-14.902c-5.135-3.104-11.83-1.477-14.923,3.701c-16.589,27.537-46.296,45.855-80.504,45.855
	c-51.692-0.083-93.503-41.881-93.596-93.581c0.093-51.712,41.907-93.513,93.598-93.593c34.519-0.016,64.626,18.681,80.873,46.535
	c3.003,5.162,9.664,6.964,14.878,3.915c5.105-3.014,6.961-9.63,3.901-14.861c-19.965-34.259-57.094-57.333-99.657-57.344
	c-36.577,0.006-69.173,17.032-90.293,43.573l-22.021-38.139c-0.686-1.189-4.319-3.283-5.692-3.281l-7.473,0.013
	c-1.362,0.001-4.99,2.099-5.672,3.279l-77.124,133.589C167.797,191.853,167.282,184.11,167.282,176.247z M474.085,198.443
	c0,6.032,4.891,10.922,10.921,10.922c6.031,0,10.922-4.89,10.922-10.922c0-6.031-4.891-10.921-10.922-10.921
	C478.976,187.522,474.085,192.412,474.085,198.443z"/>
</svg>
