<svg xmlns="http://www.w3.org/2000/svg" viewBox="0 0 1110.1 441.8" xmlns:v="https://vecta.io/nano"><style><![CDATA[.F{fill:#fff}.G{fill-rule:evenodd}]]></style><defs><filter id="A" filterUnits="userSpaceOnUse" x="11.9" y="23.3" width="1064.9" height="393.9"><feColorMatrix values="1 0 0 0 0  0 1 0 0 0  0 0 1 0 0  0 0 0 1 0"/></filter></defs><mask maskUnits="userSpaceOnUse" x="11.9" y="23.3" width="1064.9" height="393.9" id="B"><path d="M13.7 23.3h1800v394.3H13.7z" filter="url(#A)"/><path d="M13.7 23.3h1800v394.3H13.7z" class="F"/></mask><g mask="url(#B)" class="G"><path d="M733.7 121.2c3.3 3.3 8 4.7 12.7 4.7 9.1 0 17-5.1 17-14.6s-7.2-13.1-14.9-16.4c-4-1.8-9.8-3.3-9.8-8.7 0-4 3.6-5.8 7.2-5.8 6.2 0 10.5 4.7 11.6 10.2h3.3l-.4-12.7h-3.3l-1.1 2.9c-2.9-2.5-6.9-3.6-10.9-3.6-8.3 0-15.2 4.7-15.2 13.5 0 8 5.4 11.6 12 14.2 5.1 2.2 12 4 12 10.6 0 4.4-4 7.3-8.3 7.3-8 0-11.2-6.2-13.4-12.4h-2.9v14.9h3.3l1.1-4.1zM397.1 80.4c6.9 0 6.9 3.3 6.9 9.1V107c0 14.9 8.3 19.3 21 19.3 13.4 0 19.9-6.6 19.9-19.3V93.5 92c-.1-2.8-.1-6.2 1.1-8.3 1.1-2.2 3.3-2.5 5.4-2.9v-2.9c-2.9 0-5.8.4-8.7.4s-5.4-.4-8.3-.4v2.5c2.2.4 4.3 1.1 5.4 2.9 1.4 2.2 1.4 7.3 1.4 9.8V108c0 8.7-4.7 13.1-13.8 13.1-10.5 0-12.7-5.5-12.7-14.6v-17c0-5.8 0-9.5 6.9-9.1v-2.5c-4.3 0-9.1.4-13.4.4-3.6 0-7.6-.4-11.2-.4l.1 2.5h0zm111.2 45.9h-3.6l-33-36.8v22.2c0 5.5 0 10.9 6.9 11.3v2.5c-2.9 0-5.8-.4-8.7-.4s-5.4.4-8.3.4V123c6.2-.7 6.5-3.6 6.5-8.7V85.2c-2.2-2.9-3.3-4.4-7.2-4.7V78c2.2 0 4.7.4 6.9.4 2.9 0 5.4-.4 8.3-.4l28.6 32.8V91.4c0-5.5 0-10.6-6.9-10.9V78c2.9 0 5.4.4 8.3.4s5.8-.4 8.7-.4v2.5c-2.2.4-4.3.7-5.4 2.5s-1.1 6.2-1.1 8.7v34.6h0zm24.3-12.4v.8c0 5.3 0 8.3-6.9 8.3v2.5c4 0 8-.4 12-.4 4.3 0 8.7.4 12.7.4V123c-6.9 0-6.9-2.9-6.9-8.7V89.9v-.8c0-5.3 0-8.3 6.9-8.3v-2.9c-4.3 0-8.7.4-12.7.4s-8-.4-12-.4v2.5c6.9 0 6.9 3.3 6.9 9.1v24.4h0zm52.5 12.4L601 88.4c1.8-4.4 2.9-7.3 8.3-7.6v-2.9c-3.3 0-6.2.4-9.4.4-2.9 0-5.8-.4-8.7-.4v2.5c2.9.4 6.2.4 6.2 4 0 2.9-2.2 8-3.3 10.9l-6.9 17.1-9.1-24c-.4-1.1-1.4-3.6-1.4-4.7 0-3.3 3.6-3.3 6.2-3.3v-2.5c-4.3 0-8.7.4-13 .4-4 0-8-.4-12-.4v2.5c5.8 1.1 5.8 1.8 8.3 7.6l15.2 37.9h3.6l.1.4h0zm126.8-35.7c0 6.2-5.4 10.2-11.2 11.3l9.8 12.7c1.4 1.8 2.9 4.4 4.7 6.2 1.4 1.5 2.5 2.2 4.7 2.5v2.5c-2.5 0-4.7-.4-7.2-.4s-4.7.4-7.2.4l-10.1-14.6c-2.5-3.6-5.4-6.9-7.6-6.9h-1.1v9.5c0 5.8 0 9.5 6.9 9.1v2.5c-4 0-8.3-.4-12.3-.4s-8.3.4-12.3.4V123c6.9 0 6.9-3.3 6.9-9.1V89.5c0-5.8 0-9.5-6.9-9.1v-2.5c4 0 8.3.4 12.3.4 3.6 0 7.6-.4 11.6-.4 3.6.4 8.7.4 12 1.8 4.5 2.2 7 5.8 7 10.9zm69.9 23.3v.8c0 5.3 0 8.3-6.9 8.3v2.5c4 0 8-.4 12-.4 4.3 0 8.7.4 12.7.4V123c-6.9 0-6.9-2.9-6.9-8.7V89.9v-.8c0-5.3 0-8.3 6.9-8.3v-2.9c-4.3 0-8.7.4-12.7.4s-8-.4-12-.4v2.5c6.9 0 6.9 3.3 6.9 9.1v24.4h0zm28.3-36h46.7l.4 13.5h-3.3c-.7-6.2-4.3-10.2-10.5-10.2H842c-1.3 0-2.1 0-2.5.3-.5.4-.5 1.4-.5 3.6v1.2 26.9c0 6.6 0 9.5 7.2 9.1v2.5c-4 0-8.3-.4-12.7-.4-4 0-8.3.4-12.7.4v-2.5c7.2 0 7.2-2.5 7.2-9.1V86.3v-1c0-1.9 0-2.9-.5-3.4s-1.6-.6-3.9-.7c-6.9-.4-9.8 4-10.9 10.2h-3.3l.7-13.5h0zm84.8 28.4l12.3-20.4c1.4-2.5 2.9-4.7 6.2-5.1v-2.9c-2.9 0-5.8.4-8.7.4-2.5 0-4.7-.4-7.2-.4v2.5c2.5 0 5.4.4 5.4 3.6 0 1.8-1.8 5.1-2.9 6.9l-6.9 11.6-7.2-13.1c-.7-1.5-2.5-4.4-2.5-5.8 0-2.5 3.6-2.9 5.4-2.9v-2.9c-4 0-8.3.4-12.3.4-3.6 0-7.2-.4-10.9-.4v2.5c3.6.7 4 1.8 6.2 4.7l12.7 22.2v6.2c0 6.2 0 9.1-6.9 9.1v2.5c4 0 7.6-.4 11.6-.4 4.7 0 9.1.4 13.8.4v-2.5c-7.2.4-7.2-2.9-7.2-9.1v-7.3l-.9.2h0zm-235.5 19.3c-10.1 0-19.9-.4-30.1-.4-3.9 0-8.1.3-12 .4v-1.8c6.9 0 6.9-3.3 6.9-9.1V90.3c0-5.8 0-9.5-6.9-9.1v-2.5c4 0 8.3.4 12.3.4 8.7 0 17.8-.4 26.4-.4l.7 12.7h-3.3c-1.1-7.3-5.4-9.5-12.3-9.5-.7 0-5.4 0-5.8.7-.4.4-.4 3.3-.4 4v13.1c5.8 0 9.4-1.1 9.8-7.6h2.9c0 3.3-.4 6.6-.4 9.8 0 2.9.4 5.8.4 8.7h-2.9c-1.1-6.6-3.3-7.6-9.8-7.6v8.4.8c0 6.1 0 10.2 8.3 10.2 8 0 11.2-2.5 13-10.6h2.9c0 2.5-.4 5.5-.4 8 .3 2.1.7 4 .7 5.8h0zm27.5-36.8v12.4h2.9c6.9 0 10.5-2.9 10.5-9.8 0-6.6-2.5-9.8-9.4-9.8-1.1 0-3.3 0-3.6.7-.4.7-.4 5.4-.4 6.5zm291 12.4h-5.8l-6.5 29.1c-1.8 6.2-5.1 12.7-12 12.7-2.5 0-5.4-1.5-5.4-4.4 0-1.8 1.4-3.3 2.9-3.3 1.4 0 2.5 1.5 2.5 2.9.4 1.1.4 2.2 1.4 2.2 1.4 0 1.8-2.2 2.2-3.3.7-3.6 1.8-7.6 2.5-11.3l5.4-24.8H960l.7-2.5h5.1c1.8-7.3 5.4-16.4 14.1-16.4 2.5 0 6.2.7 6.2 4 0 1.8-1.4 3.3-2.9 3.3-3.3 0-2.5-4.4-5.1-4.4-1.8 0-2.5 1.8-2.9 3.3-1.1 3.3-1.8 6.9-2.5 10.2h5.8l-.6 2.7zm45.2 24h-6.5l7.2-29.9c.4-1.8 1.8-6.6 1.8-8.4 0-2.2-3.3-2.2-4.7-2.2l.4-1.8 12.7-.7-5.8 24c2.2-4.4 5.8-8.7 10.9-8.7 3.3 0 5.4 2.2 5.4 5.5 0 1.8-.4 4.4-1.1 6.2l-1.8 6.6c-.4 1.1-1.1 3.6-1.1 4.4 0 .7.4 1.8 1.1 1.8 2.2 0 4-4 5.1-5.8l1.1.4c-1.8 4-5.4 9.8-10.1 9.8-2.2 0-4.3-2.2-4.3-4.7 0-2.2.7-4.7 1.4-6.6l1.8-6.6c.4-1.1 1.1-3.3 1.1-4.7 0-1.5-.4-2.2-1.8-2.2-2.2 0-4.7 2.9-5.8 4.7-1.8 3.3-3.3 6.9-4.3 10.2l-2.7 8.7h0zM1013 88.8h-6.5l-3.3 10.2h-5.1l-.7 2.5h4.7l-2.5 10.2c-.7 2.5-1.8 6.9-1.8 9.8s2.2 5.1 5.1 5.1c4.7 0 8-5.5 10.1-9.5l-1.1-.7-.4.7c-.7 1.5-2.9 5.5-5.1 5.5-1.1 0-1.4-1.5-1.4-2.2 0-1.8 1.1-5.8 1.4-7.6l2.9-11.3h5.8l.7-2.5h-5.8l3-10.2h0zm-68.8 8.8c6.2 0 10.1 5.1 10.1 11.3 0 8.7-6.5 17.5-15.2 17.5-6.2 0-10.1-4.7-10.1-11.3-.1-9.2 6.1-17.5 15.2-17.5zm115.9 20.3c0 2.5 1.4 4.7 4 4.7 3.6 0 6.2-3.6 8.3-6.2l1.4 1.1c-2.5 4.4-6.5 8.4-12 8.4-5.8 0-9.1-3.6-9.1-9.5 0-9.5 6.9-18.9 16.3-18.9 3.3 0 7.6 1.5 7.6 5.5 0 7.3-10.9 9.8-16.3 11.3.2 1.1-.2 2.5-.2 3.6h0zm8.7-18.5c-4.3 0-6.9 9.1-7.6 12.7 4-1.5 9.8-4.7 9.8-10.2 0-1.4-.8-2.5-2.2-2.5zm-124.3.3c2.2 0 3.3 1.8 3.3 4 0 4.7-3.3 20-8.7 20-2.2 0-3.3-2.5-3.3-4.4 0-3.6 1.4-8.4 2.5-11.6.8-2.9 2.6-8 6.2-8zM534.4 223.9c3.3 3.3 8 4.7 12.7 4.7 9.1 0 17-5.1 17-14.6s-7.2-13.1-15.2-16.4c-4-1.8-9.8-3.3-9.8-8.7 0-4 3.6-5.8 7.2-5.8 6.2 0 10.5 4.7 11.6 10.2h3.3l-.4-12.7h-3.3l-1.1 2.9c-2.9-2.5-6.9-3.6-10.9-3.6-8.3 0-15.2 4.7-15.2 13.5 0 8 5.4 11.3 12 14.2 5.1 2.2 12 4 12 10.6 0 4.4-4 7.3-8.3 7.3-8 0-11.2-6.2-13.4-12.4h-2.9V228h3.3l1.4-4.1h0zM926 213.3h16l1.4 4c.4 1.1 1.4 3.6 1.4 4.7 0 2.9-4 2.9-6.2 3.3v2.5c3.6 0 7.6-.4 11.2-.4 4.3 0 8.7.4 13 .4v-2.5c-1.8-.4-3.6-.7-5.1-1.8-1.4-1.5-2.9-5.1-3.6-6.9l-14.5-36.8H936L921.7 214c-1.8 4.4-4 11.3-9.8 11.3v2.5c2.9 0 5.4-.4 8.3-.4s6.2.4 9.1.4v-2.5c-2.5-.4-6.2-.4-6.2-4 0-1.8 1.1-4.4 1.8-6.2l1.1-1.8h0zm-483.3 15.3h-3.6l-9.8-30.9-10.9 30.9h-3.6L401 189.3c-1.4-4.4-1.4-5.8-6.5-6.6v-2.5c3.6 0 7.2.4 10.9.4 4.3 0 8.3-.4 12.7-.4v2.5c-2.5.7-6.2.4-6.2 3.6 0 1.8 1.4 6.2 2.2 8l6.2 18.9 10.5-33.1h3.3l11.2 32.8 3.6-12c1.1-2.9 3.3-10.6 3.3-13.1 0-4-2.5-4.4-5.8-4.7v-2.5c2.2 0 4.7.4 7.2.4 2.9 0 5.4-.4 8.3-.4v2.5c-4 .4-4.7 2.2-5.8 5.5l-13.4 40h0zm136.2-48.4h46.7l.4 14.2h-3.3c-.7-6.2-4.3-10.2-10.5-10.2h-1.4c-1.3 0-2.1 0-2.5.3-.5.4-.5 1.4-.5 3.6v1.2 26.9c0 6.6 0 9.5 7.2 9.1v2.5c-4 0-8.3-.4-12.7-.4-4 0-8.3.4-12.7.4v-2.5c7.2 0 7.2-2.5 7.2-9.1v-27.7-1c0-1.9 0-2.9-.5-3.4s-1.6-.6-3.9-.7c-6.9-.4-9.8 4-10.9 10.2h-3.3l.7-13.4h0zm148.6 24c5.8-1.1 11.2-5.1 11.2-11.3 0-5.1-2.5-8.7-7.2-10.9-3.3-1.5-8.3-1.5-12-1.8-4 0-8 .4-11.6.4-4 0-8.3-.4-12.3-.4v2.5c6.9-.4 6.9 3.3 6.9 9.1v24.4c0 5.8 0 9.1-6.9 9.1v2.5c4 0 8.3-.4 12.3-.4s8.3.4 12.3.4v-2.5c-6.9.4-6.9-3.3-6.9-9.1v-9.5h1.1c2.2 0 5.1 3.3 7.6 6.9l10.1 14.6c2.5 0 4.7-.4 7.2-.4s4.7.4 7.2.4v-2.5c-2.2-.4-3.3-1.1-4.7-2.5-1.8-1.8-3.3-4.4-4.7-6.2l-9.6-12.8h0zm74.3 24.8h3.6v-34.6c0-2.2 0-6.9 1.1-8.7s3.3-2.2 5.4-2.5v-2.5c-2.9 0-5.8.4-8.7.4s-5.4-.4-8.3-.4v2.5c6.9.4 6.9 5.5 6.9 10.9V213l-28.6-32.8c-2.9 0-5.4.4-8.3.4-2.2 0-4.7-.4-6.9-.4v2.5c4 .4 5.1 1.8 7.2 4.7v28.8c0 5.1-.4 8-6.5 8.7v2.5c2.9 0 5.4-.4 8.3-.4s5.8.4 8.7.4V225c-6.9-.4-6.9-5.8-6.9-11.3v-22.2l33 37.5h0zm171.7-3.7c6.9 0 6.9-3.3 6.9-9.1h.4v-24.4c0-5.8 0-9.5-6.9-9.1v-2.5c4 0 8 .4 12 .4 3.6 0 7.6-.4 11.2-.4 8.7.4 19.2 2.5 19.2 13.1 0 9.8-10.1 12.7-18.1 12.7h-6.5v10.2c0 6.6 0 9.5 7.2 9.1v2.5c-4.7 0-9.1-.4-13.4-.4-4 0-7.6.4-12 .4v-2.5zm-71.4 2.2h-2.9l-1.8-3.6c-4 4-9.8 5.5-15.6 5.5-14.1 0-24.3-9.1-24.3-23.7s10.5-25.1 25.4-25.1c5.4 0 9.8 1.1 13.8 4.4l1.1-4h3.3l.7 14.9h-3.3c-1.4-6.9-6.2-12-13.8-12-11.2 0-14.5 11.6-14.5 20.7 0 9.8 3.3 20.8 14.9 20.8 8.3 0 12.7-6.2 14.1-13.8h2.9v15.9h0zm-417.4 0l30.1.4c0-1.8-.4-3.6-.4-5.8 0-2.5.4-5.5.4-8h-2.9c-1.8 8-5.1 10.6-13 10.6-8.4 0-8.3-4-8.3-10.2v-.8-8.4c6.5 0 8.7 1.1 9.8 7.6h2.9c0-2.9-.4-5.8-.4-8.7 0-3.3.4-6.6.4-9.8h-2.9c-.4 6.6-4 7.6-9.8 7.6v-13.1c0-.7 0-3.6.4-4 .4-.7 5.1-.7 5.8-.7 6.9 0 11.2 2.2 12.3 9.5h3.3l-.7-12.7c-8.7 0-17.8.4-26.4.4-4 0-8.3-.4-12.3-.4v2.5c6.9-.4 6.9 3.3 6.9 9.1v23.7c0 5.8 0 9.1-6.9 9.1v2.5c3.7 0 7.9-.4 11.7-.4h0zm167.8 0l30.1.4c0-1.8-.4-3.6-.4-5.8 0-2.5.4-5.5.4-8h-2.9c-1.8 8-5.1 10.6-13 10.6-8.4 0-8.3-4-8.3-10.2v-.8-8.4c6.5 0 8.7 1.1 9.8 7.6h2.9c0-2.9-.4-5.8-.4-8.7 0-3.3.4-6.6.4-9.8h-2.9c-.4 6.6-4 7.6-9.8 7.6v-13.1c0-.7 0-3.6.4-4 .4-.7 5.1-.7 5.8-.7 6.9 0 11.2 2.2 12.3 9.5h3.3l-.7-12.7c-8.7 0-17.8.4-26.4.4-4 0-8.3-.4-12.3-.4v2.5c6.9-.4 6.9 3.3 6.9 9.1v23.7c0 5.8 0 9.1-6.9 9.1v2.5c3.6 0 7.8-.4 11.7-.4h0zm390.2 0l30.1.4c0-1.8-.4-3.6-.4-5.8 0-2.5.4-5.5.4-8h-2.9c-1.8 8-5.1 10.6-13 10.6-8.4 0-8.3-4-8.3-10.2v-.8-8.4c6.5 0 8.7 1.1 9.8 7.6h2.9c0-2.9-.4-5.8-.4-8.7 0-3.3.4-6.6.4-9.8h-2.9c-.4 6.6-4 7.6-9.8 7.6v-13.1c0-.7 0-3.6.4-4 .4-.7 5.1-.7 5.8-.7 6.9 0 11.2 2.2 12.3 9.5h3.3l-.7-12.7c-8.7 0-17.8.4-26.4.4-4 0-8.3-.4-12.3-.4v2.5c6.9-.4 6.9 3.3 6.9 9.1v23.7c0 5.8 0 9.1-6.9 9.1v2.5c3.6 0 7.8-.4 11.7-.4h0zm-51.4-40.4v15.7h1.4c7.2 0 11.2-2.2 11.2-9.8 0-5.8-2.9-9.5-9.1-9.5-3.5.3-3.5 0-3.5 3.6h0zm-277.6 4v12.4h2.9c6.9 0 10.5-2.5 10.5-9.8 0-6.6-2.5-9.8-9.4-9.8-1.1 0-3.3 0-3.6.7-.4.7-.4 5.4-.4 6.5zm213.8 18.6l6.9-16.4 6.5 16.4h-13.4z" class="F"/><path d="M218.1 99.4c0-1.8 2.5-.4 2.9 2.5 1.1 10.9-.4 22.2-4.7 26.9-5.1 4.4-17 4.7-20.7.4h-2.9s.7 5.8-1.8 7.3c-1.8 1.1-6.9 1.1-9.4.7-3.3-.7-2.5-6.2-2.5-6.2-3.8-1.2-7.5-.2-11.1.8-6.1 1.7-12.3 3.4-19.3-5.2-2.2-2.8-1.7-9.1-1-16.9l.6-7.1c0-1.5 1.4-2.9 2.5-1.5 2.5 3.3 6.2 7.6 8.7 10.2 3.3 2.9 13 3.3 16.7 13.5h2.5s.4-3.6-1.8-5.1c-7.6-4.7-26.8-22.9-16.7-36 1.1 0 0-4.7 2.2-6.2 1.8 1.1 3.6 3.3 3.6 3.3s1.1-4.4 3.3-6.9c3.6 1.5 5.4 3.6 5.4 3.6s1.8-3.6 5.4-6.2c2.9 2.2 5.1 4.7 5.1 4.7s2.5-3.3 6.2-4.7c2.9 2.9 4.3 7.6 4.3 7.6s2.2-3.6 5.8-5.1c2.2 2.5 3.6 8.7 3.6 8.7s1.4-2.5 4.3-2.9c.7 2.5 1.4 3.6 1.8 6.6 3.3 5.1.7 11.6-1.8 16.7-4.3 8-6.9 10.9-15.6 16.4-2.2 1.5-1.4 4.7-1.4 4.7s5.1 0 5.8-1.5c2.2-3.6 2.9-5.1 5.8-8 4-3.5 13.1-7.1 14.2-15.1h0zm-41.7-18.6c0-.4 0-.7.4-1.5.4-.4.4-1.1.7-1.5s.7-1.1 1.4-1.8c.7.4 1.1.7 1.4 1.5a6.51 6.51 0 0 1 1.1 1.5c-1 .7-2.8 1.8-5 1.8h0zm11.6-3.6c-.7.7-1.1 1.5-1.1 1.5 1.4 1.1 2.9 1.8 5.4 2.2 0 0 0-.4-.4-1.5s-1.1-2.2-2.2-3.3c-.4 0-.4.4-.7.4-.3-.1-.6.3-1 .7h0zm-14.1 3.6s-2.2-1.8-4.3-3.3c-1.4 2.9-1.1 5.1-1.1 4.7.7-.3 2.5-1 5.4-1.4h0zm21.7.7l1.1-1.1c.7-.7 1.8-1.5 2.9-2.2.4.4.4.7.7 1.5.7 2.2.7 3.6.7 3.6-.7-.7-2.5-1-5.4-1.8h0zm-33.3.8c1.1.4 1.4 1.1 2.2 1.5 0 0 .4 0 .4.4l.4.4c-.7.4-1.1.7-1.4 1.1-.4.4-.7 1.1-1.4 1.5 0-1.1-.4-1.8-.4-2.9-.2-.6.2-1.3.2-2zm4 5.1c.7-.4 1.8-1.1 2.9-1.5 3.3-1.5 7.2-1.8 8-2.2 0 .7-.4 1.5-.7 2.2-.4.4-.4.7-.4 1.1s0 .4-.4.7v1.5c.4-1.1 1.4-2.2 2.2-2.9l1.1-1.1c1.4-1.5 2.5-2.2 2.9-2.5 1.1 1.1 1.1 2.5 1.4 4.4 0 .7 0 1.5.4 2.2 0 .4.4.7.4 1.1 0 0 .4 0 .4-.4 1.1-1.1.4-5.1 1.1-6.6 0-.4.4-.4.4-.7l.4-.4c.4.7.7 1.1 1.1 1.8 1.1 1.5 2.9 2.5 3.6 3.6.4.7.4 1.1.4 1.1.4-.7 0-1.5-.4-2.2-.4-.4-.4-.7-.7-1.1 0-.4-.4-.4-.4-.7-.4-.4-.4-.7-.7-.7v-.7c4.3 2.2 10.9 1.5 13.8 6.9l-2.2 2.5-.4-.4c-.7-.7-1.8-2.2-4-3.3-1.8 2.2-2.9 5.8-2.9 5.8s-.4-.4-.7-1.1c-.4-.4-.7-1.1-1.1-1.5l-.7-.7c-.7-.7-1.4-1.1-2.2-1.5-1.4.7-2.9 1.8-4 2.9s-1.4 1.8-1.4 1.8-.7-1.5-2.2-2.5c-.7-.7-1.8-1.5-2.9-2.2-.4.4-.7.4-1.1.7-.7.4-1.4.7-1.8 1.5-1.1 1.1-1.8 2.2-1.8 2.2s-.4-.4-.4-.7c-.4-.7-1.1-1.8-1.8-2.5 0-.4-.4-.4-.7-.7-1.1-1.1-4.7 1.1-4.7 1.1l-1.4-2.5c0-.4.4-.4.7-.7 0-.4.4-.4.7-.7l.2-.4zm38.7-2.2c1.1 1.1 1.8 1.8 2.9 2.5.4-1.5.7-2.9 0-4.7-1.1.4-1.8 1.1-2.2 1.5l-.7.7zm-41.6 10.2s0-.4.4-.4c-.4-1.1-1.1-2.2-1.8-3.6 0-.4-.4-.4-.7-.7-.4 0-.4.4-.4.4-.4.7-.7 2.5-.7 2.5.4 1.8 1.4 4 1.4 4s.7-.7 1.4-1.8c0-.1 0-.4.4-.4zm40.9 0c0-.4.4-.7.4-.7.4-.7.7-1.5 1.4-2.2.4-.4.4-.7.7-.7.4.4.7 1.1.7 1.5.4.7.4 1.1.4 1.1 0 .4-.4.7-.4 1.5-.4 1.5-1.1 2.5-1.1 2.5s-.4-1.1-1.4-1.8c0-.4-.4-.4-.4-.4.1-.5-.3-.5-.3-.8zm-36.6 1.8c.4.4.4.7.7 1.1.4.4.7 1.1 1.1 1.1.7-.7 1.1-1.5 1.4-1.8l.7-.7h.4s0-.7-.4-1.8c-.4-.7-.7-1.8-1.1-2.2 0 0 0-.4-.4-.4l-.7.7c-1.4 1.1-2.5 3.3-2.5 3.3l.8.7h0zm28.3 0s0-.4.4-.7v-.4c0-.4 0-.4.4-.7 0-.4 0-.4.4-.7s.4-.4.4-.7c0-.4.4-.4.4-.7s.4-.4.4-.4c.4 0 .4.4.7.7.4 0 .4.4.7.7 1.1 1.1 1.8 2.5 1.8 2.5l-.4.4c-.4.4-1.4 1.5-1.8 2.9-.7-.7-1.1-1.1-1.4-1.8-1.7-1.1-2-1.1-2-1.1zm-18.5 1.1l-.4-.4c-.4-.4-.7-.7-1.1-.7 0 0 1.1-2.2 2.2-3.6 0-.4.4-.4.4-.4 1.4 1.1 2.5 4.4 2.5 4.4l-.7.7c-.4.4-1.1 1.1-1.4 2.2-.4-1.1-1.1-1.9-1.5-2.2zm13.4 0c.4-.4.4-.7.7-.7 0 0 0-.4-.4-.4 0-.7-.4-1.1-.7-1.5-.4-.7-.7-1.1-1.1-1.5 0 0 0-.4-.4-.4-1.4 1.1-2.2 3.6-2.5 4.4l.7.7.4.4c.4.4.7.7 1.1 1.5.7-.7 1.1-1.8 1.8-2.2l.4-.3zm-22.1 5.1l-.4.4c0 .4-.4.4-.7.7s-.7 1.1-1.4 1.8c-1.4-2.2-2.2-4-2.2-4s0-.4.4-.7c0-.4.4-.7.7-.7.4-.4.4-.7.7-1.1l.4-.4c.7.4 1.1 1.1 1.4 1.8.4.4.4.7.7 1.1 0 .7.4.7.4 1.1zm14.9 2.5c-.7-.7-1.1-1.8-1.4-2.2 0 0-.4 0-.4-.4 0 0 1.1-2.9 2.9-4 .7.4 1.4 1.1 1.8 1.8.4.4.7.7.7 1.1 0 .7.4 1.1.4 1.1l-.4.4c0 .4-.4.4-.7.7-.7.7-1.4 1.8-1.8 2.9-.4-.3-.8-1-1.1-1.4h0zm-6.6-.7l1.1-1.1s-.7-1.5-1.8-2.9l-.7-.7-.7-.7c-1.8 1.5-2.5 4-2.5 4 .4 0 .4.4.4.4l.4.4s.4 0 .4.4c.7.7 1.4 1.8 1.8 2.5.4-.7 1.1-1.5 1.4-1.8-.1-.1-.1-.5.2-.5zm15.6-4c-1.4 1.5-2.2 3.6-2.2 3.6s1.4.7 2.5 2.2c.4.4.4.7.7 1.1.7-1.5 2.2-3.3 2.5-3.6 0 0-.7-1.8-2.2-3.3l-.7-.7-.6.7zm12.7 1.8s-.4-1.1-1.1-1.8c-.4-.4-.7-.7-1.1-.7-1.8 1.1-2.5 3.6-2.5 3.6s1.1.7 2.5 2.9c1.5-2.2 2.2-3.6 2.2-4zm-2.5 20.8c1.1.4 2.5 0 4.3-1.1 1.4-.7 2.9-1.8 4.3-3.3 2.9-3.3 5.4-7.6 5.4-13.5 0 .7-.7 1.1-1.1 1.8s-1.1 1.5-1.8 2.2l-1.4 1.5-2.2 2.2c-.4.4-1.1.7-1.4 1.1-.7.4-1.1.4-1.4.7-.4 0-.4.4-.7.4 0 0-.7 0-.7.4s-.4.4-.7.7l-.7.7s0 .4-.4.4c-1.8 1.8-3.3 4.7-1.8 5.5-.1.3-.1.3.3.3zm-29.8-10.2l-1.1-1.1c-.4-.4-.7-.7-.7-1.1l-.7-.7s.4-.7 1.1-1.5c0-.4.4-.4.4-.4.4-.4.4-.7.7-.7.4.4.7.7 1.1 1.5.4.7.7 1.5.4 2.2-.8.7-1.2 1.4-1.2 1.8h0zm9.5-.4l.4-.4.7-.7c0-.4-1.1-2.2-1.8-3.6 0 0 0-.4-.4-.4-1.1.7-2.2 2.2-2.5 2.9l-.4.4.7.7c.7.7 1.8 1.8 2.2 2.9 0-.4.4-.4.4-.7.3-.4.3-.7.7-1.1h0zm16.3-1.5c.4-.7.7-1.1.7-1.1l-.7-1.5-.4-.4-.7-.7c-.4.7-.7 1.1-1.1 1.5-.7 1.1-1.1 1.8-1.1 2.2l.4.4c.4.7 1.1 1.5 1.1 1.8l1.1-1.1c.3-.3.3-.7.7-1.1h0zm-7.3-.3l-.7.7c-.7.7-1.8 1.8-2.2 2.9-1.1-1.8-2.5-2.9-2.5-2.9 0-.4.7-2.2 2.2-3.3 0-.4.4-.4.4-.4.4 0 .7.4 1.1.7.7.7 1.1 1.5 1.4 2.2.3-.3.3.1.3.1zM171 124.9c-1.4 4-18.1 1.8-17.4-14.6 1.8 2.9 6.2 4.4 10.1 6.2 3.3 1.1 8.4 5.4 7.3 8.4zm-18.1-1.9c0 .4 0 .4.4.7 1 1 2.3 2 4.8 2.5-1-.4-2-1.4-3-2.5-1.8-2.2-3.6-5.5-4-10.2v1.9c-.1 1.9-.1 3.7.4 5.4 0 .4.4.7.7 1.1-.1.4.3.8.7 1.1zm59.7 1.9c-3.3 3.6-8.3 5.5-12.3 1.8 1.4 0 3.3-.4 4.7-.7 2.2-.7 4.7-2.2 6.5-3.6l.7-.7c1.4-1.5 2.5-3.3 3.6-5.1.8 2.4-.6 5.7-3.2 8.3zm-26.8 9.1c.7.4 2.5 0 3.3-.7 0-.4.4-.7.4-1.5 0-3.6 0-6.9-.4-10.6-1.1-.4-2.5-.4-4 .4 0 1.5-.2 2.9-.3 4.1-.3 2.4-.6 4.7.3 7.5.4 0 .4.4.4.4 0 .4.3.4.3.4zm-52.9 187.4c-9.8-2.2-11.6-4-19.2-4 6.5-2.2 13 1.5 20.3 1.5-10.9-11.3-23.6-2.5-28.6-2.5 8 6.1 21 7.2 27.5 5zm22.9 10.2c-3.3-17.5-18.5-18.2-22.5-21.5 2.9 9.5 8.7 17.5 18.8 22.2-6.2-8-6.2-10.9-11.2-15.3 7.6 4.4 9.1 9.9 14.9 14.6zm-27.9-2.9c4.7-1.5 10.9 1.1 13.8 1.1-1.8-1.1-2.2-2.5-2.2-2.5-6.5-3.3-14.9-1.5-19.2-1.1 7.2 6.9 17.4 11.3 26.8 7.3-10.6-1.1-12.7-4.8-19.2-4.8zm23.9 11.3c5.1-.4 8 4 11.6 4.4-6.9-10.6-17.4-6.9-20.7-5.1 11.2 1.1 14.9 13.5 37.3 21.1-1.4-3.3-3.3-6.2-6.2-8.7-14.8-4.4-18.4-11-22-11.7zm-68.9-49.1c-3.6-.7-11.6-2.5-15.2-6.2 3.3 1.8 10.5 3.6 14.1 3.3-5.1-6.9-15.2-4.4-21.7-7.6 3.6 9.5 15.9 13.5 24.3 13.8.3-.1-.4-1.2-1.5-3.3h0zm38.4 19.6c1.8 0 3.6.7 3.6.7-2.2-12-12.7-11.6-17-17.8.7 8.7 1.8 16.4 10.5 17.1-1.4-5.8-5.8-5.8-6.5-9.8 2.5 3.6 6.9 2.2 9.4 9.8zm-18.4-11.6c-.4-15.3-14.9-17.5-19.2-23.7.7 18.2 7.2 21.8 16.3 25.1-1.4-6.9-9.1-8.4-10.9-16 4 7.3 11.2 7.3 13.8 14.6z" class="F"/><path d="M91.3 304c6.5 4.4 12.7 2.2 15.9 8.4 1.4-.7 3.3-1.1 3.3-1.1-5.4-12-19.6-7.6-27.9-13.5 3.6 7.6 15.6 18.2 21.7 15.3-3.3-5.1-7.6-3.3-13-9.1zM263.4 47.3c-4 0-11.6 2.5-17 8.7 8-1.5 21.7 3.3 32.2-6.2 0 0-1.8 0-4.3-.7-5.4 4.7-11.6 3.6-18.5 4.4 5.8-2.2 11.6-1.8 14.5-4.7-.4-.8-3.3-1.5-6.9-1.5h0zM157.9 325.4c1.1 8.4 6.5 17.5 18.8 23.7-1.1-5.5-9.1-9.8-12-16.4 4.3 5.5 13.8 8.7 15.6 19.3 3.4-19.3-17.3-21.8-22.4-26.6h0zM317 188.6c-8 10.9 2.9 23.3 3.3 33.5 3.3-13.8-3.6-16.4-2.2-21.5 1.8 3.6 6.2 6.2 5.1 18.2 6.5-12-5.5-23-6.2-30.2h0zm-.4 40.7c2.5-17.1-8-20-11.6-30.9-3.3 14.6 0 28 8.7 35.3 0-8.7-7.6-14.2-5.8-23.3.4 8 6.5 11.3 8.7 18.9zm-1.4-104.4c.7-8.7 6.2-9.5 8-16 1.4 4.7-5.4 10.6-4.7 16 12-12 5.8-19.3 8.3-25.1-9.1 6.1-13.1 17.4-11.6 25.1zm-4.4 31.6c2.2-6.6-3.3-11.3-2.5-15.7 1.8 5.8 6.9 8.4 4.7 18.2 0 0 3.3-5.5 2.5-11.3-.7-7.3-9.1-14.2-10.1-16.7-2.9 13.1.4 20.8 5.4 25.5zM62.3 273c-2.9-1.5-7.2-4.7-9.4-9.5 2.5 2.5 6.2 5.5 9.1 6.2 0 0-.4-2.5 0-4-2.2-4.4-11.6-4.4-15.6-10.9-1.1 9.8 9.4 21.1 17 22.2.3.4-.8-1.4-1.1-4zM240.2 45.9l-2.9-.4s-10.9.7-19.6 10.9c5.8 1.5 7.6-.4 12.3-.4 5.4.4 12.3-2.5 16.7-7.6 0 0-3.3-1.1-3.6-1.1-3.3 3.3-12.7 6.6-15.6 6.2 2.5-1.8 11.6-5.5 12.7-7.6h0zM88.7 49.5c10.5 9.8 24.3 5.1 32.2 6.2-5.8-6.2-13.4-8.4-17-8.7-3.6 0-6.9.7-6.9.7 2.9 3.3 8.7 2.9 14.5 4.7-6.9 0-13 1.1-18.5-3.6-2.5.7-4.3.7-4.3.7zM77.9 280.3c4.3-13.5-8-19.3-9.8-26.6-4.3 12.4-3.3 22.6 1.8 24.8 2.9-4.7-2.5-12 0-16-.4 3.6 6.2 12.7 3.3 16.7.3-.4 2.5.4 4.7 1.1zM186.5 56.8c2.9-1.6 6.3-1 10-.3s7.7 1.4 11.7 0c4-1.5 6.5-2.5 9.1-4.7 0 0-3.5-1-3.6-1.1-3.5 2-7.2 1.9-10.5 1.8-2.8-.1-5.4-.1-7.6 1.1 2.9-4 10.8-2.6 14.5-5.1 0 0-.1 0-.2-.1-1.9-.9-13.8-5.8-23.4 8.4h0zm-63-9.8l-3.6 1.1c4.7 5.5 11.6 8 17 8 4.7 0 6.5 1.8 12.3.4-8.7-10.2-19.6-10.9-19.6-10.9l-2.9.4c1.4 2.2 10.1 5.8 12.3 7.3-2.8.6-11.9-2.7-15.5-6.3zm51.5-.8l2.9 2.9c3.6-.4 5.8-4.4 9.8-2.5-2.5.4-5.1 3.6-8.7 3.6l2.2 4c4 .7 7.2-6.6 11.2-8-12.7-6.5-17.4 0-17.4 0h0zm-18.2 10.6c-4-1.5-6.5-2.9-9.1-4.7 0 0 3.5-1 3.6-1.1 3.5 1.7 7 1.6 10.1 1.6 3 0 5.7-.1 8 1.3-2.9-4-10.9-2.5-14.5-5.1 0 0 13.4-7.6 23.6 8.4-2.9-1.6-6.3-1-10-.3-3.7.6-7.7 1.3-11.7-.1h0zM52.5 124.9c1.4-7.6-2.9-18.9-11.2-25.1 2.5 5.8-4 13.5 8.3 25.1.7-5.5-6.2-11.6-4.7-16 1.4 6.5 6.9 7.2 7.6 16z" class="F"/><path d="M313 255.5c2.9-13.5-6.9-15.3-8.7-26.9-5.1 16.7 4 30.2 6.5 30.6.7-6.6-5.4-12-4.3-17.5.3 5.5 4.7 6.2 6.5 13.8h0zM59.4 140.9c.7 4-4.7 9.1-2.5 15.7 5.1-4.7 8.3-12.4 5.1-25.5-1.1 2.5-9.4 9.1-10.1 16.7-.7 5.8 2.5 11.3 2.5 11.3-2.3-9.9 2.8-12.4 5-18.2zm1.8-91.4c2.2 2.5 7.6 9.1 17.4 7.6 5.1-.7 7.6-1.1 12.7-.7-9.5-4.4-16-13.1-28.7-10.2 8 2.2 10.9 6.2 18.8 8-6.1 1.5-13-5.1-20.2-4.7zM42 198.4c.7-2.9 1.8-4.4 1.8-4.4-.7-1.8-2.5-12.4-1.4-14.6.7 4 1.4 7.3 2.9 12.7 5.8-10.2-2.9-17.8-4.3-21.5-3 11.8-1.9 22 1 27.8zM54.3 87.7c2.5-.4 5.1-8 6.5-11.3 0 4.7-1.8 11.3-6.2 15.7.4 1.8 0 4 0 4 5.1-2.5 11.6-14.2 8-28-3.2 7.2-11.2 12-8.3 19.6zm-6.5 85.9c1.1-8.4-5.8-11.6-3.3-18.9.7 5.8 6.9 13.1 6.5 16.7 5.8-8.7-6.5-20.4-10.1-25.5-1.1 11.4.4 21.2 6.9 27.7zm-3.3 57.9c-1.1 5.5 6.5 14.9 5.4 16.7 6.2-9.8-6.2-20.4-8-27.3-2.5 9.8-1.8 24.8 5.8 30.9.8-3.5-5.4-16.3-3.2-20.3zm13.8-37.8c8.7-9.8 5.1-24.8 2.5-31.3-1.8 5.1-9.4 11.3-9.4 15.7 0 2.5.4 4.7 2.5 7.3.7-7.3 4.7-6.6 5.8-13.8 2.2 7.3-3.3 9.5-3.6 16-.3-.1 1.5 3.1 2.2 6.1z" class="F"/><path d="M63.4 228.6c-2.2 11.6-12 13.1-8.7 26.9 1.8-7.3 6.2-8.4 6.9-13.5 1.4 5.5-5.1 10.9-4.3 17.5 2.4-.7 11.1-14.5 6.1-30.9zm-7.6-99.7s7.6-7.6 8.3-16-2.2-10.9 0-18.9c-6.2 5.8-12 16.4-8 24 4.3-6.2.4-8.7 5.1-13.5-2.5 5.8 1.4 9.8-4 17.5-1.4 1.4-1.4 6.9-1.4 6.9zm6.8 69.9C59 209.3 48.9 212.6 51 229.7c1.8-7.6 8.3-10.9 8.7-18.9 1.4 9.1-6.2 14.6-5.8 23.3 8.7-7.3 12.4-20.8 8.7-35.3zm-15.2 23.6c0-10.6 10.9-22.6 3.3-33.5-.7 7.3-12.7 18.2-6.2 30.2-1.1-12 3.3-14.2 5.1-18.2 1.4 5.1-5.1 7.7-2.2 21.5h0zm227.9-166c5.1 0 8 0 12.7.7 10.1 1.5 15.6-5.5 17.4-7.6-7.2-.4-14.1 6.2-20.7 4.7 8-1.8 10.9-5.8 18.8-8-11.9-2.9-18.8 5.8-28.2 10.2zm-79.7-13.5l3.6-1.5c-1.1-1.8-4-2.2-5.1-4.4 1.4.7 5.8 1.8 8 3.6h5.1s-5.4-6.2-18.1-6.2c1.4 3.1 4 7.5 6.5 8.5zm47.8.8c1.4.4 6.5-.4 6.5-.4-1.4-1.5-6.9-4.7-11.6-6.6 5.4-.4 14.5 5.1 15.6 5.8 2.2-.7 5.8 0 5.8 0-12-11.6-22.8-9.1-28.3-7.6 5.1 7 10.9 8.4 12 8.8h0zm-17.7.3c-1.1-1.8-9.1-3.3-11.6-6.2 2.5 1.1 10.5 1.8 14.9 5.1l1.4-.4s-5.4-6.9-11.6-7.6-10.1.7-12.7.7c3.3 4.4 15.2 13.2 19.6 8.4zm-50.4-6.5c-1.4 2.2-4.3 1.8-5.8 3.6l3.3 1.8c4.3-1.1 7.6-5.5 14.1-6.2-17.8-6.2-25 1.8-25 1.8l5.1 1.1c2.5-1 6.9-1.4 8.3-2.1h0zm140.6 37.8c1.4-8-7.2-11.6-2.5-22.2-1.4 10.2 4.7 11.6 5.8 17.5 2.5-4.7 0-9.1-1.1-13.8-1.4-4.7-1.8-8.7-1.4-14.6-3.3 5.1-14.9 16-.8 33.1zm-163-37.8c-2.5 3.3-10.5 4.7-11.6 6.2 4.3 4.7 16.3-4 19.9-8.7-2.5 0-6.5-1.1-12.7-.7-6.2 1.1-11.6 8-11.6 8l1.4.4c4-3.4 12.4-4.1 14.6-5.2h0zm171 6.2c.7 2.5 2.2 6.6.4 16 4.3-4.4 5.4-13.8-.4-24-2.2 5.1-5.4 15.7-1.4 21.8 1.4-2.5 1.7-10.5 1.4-13.8zm-20.3 69.1c.7 8.4 8.3 16 8.3 16s0-5.5-1.1-7.3c-5.4-7.3-1.4-11.6-4-17.5 4.7 5.1.4 7.3 5.1 13.5 4-7.6-1.8-18.2-8-24 1.9 8.4-1 11-.3 19.3h0zm14.1-16c5.1-6.2 2.5-15.3 6.5-18.2-1.8 5.1 1.4 10.6-3.6 19.7 9.4-5.1 8.3-23.7 5.8-29.5-2.9 8-12 10.5-8.7 28h0zm-39.1-52.4s-4.7-5.1-10.1-6.2c7.2-.4 9.4 2.9 14.9 5.1 1.4-.7 4.3-1.1 4.3-1.1-.7-1.8-10.1-9.1-26.8-6.9 3.2 1.8 6.8 11.3 17.7 9.1zm-234.8-.7c-.4 3.3 0 11.3 1.4 13.8 4-6.2.7-16.7-1.4-21.8-5.8 9.8-4.7 19.7-.4 24-1.8-9.5-.3-13.5.4-16z" class="F"/><path d="M128.6 37.1c-5.8-.4-14.5 4.7-15.6 5.8-1.9-.6-4.6-.4-5.5.1 11.9-11.4 22.6-8.8 28-7.4-4.7 6.6-10.9 8-12 8.4-1.4.4-6.5-.4-6.5-.4 1.4-1.4 6.9-4.7 11.6-6.5zm-21.4 6.2c0-.1.1-.2.3-.3l-.3.3zm-64.9 85.6c1.1 5.1 5.4 6.6 6.5 12.4 1.8-2.9 2.9-6.6.4-9.5-1.8-2.5-6.5-5.1-9.4-13.1-2.2 7.6-.7 22.2 6.5 28.4 1.5-8.8-4.7-12.1-4-18.2zm-10.8 90.6V23.3h305.1v195.9c0 10.2 0 18.2-1.1 25.5-1.4 8-3.6 15.3-8.3 24-16.7 31.7-47.8 50.2-85.1 71.7-19.9 11.6-34.8 20.4-56.2 34.6l-1.8 1.5-1.1-.7c-22.1-14.6-37-23.3-56.9-34.9-37.3-21.5-68.5-40-85.1-71.7-4.7-9.1-7.2-16.4-8.3-24-1.2-7.9-1.2-15.5-1.2-25.7h0zm292.4 48.8c9.1-17.1 9.1-28 9.1-47.7V28H34.4v192.6c0 20 0 30.6 9.1 47.7 16.3 30.2 46.4 48.4 83.7 70.3 20.3 11.6 35.1 20.7 56.5 34.9 21.4-14.6 36.6-23.3 56.5-34.9 37.3-21.5 67.7-39.7 83.7-70.3h0zM47.1 98.3c-5.1-9.5-1.8-14.9-3.6-19.7 4 3.3 1.1 12 6.5 18.2 3.3-17.5-5.8-20-8.3-28-3 6.2-4.1 24.4 5.4 29.5zm36.6-55c5.4-2.2 7.6-5.5 14.9-5.1-5.4 1.1-10.1 6.2-10.1 6.2 10.5 2.2 14.1-7.3 17.8-8.7-16.7-2.2-26.1 5.1-26.8 6.9-.2 0 2.7 0 4.2.7zm-30.8-5.1c2.2-1.5 15.9-.7 18.8-1.1-2.2 2.2-17 2.2-17 3.6 9.4 3.3 20.3-1.8 25-4-11.2-5.5-27.9-1.1-27.9.4.3 0 1.1.4 1.1 1.1z" class="F"/><path d="M54.3 53.5c5.1 10.6-4 14.2-2.5 22.2 14.1-17.1 2.5-28-.7-33.5.4 5.8 0 9.8-1.4 14.6s-3.6 9.1-1.4 13.8c1.3-5.8 7.5-7.3 6-17.1zm257.6-12.7c.4-1.8-14.9-1.5-17-3.6 3.3.7 16.7-.4 18.8 1.1.4-.7.7-.7.7-.7 0-1.5-16.7-5.8-27.9-.4 5.1 1.7 16 6.8 25.4 3.6h0zm-109 291.9c-2.9 6.9-10.9 10.9-12 16.4 12.3-6.2 17.8-15.3 18.8-23.7-5.1 4.7-25.4 7.6-22.5 26.6 1.9-10.5 11.3-14.2 15.7-19.3zm115.2-200.9c-2.2 3.3-1.1 6.9.4 9.5 1.1-6.2 5.4-7.3 6.5-12.4.7 6.2-5.4 9.8-4 17.8 6.9-6.2 8.3-20.8 6.5-28.4-2.9 8-7.6 10.9-9.4 13.5h0zm-68.9 178.3c8.7-.7 9.8-8.4 10.5-17.1-4.3 6.2-14.5 5.8-17 17.8 0 0 1.8-.7 3.6-.7 2.5-7.3 6.9-6.2 9.4-10.2-1 4.4-5 4.4-6.5 10.2h0zm-33.7 22.6c10.1-4.7 15.9-12.7 18.8-22.2-4 3.3-19.2 4-22.5 21.5 5.8-4.7 7.2-10.2 15.2-14.2-5.3 4-5.3 6.9-11.5 14.9zm51.8-32.4c9.1-3.3 15.6-6.9 16.3-25.1-4.3 6.2-18.5 8.4-19.2 23.7 2.9-7.3 9.8-7.6 13.4-14.6-1.4 8-9 9.1-10.5 16zm46.4-115c2.2-2.5 2.5-4.7 2.5-7.3-.4-4.4-7.6-10.6-9.4-15.7-2.5 6.6-6.2 21.5 2.5 31.3 1.1-3.3 2.5-6.2 2.5-6.2-.7-6.6-5.8-8.7-3.6-16 .8 7.3 4.8 6.6 5.5 13.9h0z" class="F"/><path d="M313 95.7s-.4-2.2 0-4c-4-4.4-5.8-10.9-6.2-15.7 1.4 3.3 4 10.9 6.5 11.3 2.5-7.6-5.4-12.4-8.7-19.7-3.2 13.9 3.3 25.6 8.4 28.1zm14.1 50.6c-3.6 5.1-15.9 16.7-10.1 25.5-.4-3.6 5.8-11.3 6.5-16.7 2.2 7.3-4.3 10.6-3.3 18.9 6.2-6.9 7.7-16.7 6.9-27.7zm-29.3 132.2c5.1-2.2 6.2-12.4 1.8-24.8-1.8 7.3-13.8 13.1-9.8 26.6 2.2-1.1 4.3-1.5 4.7-1.5-2.9-4 3.6-12.7 3.3-16.7 2.5 4.4-2.9 11.3 0 16.4h0zm8-12.4c.4 1.5 0 4 0 4 2.9-.7 6.9-3.6 9.1-6.2-2.2 4.7-6.5 8-9.4 9.5-.4 2.5-1.4 4.4-1.4 4.4 7.2-1.5 18.1-12.4 17-22.2-3.8 6.5-13.2 6.1-15.3 10.5h0zm15.6-22.2c1.4-4.7 3-10.2 1.7-12.8.4 3.1-1.7 7.5-3.5 11-1.3 2.7-2.4 4.9-2 5.7-3.9-6.6.4-13.5 4.1-19.5 1.8-2.9 3.4-5.6 3.9-7.8 2.5 9.5 1.8 24.8-5.8 30.9-.2-1.2.7-4.2 1.6-7.5h0zm-35.6 44c3.6.4 10.9-1.8 14.1-3.3-3.6 3.6-11.6 5.5-15.2 6.2-1.1 2.2-1.8 3.3-1.8 3.3 8.3-.4 20.7-4.4 24.3-13.8-6.2 3.6-16.3.7-21.4 7.6h0zm36.6-95.7c1.4-5.5 2.2-8.7 2.9-12.7 1.1 2.2-.7 12.7-1.4 14.6 0 0 1.1 1.5 1.8 4.4 2.9-5.8 4-16 1.1-27.7-1.5 3.9-10.2 11.2-4.4 21.4h0zM203.9 344.7c4-.4 6.9-4.7 11.6-4.4-3.3.7-7.2 7.3-22.5 12-2.9 2.5-4.3 5.5-6.2 8.7 22.5-8 26.1-20 37.3-21.1-2.8-2.4-13.3-5.7-20.2 4.8h0zm24-17.4s-.4 1.5-2.2 2.5c2.9 0 9.4-2.5 13.8-1.1-6.9 0-8.7 3.6-19.6 4.7 9.4 4 19.9-.4 26.8-7.3-3.6-.3-12.3-2.1-18.8 1.2zm29.3-16.1l3.3 1.1c3.6-6.2 9.4-4 15.9-8.4-5.4 5.8-9.8 4-13 9.1 6.5 2.9 18.5-7.6 21.7-15.3-8.3 5.9-22.1 1.5-27.9 13.5zm-23.2 7.7c6.9 0 13.4-3.6 20.3-1.5-7.6-.4-9.4 1.8-19.2 4 6.5 1.8 19.6 1.1 27.9-5.1-5.8 0-18.5-8.3-29 2.6zm-95.6-216.6c-.4-2.2-2.2-3.6-2.5-1.8-1.1 6.6-8.3 9.5-11.6 12.7-2.5 2.2-2.9 3.6-4.7 6.6-.7 1.1-4.7 1.1-4.7 1.1s-.4-2.9 1.1-4c6.9-4.4 9.4-6.6 12.7-13.5 2.2-4.4 4-9.5 1.4-13.8-.4-2.5-.7-3.3-1.4-5.5-2.5.4-3.6 2.5-3.6 2.5s-1.1-5.1-2.9-7.3c-2.9 1.1-4.7 4-4.7 4s-1.1-3.6-3.6-6.2c-2.9 1.1-5.1 3.6-5.1 3.6s-1.8-2.2-4.3-4c-2.9 2.2-4.3 5.1-4.3 5.1s-1.4-1.8-4.3-2.9c-2.5 2.5-3.3 6.2-3.3 6.2s-1.4-1.8-2.9-2.5c-1.8 1.1-.7 5.1-1.8 5.1-8.3 10.9 7.6 25.5 13.4 29.5 1.8 1.1 1.4 4 1.4 4h-1.8c-2.9-8.4-11.2-8.7-13.4-10.9s-5.1-5.5-6.9-8.4c-.7-1.1-1.8 0-2.2 1.1-.1 1.6-.3 3.2-.5 4.8-.7 6.8-1.2 12.5.8 14.9 5.7 7.1 10.8 5.7 15.9 4.3 3-.8 6-1.6 9.1-.7 0 0-.4 4.4 2.2 5.1 1.8.4 6.2.4 7.6-.7 2.2-1.1 1.4-5.8 1.4-5.8h2.2c2.9 3.3 12.7 3.3 17-.4 3.9-4 5-13.1 4.3-22.2zm-36.3-18.9c-.4.7-.4 1.5-.4 1.5 1.8.4 3.3-.7 4.3-1.8 0 0 0-.4-.7-1.1-.4-.4-.7-.7-1.4-1.1-.4.7-.7 1.1-1.1 1.5-.3.2-.7.6-.7 1zm8 0s.4-.7.7-1.1l1.1-1.1c1.1.7 1.4 1.8 1.8 2.5s.4 1.5.4 1.5c-1.5-.4-2.6-1.1-4-1.8zM96 82.6c1.8 1.5 3.3 2.5 3.3 2.5-2.1.3-3.5.7-4.2 1.3.1-.3-.1-1.9.9-3.8zm22.8 2.6c-.7.4-1.1.4-1.1.7 2.2.4 3.6.7 4.3 1.5 0 0 .4-1.1-.4-2.9 0-.4 0-.7-.4-1.1-1 .7-1.7 1.4-2.4 1.8zM92 87.4c-.4-.4-1.1-.7-1.8-1.1 0 .7 0 1.1-.4 1.8 0 .7.4 1.5.4 2.2.4-.7.7-1.1 1.1-1.5l1.1-1.1-.4-.3zm3.6 2.1l-2.2 1.1s-.4 0-1.1 1.1c-.4 0-.7 0-.7.4 0 0-.4 0-.4.4l1.4 2.2s2.9-1.8 4-2.2c0 .4.4.4.4.7.4.7 1.1 1.5 1.4 2.2.4.4.4.7.4.7s.4-.7 1.4-1.8c.4-.4.7-.7 1.4-1.1.4 0 .7-.4 1.1-.4 1.1.4 1.8 1.1 2.5 1.8 1.1 1.1 1.8 2.2 1.8 2.2s.4-.7 1.1-1.5c1.1-1.1 2.2-1.8 3.3-2.5.7.4 1.4.7 1.8 1.1l.7.7c.4.7.7 1.1 1.1 1.5.4.7.7 1.1.7 1.1s.7-2.9 2.2-4.7c1.8.7 2.9 1.8 3.3 2.5l.4.4 1.8-2.2c-2.2-4.4-7.6-3.6-11.2-5.5v.7c0 .4 0 .4.4.7l.4.4c.4.4.4.7.7 1.1.4.7.4 1.1.4 1.8 0-.4-.4-.4-.4-.7-.7-1.1-1.8-1.8-2.9-2.9-.4-.4-.7-1.1-.7-1.5h-.4s-.4 0-.4.4c-.7 1.5-.4 4.7-1.1 5.5h-.4c0-.4-.4-.7-.4-1.1-.4-.7-.4-1.1-.4-1.8 0-1.5 0-2.9-1.1-3.6-.4.4-1.4 1.1-2.5 2.2-.4 0-.4.4-.7.7-.7.7-1.4 1.8-1.8 2.5v-1.5c0-.4.4-.7.4-1.1.4-.7.7-1.1.7-1.8-.6.4-3.5.7-6.4 1.8h0zm29.7-.7s.4-.4.7-.4c.4-.4 1.1-.7 1.8-1.1.4 1.5.4 2.5 0 4-1-1.4-1.8-1.8-2.5-2.5zm-33.7 7.7l-.7.7c-.7.7-1.1 1.5-1.1 1.5s-1.1-1.8-1.1-3.3c0 0 .4-1.5.7-2.2 0 0 0-.4.4-.4s.4.4.7.7c0 1.5.8 2.6 1.1 3zm33 .7s.4 0 .7.7l.4.4a6.51 6.51 0 0 1 1.1 1.5l.7-2.2c.4-.4.4-.7.4-1.1 0 0 0-.7-.4-1.1-.4-.7-.4-1.1-.7-1.5l-.7.7c-.4.7-.7 1.1-1.1 1.8 0 .4-.4.4-.4.8zm-6.9 0v1.1s.4.4 1.1 0c.4.4 1.1.7 1.4 1.5.4-1.1 1.1-2.2 1.4-2.5l-1.4-2.2-.4-.4-.4-.4s-.4 0-.4.4c0 0-.4 0-.4.4-.4.4-.4.4-.4.7-.4.4-.4.4-.4.7-.1.3-.1.3-.1.7zm-22.5 2.2c-.4-.4-.4-.7-.7-.7l-.7-.7s.7-1.8 2.2-2.9c0-.4.4-.4.4-.4l.4.4c.4.4.7 1.1.7 1.8.4.7.4 1.5.4 1.5l-.8.6c-.4.4-.7.7-1.1 1.5-.4-.4-.4-.8-.8-1.1h0zm7.3 0l-1.1-1.1s.7-1.8 1.8-2.9c0-.4.4-.4.4-.4 1.1 1.1 2.2 3.6 2.2 3.6l-.7.7c-.4.4-1.1.7-1.4 1.8-.1-.6-.5-1.4-1.2-1.7zm11.9-.4s-.4.4-.7.4l-.4.4c-.4.4-1.1 1.1-1.4 1.8-.4-.7-.7-1.1-1.1-1.5l-.4-.4-.7-.7c.4-.7 1.1-2.5 2.2-3.6l.4.4c.4.4.7.7.7 1.1.4.4.4.7.7 1.1a24.37 24.37 0 0 0 .7 1h0zm-12.3 6.2l.4-.4.7-.7s-.7-1.1-1.1-2.9c-.4-.4-.4-.7-.7-.7s-.4-.4-.7-.4c-1.1 1.5-1.8 3.3-1.8 3.3v.4l.4.4.4.4c.4.7 1.1 1.5 1.4 2.2.3-.5.7-1.2 1-1.6zm-7.2-.4c0-.4.4-.7.7-1.1 0-.1 0-.2-.1-.3-.1-.2-.1-.4.4-.4-.4-.4-.4-.7-.7-1.1-.4-.4-.7-1.1-1.4-1.5l-.4.4c-.4 0-.7.4-.7.7 0 .4-.4.4-.4.7-.3.4-.3.8-.3.8s.4 1.5 1.8 3.3c.4-.7.7-1.1 1.1-1.5zm12.7.8c-.4-.7-1.1-1.5-1.4-1.8 0 0 .7-2.2 2.2-3.3.7.4 1.1 1.1 1.4 1.5.4.4.4.7.7 1.1.4.4.4.7.4.7l-.4.4s-.4.4-.4.7c-.4.7-1.1 1.5-1.4 2.2a5.22 5.22 0 0 0-1.1-1.5zm17-3.7l.7 1.5c0 .4-.7 1.5-1.8 3.3-1.1-1.8-2.2-2.5-2.2-2.5s.7-1.8 2.2-2.9c.4-.1.7.3 1.1.6zm-9.4 0c-1.1 1.1-1.8 2.9-1.8 2.9s1.1.4 1.8 1.5c.4.4.4.7.7 1.1.7-1.1 1.8-2.5 2.2-2.9 0 0-.7-1.5-1.8-2.5 0 0 0-.4-.4-.4s-.7 0-.7.3zm11.9 17.5a22.89 22.89 0 0 0 3.6-2.9c2.2-2.2 4.3-6.2 5.1-11.3-.4.4-.7.7-1.1 1.5-.4.7-.7 1.1-1.4 1.8l-1.1 1.1c-.4.7-1.1 1.1-1.8 1.8-.7.4-1.1.7-1.4 1.1-.4.4-.7.4-1.1.7-.4.4-.4.4-.7.4s-.4 0-.7.4l-.7.7-.7.7-.4.4c-1.4 1.5-2.5 3.6-1.4 4.4h.4c.5.3 2-.1 3.4-.8zm-7.2-9.1l-.7.7-.7.7c0-.4-.4-1.1-1.1-1.5 0 0-.4 0-.4-.4s.4-.7.7-1.8c.4-.4.4-.7.7-1.1 0 0 .4.4.4.7l.4.4c1.1.7 1.4 1.5 1.4 1.5l-.7.8zm-21 1.4c.4-.4.7-.7 1.1-1.5.4-.4 0-1.1-.7-1.8 0-.4-.4-.7-.7-1.1 0 .4 0 .4-.4.7-.4 0-.4.4-.4.4-.4.4-.7 1.1-.7 1.1s0 .4.4.7c.4 0 .4.4.7.7l.7.8h0zm7.9-.3l.7-.7c0-.4-.7-1.8-1.8-2.9l-.4-.4c-1.1.4-1.8 1.5-2.2 2.2l-.4.4.7.7c.7.7 1.4 1.8 1.8 2.5 0-.4.4-.4.4-.7l.7-.7c.2-.1.5-.4.5-.4zm7.3-1.5l-.7.7c-.7.7-1.4 1.5-1.8 2.5-.7-1.5-1.8-2.2-1.8-2.2 0-.4.7-1.8 1.8-2.9l.4-.4c.4 0 .7.4.7.7.7.2 1 .9 1.4 1.6zm-30.8-.7c-.7 13.5 13 15.3 14.1 12 .7-2.5-3.3-5.8-5.8-6.9-3.2-1.5-6.9-2.6-8.3-5.1zm-.7 10.9l-.4-.4c-.4-.4-.4-.7-.7-1.1-.4-.4-.4-.7-.4-1.1-.4-1.8-.4-3.6-.4-5.8.4 4 1.8 6.6 3.3 8.4.7 1.1 1.8 1.8 2.5 2.2-1.4-.4-2.8-1.1-3.9-2.2zm48.9 1.1c-2.5 2.9-6.9 4.4-10.1 1.5 1.4 0 2.5-.4 4-.7 1.8-.7 3.6-1.8 5.4-2.9l.7-.7c1.1-1.1 2.2-2.5 2.9-4 0 2.1-1.1 4.6-2.9 6.8zm-22.1 7.3c.7 0 1.8 0 2.5-.7.4 0 .7-.4.7-1.1 0-2.9 0-5.8-.4-8.7-1.1-.4-2.2-.4-3.3.4 0 1.3-.1 2.4-.3 3.4-.2 1.9-.4 3.7.3 6.1v.4c.1.2.5.2.5.2z" class="F"/><path d="M287.6 100.5c.4-1.8 2.2-.4 2.5 1.8 1.1 9.1 0 18.2-4.3 22.2-4.3 3.6-14.1 3.6-17 .4h-2.2s.7 4.7-1.4 5.8c-1.4 1.1-5.8 1.1-7.6.7-2.5-.7-2.2-5.1-2.2-5.1-3.1-.9-6.1-.1-9.1.7-5.1 1.4-10.2 2.8-15.9-4.3-2.1-2.4-1.5-8.1-.8-14.9.2-1.6.3-3.2.5-4.8.4-1.1 1.4-2.2 2.2-1.1 1.8 2.9 4.7 6.2 6.9 8.4s10.5 2.5 13.4 10.9h2.2s.4-2.9-1.4-4c-5.8-4-21.7-18.6-13.4-29.5 1.1 0 0-4 1.8-5.1 1.4.7 2.9 2.5 2.9 2.5s.7-3.6 2.9-6.2c2.9 1.1 4.3 2.9 4.3 2.9s1.4-2.9 4.3-5.1c2.5 1.8 4.3 4 4.3 4s2.2-2.5 5.1-3.6c2.5 2.5 3.6 6.2 3.6 6.2s1.8-2.9 4.7-4c1.8 2.2 2.9 7.3 2.9 7.3s1.1-2.2 3.6-2.5c.7 2.2 1.1 2.9 1.4 5.5 2.5 4.4.7 9.5-1.4 13.8-3.3 6.9-5.8 9.1-12.7 13.5-1.4 1.1-1.1 4-1.1 4s4 0 4.7-1.1c1.8-2.9 2.2-4.4 4.7-6.6 3.3-3.3 10.5-6.2 11.6-12.7h0zm-33.7-15.7s0-.7.4-1.5c0-.4.4-.7.7-1.1.4-.4.7-.7 1.1-1.5.7.4 1.1.7 1.4 1.1.7.7.7 1.1.7 1.1-.2.1-.3.3-.5.4-1.1 1-2.2 1.8-3.8 1.5zm9.1-2.5c-.4.4-.7 1.1-.7 1.1 1.4.7 2.5 1.5 4 1.8 0 0 0-.7-.4-1.5-.4-.7-.7-1.8-1.8-2.5l-1.1 1.1h0zm-11.6 2.9s-1.4-1.1-3.3-2.5c-1.1 2.2-1.1 4-1.1 4 .8-.8 2.2-1.2 4.4-1.5zm18.1.7c0-.4.4-.4 1.1-.7.7-.4 1.4-1.1 2.5-1.8.4.4.4.7.4 1.1.7 1.8.4 2.9.4 2.9-.4-.8-2.2-1.1-4.4-1.5h0zm-27.2.4c.7.4 1.4.7 1.8 1.1l.4.4-1.1 1.1c-.4.4-.7.7-1.1 1.5 0-.7-.4-1.5-.4-2.2.1-.8.1-1.2.4-1.9zm3.3 4.3l2.2-1.1c2.9-1.1 5.8-1.5 6.5-1.8 0 .7-.4 1.1-.7 1.8 0 .4-.4.7-.4 1.1v1.5c.4-.7 1.1-1.8 1.8-2.5.4-.4.4-.7.7-.7 1.1-1.1 2.2-1.8 2.5-2.2 1.1.7 1.1 2.2 1.1 3.6 0 .7 0 1.1.4 1.8 0 .4.4.7.4 1.1h.4c.7-.7.4-4 1.1-5.5 0-.4.4-.4.4-.4h.4c0 .4.4 1.1.7 1.5 1.1 1.1 2.2 1.8 2.9 2.9 0 .4.4.4.4.7 0-.7 0-1.1-.4-1.8-.4-.4-.4-.7-.7-1.1l-.4-.4c-.4-.4-.4-.4-.4-.7v-.7c3.6 1.8 9.1 1.1 11.2 5.5l-1.8 2.2-.4-.4c-.4-.7-1.4-1.8-3.3-2.5-1.4 1.8-2.2 4.7-2.2 4.7s-.4-.4-.7-1.1c-.4-.4-.7-.7-1.1-1.5l-.7-.7c-.4-.4-1.1-.7-1.8-1.1-1.1.7-2.2 1.5-3.3 2.5-.4 0-.7.7-.7.7s-.7-1.1-1.8-2.2c-.7-.7-1.4-1.5-2.5-1.8-.4 0-.7.4-1.1.4-.7.4-1.1.7-1.4 1.1-1.1 1.1-1.4 1.8-1.4 1.8s0-.4-.4-.7c-.4-.7-1.1-1.5-1.4-2.2 0-.4-.4-.4-.4-.7-1.1.4-4 2.2-4 2.2l-1.4-2.2c0-.4.4-.4.4-.4 0-.4.4-.4.7-.4.2-.3.2-.3.6-.3h0zm32.3-2.1c-.4 0-.7.4-.7.4 1.1.7 1.4 1.1 2.5 2.5.4-1.5.4-2.5 0-4-.8.3-1.5.7-1.8 1.1zm-35.2 8.7l.7-.7c-.4-.4-.7-1.5-1.1-2.9-.4-.4-.4-.7-.7-.7s-.4.4-.4.4c-.4.7-.7 2.2-.7 2.2 0 1.5 1.1 3.3 1.1 3.3s.4-.9 1.1-1.6zm34.4.7c-.4-.7-.4-.7-.7-.7 0-.4.4-.4.4-.7.4-.7.7-1.1 1.1-1.8l.7-.7c.4.4.4.7.7 1.5.4.4.4 1.1.4 1.1 0 .4 0 .7-.4 1.1l-.7 2.2s-.4-.7-1.1-1.5l-.4-.5zm-7.2.4v-1.1c0-.4 0-.4.4-.7 0-.4 0-.4.4-.7 0-.4 0-.4.4-.7 0-.4.4-.4.4-.4 0-.4.4-.4.4-.4l.4.4.4.4 1.4 2.2c-.4.4-1.1 1.5-1.4 2.5-.4-.7-1.1-1.1-1.4-1.5-1.1.3-1.4 0-1.4 0zm-23.2.3c.4 0 .4.4.7.7s.4.7.7 1.1c.4-.7.7-1.1 1.1-1.5l.7-.7s0-.7-.4-1.5c0-.7-.4-1.5-.7-1.8l-.4-.4s-.4 0-.4.4c-1.4 1.1-2.2 2.9-2.2 2.9l.9.8h0zm8 .8l-1.1-1.1s.7-1.8 1.8-2.9c0-.4.4-.4.4-.4 1.1 1.1 2.2 3.6 2.2 3.6l-.7.7c-.4.4-1.1.7-1.4 1.8-.5-.6-.9-1.4-1.2-1.7zm10.8 0c.4 0 .7-.4.7-.4s0-.4-.7-1.1c-.4-.4-.4-.7-.7-1.1 0-.4-.4-.7-.7-1.1l-.4-.4c-1.1 1.1-1.8 2.9-2.2 3.6l.7.7.4.4c.4.4.7.7 1.1 1.5.4-.7 1.1-1.5 1.4-1.8.1 0 .4-.3.4-.3zm-11.6 5.8l.4-.4.7-.7-1.1-2.9c-.4-.4-.4-.7-.7-.7s-.4-.4-.7-.4c-1.1 1.5-1.8 3.3-1.8 3.3v.4l.4.4.4.4c.4.7 1.1 1.5 1.4 2.2.3-.5.7-1.2 1-1.6zm-6.5-1.5c-.4.4-.7.7-.7 1.1-.4.4-.7.7-1.1 1.5-1.4-1.8-1.8-3.3-1.8-3.3s0-.4.4-.7c0-.4.4-.4.4-.7 0-.4.4-.7.7-.7l.4-.4c.7.4 1.1 1.1 1.4 1.5.4.4.4.7.7 1.1-.4-.1-.4.3-.4.6zm12.3 1.9c-.4-.7-1.1-1.5-1.4-1.8 0 0 .7-2.2 2.2-3.3.7.4 1.1 1.1 1.4 1.5.4.4.4.7.7 1.1.4.4.4.7.4.7l-.4.4s-.4.4-.4.7c-.4.7-1.1 1.5-1.4 2.2-.3-.8-.7-1.2-1.1-1.5zm17.4-2.2l-.7-1.5c0-.4-.4-.7-1.1-.7-1.4 1.1-2.2 2.9-2.2 2.9s1.1.7 2.2 2.5c1.1-1.8 1.8-2.9 1.8-3.2zm-9.8-1.5c-1.1 1.1-1.8 2.9-1.8 2.9s1.1.4 1.8 1.5c.4.4.4.7.7 1.1.7-1.1 1.8-2.5 2.2-2.9 0 0-.7-1.5-1.8-2.5 0 0 0-.4-.4-.4s-.7 0-.7.3h0zm8 18.2c.7.4 2.2 0 3.6-.7a22.89 22.89 0 0 0 3.6-2.9c2.5-2.2 4.7-6.2 5.1-11.3-.4.4-.7.7-1.1 1.5-.4.7-.7 1.1-1.4 1.8l-1.1 1.1c-.4.7-1.1 1.1-1.8 1.8-.7.4-1.1.7-1.4 1.1-.4.4-.7.4-1.1.7-.4.4-.4.4-.7.4s-.4.4-.7.4c0 .4-.4.4-.7.7l-.7.7-.4.4c-1.4 1.5-2.5 3.6-1.4 4.4h.2zm-4-9.1l.7-.7.7-.7s-.4-.7-1.4-1.5l-.4-.4c0-.4-.4-.7-.4-.7-.4.4-.4.7-.7 1.1-.4 1.1-.7 1.5-.7 1.8s.4.4.4.4c.7.4 1.1 1.1 1.1 1.5l.7-.8zm-19.2-.7c-.4.7-.7 1.1-1.1 1.5l-.7-.7c-.4-.4-.4-.7-.7-.7l-.7-.7s.4-.7.7-1.1c0 0 0-.4.4-.4.4-.4.4-.4.4-.7.4.4.7.7.7 1.1 1 .6 1.4 1.3 1 1.7h0zm6.9 1.1l.7-.7c0-.4-.7-1.8-1.8-2.9l-.4-.4c-1.1.4-1.8 1.5-2.2 2.2l-.4.4.7.7c.7.7 1.4 1.8 1.8 2.5 0-.4.4-.4.4-.7l.7-.7c.2-.1.5-.4.5-.4zm7.3-1.5l-.7.7c-.7.7-1.4 1.5-1.8 2.5-.7-1.5-1.8-2.2-1.8-2.2 0-.4.7-1.8 1.8-2.9l.4-.4c.4 0 .7.4.7.7.6.2 1 .9 1.4 1.6zm-16.7 11.3c-1.1 3.3-14.9 1.5-14.1-12 1.4 2.5 5.1 3.6 8.3 5.1 2.2 1.1 6.5 4.4 5.8 6.9zm-15.2-1.4l.4.4c1.1 1.1 2.2 1.8 4 2.2-.7-.4-1.8-1.1-2.5-2.2-1.4-1.8-2.9-4.4-3.3-8.4 0 2.2 0 4 .4 5.8 0 .4 0 .7.4 1.1.2.3.2.7.6 1.1zm49.3 1.4c-2.5 2.9-6.9 4.4-10.1 1.5 1.4 0 2.5-.4 4-.7 1.8-.7 3.6-1.8 5.4-2.9l.7-.7c1.1-1.1 2.2-2.5 2.9-4-.1 2.1-1.1 4.6-2.9 6.8h0zm-22.2 7.3c.7 0 1.8 0 2.5-.7.4 0 .4-.4.7-1.1 0-2.9 0-5.8-.4-8.7-1.1-.4-2.2-.4-3.3.4 0 1.3-.1 2.4-.3 3.4-.2 1.9-.4 3.7.3 6.1v.4c.2.2.5.2.5.2zm-217.7 245c1.1 0 1.4-.4 1.4-1.1v-14.9c0-.7-.4-1.1-1.4-1.1v-.4h8.3c3.6 0 5.1 2.2 5.1 4.4 0 2.9-2.5 4.4-5.1 4.7l5.1 6.6c1.1 1.1 1.8 1.8 2.5 1.8v.4h-3.6c-.4 0-.7-.4-2.9-3.6l-3.6-4.7-.7-.7c0-.4 0-.4.4-.4 2.9 0 5.1-1.1 5.1-3.6s-2.2-2.9-4.7-2.9h-1.4v14.6c0 .7.4 1.1 1.4 1.1v.4h-5.8v-.6h-.1zm266.7 0c0 .7-.4 1.1-1.4 1.1v.4l14.1-.4c0-1.5 0-2.9.4-4.7h-.4c-.4 2.5-1.4 2.9-4 2.9h-5.8v-6.9h4c1.1 0 1.4 0 1.8 1.5h.7c0-.7-.4-1.5-.4-2.5v-2.2h-.7c0 1.5-.7 1.5-1.8 1.8h-4v-5.8h6.5c1.1 0 2.2.4 2.5 2.5h.7c0-1.5-.4-2.9-.4-4l-13.4.4v.4c1.1 0 1.4.4 1.4 1.1v14.4h.2zm-11.3 8.4c1.8 0 4-.7 5.4-1.8l-1.1 1.5c-1.4 1.5-3.6 2.2-6.2 2.2-3.6 0-8.3-2.9-8.3-9.5.4-6.6 6.2-9.1 10.1-9.1 1.4 0 2.9.4 4.3 1.1 0 1.1.4 2.5.4 4h-.4c-.4-2.5-2.9-3.3-4.7-3.3-3.6 0-6.5 2.5-6.5 6.6.1 4.3 3 8.3 7 8.3h0zM63 383c1.1 0 1.4-.4 1.4-1.1l.4-14.9c0-.7-.4-1.1-1.4-1.1v-.4h13.4c.4 1.1.4 2.5.4 4h-.7c-.4-2.2-1.4-2.5-2.5-2.5h-6.5v5.8h4c1.1 0 1.4 0 1.8-1.5h.7v4.7h-.7c-.4-1.5-.7-1.5-1.8-1.5h-4v6.9h5.8c2.5 0 3.6-.4 4-2.9h.4c-.4 1.8-.4 3.3-.4 4.7H63v-.2h0zm19.2 2.1v4.4c1.4 1.1 3.3 1.5 5.1 1.5 5.1.4 7.6-2.2 8-5.5.3-3.4-2.2-4.3-5.2-5.3l-.6-.2c-3.3-.7-4.3-1.1-4.3-3.3 0-1.8 1.8-2.9 4.7-2.9 1.8 0 4.3 1.1 4.3 3.6h.7v-4c-1.1-.7-3.3-1.1-4.7-1.1-4.3-.4-7.6 2.2-7.6 4.7 0 3.3 2.5 4.4 7.2 5.5 1.8.4 3.3 1.1 3.3 3.3 0 2.5-2.5 3.3-4.7 3.3-2.9 0-4.7-1.8-5.4-4.4l-.8.4zm197.5 5.1h5.8v-.4c-1.1 0-1.4-.4-1.4-1.1v-14.9c0-.7.4-1.1 1.4-1.1v-.4h-5.8v.4c1.1 0 1.4.4 1.4 1.1v14.9c0 .7-.4 1.1-1.4 1.1v.4zm-179 5.1c1.1 0 1.4-.4 1.4-1.1v-14.6c0-.7-.4-1.1-1.4-1.1v-.4h8c3.6 0 5.4 2.2 5.4 5.1 0 3.3-2.9 5.5-6.5 5.5-.4 0-2.2-.4-2.5-.7v6.2c0 .7.4 1.1 1.4 1.1v.4h-5.8v-.4h0zm161.9-.7c0 .7-.4 1.1-1.4 1.1v.4h5.8v-.4c-1.1 0-1.4-.4-1.4-1.1v-6.2c.4.4 2.2.7 2.5.7 3.6 0 6.5-2.2 6.5-5.5 0-2.9-1.8-5.1-5.4-5.1h-8.3v.4c1.1 0 1.4.4 1.4 1.1v14.6h.3 0zM105 379.3h.7c3.6 0 6.2.4 6.2 4 0 2.5-2.2 4-4.7 4h-1.8c-.4 0-.4 0-.4.4v-8.4h0zm161.3.4h-.7v8.4c0-.4 0-.4.4-.4h1.8c2.5 0 4.7-1.5 4.7-4-.1-3.7-2.6-4-6.2-4h0zm-23.6 18.9v-4.7h.7c.7 2.5 2.5 4 5.4 4 2.2 0 4.3-1.1 4.3-3.6 0-2.2-1.4-2.5-3.3-2.9-5.1-.7-7.6-1.8-7.6-5.1 0-2.5 3.3-5.1 7.6-5.1 1.1 0 3.6.4 4.7 1.1v4h-.7c-.4-2.5-2.9-3.3-4.7-3.3-3.3 0-4.7 1.5-4.7 3.3s1.1 2.2 4.7 2.9 6.2 1.5 6.2 5.1c0 3.3-2.5 5.8-7.6 5.8-1.7 0-3.5-.4-5-1.5h0zM125 400.8h-5.8v-.4c1.1 0 1.4-.4 1.4-1.1v-14.9c0-.7-.4-1.1-1.4-1.1v-.3h5.8v.4c-1.1 0-1.4.4-1.4 1.1v14.9c0 .7.4 1.1 1.4 1.1v.3zm94.5-5.1c.7 5.1 4.3 8.7 9.8 8 5.4-.7 8.3-5.8 8-10.6-.4-4-3.6-8.7-9.8-8-4.4.4-8.7 5.1-8 10.6zm-74.3 4.7c-1.4 1.1-3.6 1.8-5.4 1.8-4 0-6.9-4-6.9-8.4 0-4 2.9-6.6 6.5-6.6 1.8 0 4.3.7 4.7 3.3h.4c0-1.5-.4-2.9-.4-4-1.4-.7-2.9-.7-4.3-.7-4 0-9.8 2.5-10.1 9.1 0 6.6 5.1 9.1 8.7 9.1 2.5 0 4.7-.7 6.2-2.2l.6-1.4h0zm81.9-13.1c-2.2 0-5.8 2.2-5.1 7.3.4 3.6 3.6 7.6 8 7.3 2.9-.4 5.4-2.9 5.1-7.3-.7-4.7-4.3-7.6-8-7.3zM151 405.2c1.1 0 1.4-.4 1.4-1.1h.7v-14.9c0-.7-.4-1.1-1.4-1.1v-.4h13.4v4h-.7c-.4-2.2-1.4-2.5-2.5-2.5h-6.5v5.8h4c1.1 0 1.4 0 1.8-1.5h.7v4.7h-.7c-.4-1.5-.7-1.5-1.8-1.5h-4v6.9h5.8c2.5 0 3.6-.4 4-2.9h.4c-.4 1.8-.4 3.3-.4 4.7H151v-.2h0zm49.7-.4c0 .7-.4 1.1-1.4 1.1v.4h5.8v-.4c-1.1 0-1.4-.4-1.4-1.1v-14.6h1.4c2.5 0 4.7.4 4.7 2.9s-2.2 3.6-5.1 3.6c-.4 0-.4 0-.4.4l.7.7 3.6 4.7c2.2 3.3 2.5 3.6 2.9 3.6h3.6v-.4c-.7 0-1.4-.7-2.2-1.8l-5.1-6.6c2.5-.4 5.1-1.8 5.1-4.7 0-2.2-1.4-4.4-5.1-4.4h-8v.4c1.1 0 1.4.4 1.4 1.1v14.9l-.5.2h0zm-19.2 0c0 .7-.4 1.1-1.4 1.1v.4h5.8v-.4c-1.1 0-1.4-.4-1.4-1.1v-6.2c.4.4 2.2.7 2.5.7 3.6 0 6.5-2.2 6.5-5.5 0-2.9-1.8-5.1-5.4-5.1h-8.3v.4c1.1 0 1.4.4 1.4 1.1v14.6h.3 0zm3.6-14.9h-.7v8.4c0-.4 0-.4.4-.4h1.8c2.5 0 4.7-1.5 4.7-4 0-3.7-2.6-4-6.2-4h0zM352.9 320c0 3.3-1.4 7.6-3.6 10.9 2.2 1.1 4.3 6.6 4 8.4v4c0 .4-.4.7-.4 1.1-.7 6.9-10.5 13.5-18.5 14.6v12.7c0 2.2-1.1 7.3-4 8.7-13.8 8-28.6 14.2-42.8 19.7-3.6 1.1-6.9 2.5-10.5 3.6-20.7 6.6-41.7 10.6-62.3 12.4l-14.5.7-16.7.4-16.7-.4-14.5-.7c-20.7-1.8-41.7-5.8-62.3-12.4-3.6-1.1-6.9-2.2-10.5-3.6-14.1-5.5-29-11.6-42.8-19.7-2.5-1.5-4-6.2-4-8.7V359h-.4c-8-1.1-17.8-8-18.5-14.6 0-.4-.4-.7-.4-1.1v-4c0-.8.5-2.2.9-3.7.6-2 1.3-4.1.9-4.7-2.2-3.3-3.6-7.6-3.6-10.9v-2.2c.4-4.7 2.2-10.2 8-14.9 1.1-.7 1.8-1.5 2.5-2.2 1.1 2.2 1.8 4.7 2.5 6.9 1.1 3.6 5.8 5.8 8.7 6.6 5.1 1.5 9.8 2.2 14.5 4s10.5 5.1 12.3 8.4c.4.7.7 1.8 1.1 2.5.4 1.1.7 2.5.7 2.9v17.1c17 8.4 33.7 14.6 50.7 18.9 16.7 4.4 33.7 7.3 50.4 8.4l7.2.4h23.6l7.2-.4c16.7-1.5 33.7-4 50.4-8.4 17-4.4 33.7-10.6 50.7-18.9V332c0-.4.4-2.2.7-2.9.4-.7.7-1.8 1.1-2.5 2.2-3.6 8-6.6 12.3-8.4 5.1-1.8 9.8-2.5 14.5-4 2.9-.7 7.6-2.9 8.7-6.6.7-2.2 1.4-4.7 2.5-6.9 1.1.7 1.8 1.5 2.5 2.2 5.8 4.7 7.6 10.2 8 14.9v2.2h.4zm-15.3 33.5c1.4-.7 3.3-1.5 3.3-1.5 6.2-3.6 7.6-6.2 8.3-10.6 0-6.9-5.8-8.4-5.8-9.5s5.1-5.5 5.1-11.6c0-3.3-.7-7.3-3.6-10.9l-.4-.4c-.7 2.5-2.2 5.1-5.1 6.9-1.1.7-1.8 1.5-2.9 1.8-.4 0-.7.4-1.1.4-2.5 1.1-5.1 1.5-7.6 2.2-2.9.7-5.8 1.5-8.7 2.5-.4 0-.4.4-.7.4-.4.4-1.1.4-1.4.7-3.3 1.5-7.6 3.6-8.7 6.2-.4.7-.7 2.2-.7 2.5v2.9c.4 0 2.9.4 3.6.4 5.8 0 11.2-3.3 16.3-3.3h1.8c.4 0 .7 0 1.1-.4.7.4 2.9 1.8 2.9 2.5 0 .4.4.7.4 1.1V354h.7c.4 0 1.1 0 1.8-.4.7.2 1.1.2 1.4-.1h0zM36.2 332.7c-.7.4-2.9 1.8-2.9 2.5 0 .4-.4.7-.4 1.1v18.2h-.7c-1.4 0-6.2-2.5-6.2-2.5-6.2-3.6-7.6-6.2-7.6-10.6 0-6.9 5.8-8.4 5.8-9.5 0-.7-5.1-5.1-5.1-11.3 0-3.6.7-7.6 4-11.3.7 2.2 2.2 4.7 4.7 6.9 4 2.9 8 3.6 12.3 4.7 2.9.7 5.8 1.1 8.7 2.5 3.6 1.5 8.7 4 10.1 6.9.4.7.7 2.2.7 2.5v2.9c-.4 0-2.9.4-3.6.4-5.8 0-11.2-3.3-16.3-3.3H38c-.8-.6-1.3-.5-1.6-.4-.1.3-.1.3-.2.3h0zm23.2 14.6v-8c-.7.4-2.5.4-3.6.4h-2.2c-1.4 0-3.3-.4-4.7-.7-.7-.4-8-2.2-9.1-2.2h-.7c6.5 3.6 13.8 7.6 20.3 10.5zm251.4-7.3c-.7 0-2.2-.4-2.9-.4h-.7v7.6h.7c6.2-2.9 13-6.6 19.6-10.2h-.7c-1.1 0-8.3 2.2-9.1 2.2-1.4 0-3.3.4-4.7.7h-2.2zm19.6 31.3c0 .1 0 .2-.1.4s-.2.5.1.7c.4 2.2-2.9 5.5-5.4 6.2-3.6 1.5-6.9 3.6-10.1 5.1-8 4-16.7 7.6-24.6 10.9-5.4 2.2-10.5 4-15.9 5.8-19.9 6.6-39.9 9.8-59.8 11.6l-12.7.7-13 .4h-9.8l-13-.4-12.7-.7c-19.9-1.8-39.9-5.5-59.8-11.6-5.1-1.8-10.5-3.6-15.9-5.8-8.3-3.3-16.7-6.9-24.6-10.9-3.6-1.5-6.9-3.6-10.1-5.1-2.5-.7-5.8-4-5.4-6.2v-32c21 11.6 42.8 21.5 63.8 28 11.2 3.6 22.8 6.2 33.7 8.4 10.1 1.8 19.9 3.3 30.1 4 5.8.4 1.8.4 19.2.7 17 0 13.4-.4 19.2-.7 10.1-.7 19.9-2.2 30.1-4 11.2-1.8 22.5-4.7 33.7-8.4 21-6.6 42.4-16.4 63.8-28v30.9h-.8z" class="F"/><path d="M250 196.9c.7 0 1.1.4 1.1 1.1v4.4c0 .7-.4 1.1-1.1 1.1s-1.1-.4-1.1-1.1V198c0-.7.3-1.1 1.1-1.1z" fill="#17205c"/><path d="M263 267.2v-1.8h-3.3v-3.3h-3.3v-3.3h-3.3l-.7-39h1.8v-2.2h1.8V211h-2.9v-12.7h4.3v-4l4-2.2v-6.9L184 166.4l-77.5 18.9v6.9l4 2.2v4h4.7v12.7h-2.9v6.6h1.8v2.2h1.8l-.7 39.3h-3.3v3.3h-3.3v3.3h-3.3v6.6h158l-.3-5.2zm-79-88.1l41.3 9.8h-82.6l41.3-9.8h0zM117.3 198c0-.7.4-1.1 1.1-1.1s1.1.4 1.1 1.1v4.4c0 .7-.4 1.1-1.1 1.1s-1.1-.4-1.1-1.1V198zm5.5-1.1c-.7 0-1.1.4-1.1 1.1v4.4c0 .7.4 1.1 1.1 1.1s1.1-.4 1.1-1.1V198c0-.7-.4-1.1-1.1-1.1zm6.1 1.1c0-.7.4-1.1 1.1-1.1h6.5c.7 0 1.1.4 1.1 1.1v4.4c0 .7-.4 1.1-1.1 1.1H130c-.7 0-1.1-.4-1.1-1.1V198zm14.9-1.1c-.7 0-1.1.4-1.1 1.1v4.4c0 .7.4 1.1 1.1 1.1s1.1-.4 1.1-1.1V198c0-.7-.4-1.1-1.1-1.1zm3.3 5.5V198c0-.7.4-1.1 1.1-1.1s1.1.4 1.1 1.1v4.4c0 .7-.4 1.1-1.1 1.1-.4 0-1.1-.7-1.1-1.1zm7.2-4.4v4.4c0 .4.4 1.1 1.1 1.1h6.5c.7 0 1.1-.4 1.1-1.1V198c0-.7-.4-1.1-1.1-1.1h-6.5c-.7 0-1.1.4-1.1 1.1zm13.8 4.4V198c0-.7.4-1.1 1.1-1.1s1.1.4 1.1 1.1v4.4c0 .7-.4 1.1-1.1 1.1-.8 0-1.1-.7-1.1-1.1zm4.3-4.4v4.4c0 .4.7 1.1 1.1 1.1.7 0 1.1-.4 1.1-1.1V198c0-.7-.4-1.1-1.1-1.1s-1.1.4-1.1 1.1zm7.3 4.4V198c0-.7.4-1.1 1.1-1.1h6.5c.7 0 1.1.4 1.1 1.1v4.4c0 .7-.4 1.1-1.1 1.1h-6.5c-.4 0-1.1-.7-1.1-1.1zm13.7-4.4v4.4c0 .4.7 1.1 1.1 1.1.7 0 1.1-.4 1.1-1.1V198c0-.7-.4-1.1-1.1-1.1s-1.1.4-1.1 1.1zm4.4 4.4V198c0-.7.4-1.1 1.1-1.1s1.1.4 1.1 1.1v4.4c0 .7-.4 1.1-1.1 1.1-.4 0-1.1-.7-1.1-1.1zm7.2-4.4v4.4c0 .4.7 1.1 1.4 1.1h6.5c.7 0 1.1-.4 1.1-1.1V198c0-.7-.4-1.1-1.1-1.1H206c-.6 0-1 .4-1 1.1zm13.8 4.4V198c0-.7.4-1.1 1.1-1.1s1.1.4 1.1 1.1v4.4c0 .7-.4 1.1-1.1 1.1-.4 0-1.1-.7-1.1-1.1zm5.8 1.1c.7 0 1.1-.4 1.1-1.1V198c0-.7-.4-1.1-1.1-1.1s-1.1.4-1.1 1.1v4.4c0 .7.4 1.1 1.1 1.1zm5.8-5.5c0-.7.4-1.1 1.1-1.1h6.9c.7 0 1.1.4 1.1 1.1v4.4c0 .7-.4 1.1-1.1 1.1h-6.5c-.7 0-1.1-.4-1.1-1.1V198h-.4zm15.2-1.1c-.7 0-1.1.4-1.1 1.1v4.4c0 .7.4 1.1 1.1 1.1s1.1-.4 1.1-1.1V198c0-.7-.4-1.1-1.1-1.1zm-128.3 8.4v5.5H251v-5.5H117.3h0zm22.9 53.9l.7-40h-.4v-1.8h-2.2v-2.2h-2.2V213h-6.5v2.2h-2.2v2.2h-2.2v1.8l.4 39.7v.4c.1-.1 14.6-.1 14.6-.1zm26.4-40.1l-.7 39.7v.4h-14.5v-.4l-.4-39.7v-1.8h2.2v-2.2h2.2V213h6.5v2.2h2.2v2.2h2.2v1.8h.3zm23.2-1.8v-2.2h-2.9V213h-6.5v2.2h-2.2v2.2H176l.7 41.5h14.5l.7-41.5h-2.1v-.1zm25.4-2.2v2.2h2.2l-.7 41.5h-14.5l-.7-41.5h2.2v-2.2h2.2V213h7.2v2.2h2.1v-.1zm25.3 0v2.2h2.2l-.7 41.5h-14.5l-.7-41.5h2.2v-2.2h2.2V213h7.2v2.2h2.1v-.1zm14.2 47.4v-1.8H113.4v1.8h141.3 0zm-144.6 1.4h148.2v1.8H110.1v-1.8h0zm-3.3 4.7h154.7v-1.5H106.8v1.5h0z" class="F"/></g></svg>